<?xml version="1.0" encoding="iso-8859-1"?>
<!-- Generator: Adobe Illustrator 19.0.0, SVG Export Plug-In . SVG Version: 6.00 Build 0)  -->
<svg version="1.1" id="Capa_1" xmlns="http://www.w3.org/2000/svg" xmlns:xlink="http://www.w3.org/1999/xlink" x="0px" y="0px"
	 viewBox="0 0 58 58" style="enable-background:new 0 0 58 58;" xml:space="preserve">
<g>
	<path style="fill:#C1A634;" d="M15.5,27C24.06,27,31,33.94,31,42.5V27H15.5z"/>
</g>
<circle style="fill:#F7AD2B;" cx="15.5" cy="42.5" r="15.5"/>
<path style="fill:#F0C419;" d="M15.5,53C9.711,53,5,48.289,5,42.5S9.711,32,15.5,32S26,36.711,26,42.5S21.289,53,15.5,53z"/>
<path style="fill:#F0C419;" d="M55.864,0H15.103C6.762,0,0,6.762,0,15.103V27v15.5c0-5.216,2.585-9.82,6.535-12.629
	C6.221,29.702,6,29.382,6,29V19c0-0.553,0.447-1,1-1s1,0.447,1,1v9.939c1.262-0.699,2.633-1.221,4.08-1.548
	C12.029,27.271,12,27.139,12,27V13c0-0.553,0.447-1,1-1s1,0.447,1,1v14c0,0.027-0.013,0.05-0.015,0.077
	C14.483,27.028,14.988,27,15.5,27c0.506,0,1.006,0.028,1.5,0.076V27h1v-6c0-0.553,0.447-1,1-1s1,0.447,1,1v6h4V13
	c0-0.553,0.447-1,1-1s1,0.447,1,1v14h4v-6c0-0.553,0.447-1,1-1s1,0.447,1,1v6h4V13c0-0.553,0.447-1,1-1s1,0.447,1,1v14h4v-6
	c0-0.553,0.447-1,1-1s1,0.447,1,1v6h4V13c0-0.553,0.447-1,1-1s1,0.447,1,1v14h5.864C57.044,27,58,26.044,58,24.864V2.136
	C58,0.956,57.044,0,55.864,0z"/>
<path style="fill:#F0C419;" d="M0.025,43C0.02,42.833,0,42.669,0,42.5V43H0.025z"/>
<path style="fill:#F2E9C0;" d="M7,18c-0.553,0-1,0.447-1,1v10c0,0.382,0.221,0.702,0.535,0.871C7.006,29.535,7.492,29.22,8,28.939
	V19C8,18.447,7.553,18,7,18z"/>
<path style="fill:#F2E9C0;" d="M14,13c0-0.553-0.447-1-1-1s-1,0.447-1,1v14c0,0.139,0.029,0.271,0.08,0.391
	c0.623-0.14,1.256-0.252,1.905-0.315C13.987,27.05,14,27.027,14,27V13z"/>
<path style="fill:#F2E9C0;" d="M19,20c-0.553,0-1,0.447-1,1v6h2v-6C20,20.447,19.553,20,19,20z"/>
<path style="fill:#F2E9C0;" d="M25,12c-0.553,0-1,0.447-1,1v14h2V13C26,12.447,25.553,12,25,12z"/>
<path style="fill:#F2E9C0;" d="M31,20c-0.553,0-1,0.447-1,1v6h2v-6C32,20.447,31.553,20,31,20z"/>
<path style="fill:#F2E9C0;" d="M37,12c-0.553,0-1,0.447-1,1v14h2V13C38,12.447,37.553,12,37,12z"/>
<path style="fill:#F2E9C0;" d="M43,20c-0.553,0-1,0.447-1,1v6h2v-6C44,20.447,43.553,20,43,20z"/>
<path style="fill:#F2E9C0;" d="M49,12c-0.553,0-1,0.447-1,1v14h2V13C50,12.447,49.553,12,49,12z"/>
<path style="fill:#DBAE1F;" d="M15.5,48c-3.033,0-5.5-2.467-5.5-5.5s2.467-5.5,5.5-5.5s5.5,2.467,5.5,5.5S18.533,48,15.5,48z"/>
<path style="fill:#A5A5A4;" d="M55.864,27H53V0h2.864C57.044,0,58,0.956,58,2.136v22.729C58,26.044,57.044,27,55.864,27z"/>
<g>
</g>
<g>
</g>
<g>
</g>
<g>
</g>
<g>
</g>
<g>
</g>
<g>
</g>
<g>
</g>
<g>
</g>
<g>
</g>
<g>
</g>
<g>
</g>
<g>
</g>
<g>
</g>
<g>
</g>
</svg>
