<?xml version="1.0" encoding="iso-8859-1"?>
<!-- Generator: Adobe Illustrator 19.0.0, SVG Export Plug-In . SVG Version: 6.00 Build 0)  -->
<svg version="1.1" id="Capa_1" xmlns="http://www.w3.org/2000/svg" xmlns:xlink="http://www.w3.org/1999/xlink" x="0px" y="0px"
	 viewBox="0 0 460 460" style="enable-background:new 0 0 460 460;" xml:space="preserve">
<g>
	<path style="fill:#B7D6CA;" d="M44,430V84.75h31c0,0,0,26.332,0,40.25c0,85.467,69.533,155,155,155v-30c-69.03,0-125-55.97-125-125
		c0-23.807,6.659-46.06,18.214-65H14v400h216v-30H44z"/>
	<path style="fill:#42968A;" d="M75,125c0-13.918,0-40.25,0-40.25H44V430h186V280C144.533,280,75,210.467,75,125z"/>
	<path style="fill:#96B5A5;" d="M336.786,60C348.341,78.94,355,101.193,355,125c0,69.03-55.97,125-125,125v30
		c85.467,0,155-69.533,155-155c0-13.918,0-40.25,0-40.25h31V430H230v30h216V60H336.786z"/>
	<path style="fill:#07806D;" d="M416,430V84.75h-31c0,0,0,26.332,0,40.25c0,85.467-69.533,155-155,155v150H416z"/>
	<path style="fill:#07806D;" d="M325,125c0,52.38-42.62,95-95,95v30c69.03,0,125-55.97,125-125c0-23.807-6.659-46.06-18.214-65
		C314.838,24.022,275.223,0,230,0v30C282.38,30,325,72.62,325,125z"/>
	<path style="fill:#C7FFE9;" d="M325,125c0-52.38-42.62-95-95-95v70c13.807,0,25,11.193,25,25c0,8.179-3.928,15.439-10,20v45h-15v30
		C282.38,220,325,177.38,325,125z"/>
	<path style="fill:#42968A;" d="M230,250v-30c-52.38,0-95-42.62-95-95s42.62-95,95-95V0c-45.223,0-84.838,24.022-106.786,60
		C111.659,78.94,105,101.193,105,125C105,194.03,160.97,250,230,250z"/>
	<path style="fill:#FFFFFF;" d="M215,190v-45c-6.072-4.561-10-11.822-10-20c0-13.807,11.193-25,25-25V30c-52.38,0-95,42.62-95,95
		s42.62,95,95,95v-30H215z"/>
	<path style="fill:#42968A;" d="M215,145v45h30v-45c-4.178,3.139-9.372,5-15,5S219.178,148.139,215,145z"/>
	<path style="fill:#07806D;" d="M205,125c0,8.179,3.928,15.439,10,20c4.178,3.139,9.372,5,15,5s10.822-1.861,15-5
		c6.072-4.561,10-11.822,10-20c0-13.807-11.193-25-25-25S205,111.193,205,125z"/>
</g>
<g>
</g>
<g>
</g>
<g>
</g>
<g>
</g>
<g>
</g>
<g>
</g>
<g>
</g>
<g>
</g>
<g>
</g>
<g>
</g>
<g>
</g>
<g>
</g>
<g>
</g>
<g>
</g>
<g>
</g>
</svg>
