<?xml version="1.0" encoding="iso-8859-1"?>
<!-- Generator: Adobe Illustrator 19.0.0, SVG Export Plug-In . SVG Version: 6.00 Build 0)  -->
<svg xmlns="http://www.w3.org/2000/svg" xmlns:xlink="http://www.w3.org/1999/xlink" version="1.1" id="Layer_1" x="0px" y="0px" viewBox="0 0 428.979 428.979" style="enable-background:new 0 0 428.979 428.979;" xml:space="preserve" width="512" height="512">
<g>
	<rect y="185.805" style="fill:#454F58;" width="428.979" height="57.369"/>
	<rect x="151.99" y="185.805" style="fill:#5C6670;" width="15" height="57.369"/>
	<rect x="261.989" y="185.805" style="fill:#5C6670;" width="15" height="57.369"/>
	<path style="fill:#5C6670;" d="M69.489,130.814H57.231c-20.395,0-36.929,16.533-36.929,36.928v93.496   c0,20.395,16.534,36.928,36.929,36.928h12.258V130.814z"/>
	<path style="fill:#C3C6C8;" d="M131.089,306.113c0,20.395-16.534,36.928-36.929,36.928s-36.929-16.533-36.929-36.928V122.865   c0-20.395,16.534-36.928,36.929-36.928s36.929,16.533,36.929,36.928V306.113z"/>
	<path style="fill:#5C6670;" d="M359.489,130.814h12.258c20.395,0,36.929,16.533,36.929,36.928v93.496   c0,20.395-16.534,36.928-36.929,36.928h-12.258V130.814z"/>
	<path style="fill:#C3C6C8;" d="M297.89,306.113c0,20.395,16.533,36.928,36.929,36.928s36.929-16.533,36.929-36.928V122.865   c0-20.395-16.533-36.928-36.929-36.928s-36.929,16.533-36.929,36.928V306.113z"/>
</g>















</svg>
