<?xml version="1.0" standalone="no"?>
<!DOCTYPE svg PUBLIC "-//W3C//DTD SVG 1.1//EN" "http://www.w3.org/Graphics/SVG/1.1/DTD/svg11.dtd" >
<svg xmlns="http://www.w3.org/2000/svg" xmlns:xlink="http://www.w3.org/1999/xlink" version="1.1">
<metadata>
Created by FontForge 20160407 at Sat Aug  6 08:35:04 2016
 By Jimmy Warting
Copyright (c) 2016 by Billy Argel. All rights reserved.
</metadata>
<defs>
<font id="MandelaScriptPersonalUse" horiz-adv-x="417" >
  <font-face 
    font-family="Mandela Script Personal Use"
    font-weight="400"
    font-stretch="normal"
    units-per-em="1000"
    panose-1="2 0 0 0 0 0 0 0 0 0"
    ascent="800"
    descent="-200"
    x-height="410"
    cap-height="818"
    bbox="-200 -661 1233.91 1005.67"
    underline-thickness="50"
    underline-position="-100"
    stemv="86"
    unicode-range="U+0020-FB02"
  />
<missing-glyph horiz-adv-x="286" 
 />
    <glyph glyph-name="ff" unicode="ff" horiz-adv-x="395" 
d="M242 367c6 181 2 266 6 287c12 61 137 73 137 21c0 -9 7 -39 -33 -57c-30 -14 -30 -37 -30 -70c0 -41 -1 -265 -2 -304c11 -1 40 -4 59 -9c30 -8 34 -70 6 -74c-5 -1 -62 9 -65 -1c-3 -11 -3 -60 -23 -390c0 -79 -50 -127 -78 -125c-24 2 -37 4 -40 41c-2 27 33 53 37 99
l20 225c0 20 5 77 5 126c0 7 2 25 -6 26c-49 4 -145 -12 -151 -68c-11 -94 35 -390 -69 -552c-61 -95 -122 -13 -84 25c15 15 70 91 72 304c0 23 9 262 9 277v166l-4 190c7 48 17 68 71 67c36 -1 46 -89 51 -132s32 -73 62 -79c35 -7 50 -4 50 7zM123 327
c-28 13 -36 48 -36 19l1 -70c1 -15 2 -59 3 -78c0 -9 12 -11 43 8c23 14 65 32 104 32c3 38 3 69 4 91c-49 -33 -101 -10 -119 -2z" />
    <glyph glyph-name="th" unicode="th" horiz-adv-x="698" 
d="M266 628c0 76 51 104 77 5c48 -183 23 -305 -8 -358c-3 -41 0 -44 1 -86c2 -71 37 -68 37 -68c28 2 45 160 55 209c2 9 23 154 33 168c11 15 21 17 30 17c55 0 86 -348 86 -375s20 -53 48 -51c47 3 81 95 87 112c18 56 63 19 35 -27c-8 -17 -63 -143 -128 -151
c-85 -11 -106 39 -113 96c-6 52 -7 192 -20 177c-10 -12 -14 -121 -27 -180c-12 -54 -50 -100 -83 -105c-57 -8 -77 18 -96 93c-14 -38 -35 -76 -64 -98c-16 -12 -65 -33 -87 -17c-48 35 -72 190 -115 468c-1 8 -14 61 -14 96c0 29 30 50 28 48c15 15 62 -5 62 -44
s24 -178 34 -286c11 -117 24 -219 55 -208c24 9 60 55 75 123c-25 18 -66 12 -12 93l12 29c10 24 7 100 7 100s5 182 5 220zM-73 502c-70 51 -26 114 26 146c161 98 371 147 571 214c106 35 113 66 132 82c17 15 82 2 80 -41c-2 -57 -155 -94 -278 -130
c-200 -58 -424 -121 -507 -196c-19 -17 -8 -47 -3 -52s6 -13 3 -18s-20 -8 -24 -5z" />
    <glyph glyph-name="oo" unicode="oo" horiz-adv-x="560" 
d="M41 261c-3 94 7 73 15 64c-12 16 -17 35 -13 51c5 35 30 64 88 60c41 -4 64 -37 76 -60c13 -22 19 -80 21 -80c23 -7 38 -11 60 -9c9 35 -3 84 41 115c12 12 32 16 56 16c43 0 82 -29 107 -64c25 -41 34 -87 34 -87c29 -1 56 4 91 8c13 1 18 -23 18 -34
c2 -10 5 -34 -28 -39l-67 -5c0 -47 -25 -191 -80 -213c-26 -11 -56 -4 -94 21c-34 23 -64 82 -78 215l-47 6c13 -67 -6 -234 -73 -253c-23 -5 -53 4 -83 42c-47 53 -41 171 -44 246zM110 276c0 -22 -16 -233 43 -233c29 4 44 51 49 94c4 40 1 78 1 95c-23 0 -80 33 -93 44z
M372 232c-2 3 -1 -6 -1 -13c0 -12 36 -179 64 -179c37 -3 65 110 61 158c-66 -1 -121 33 -124 34zM384 359c1 2 -5 -35 28 -55c39 -23 55 -26 73 -29c-2 26 -25 72 -58 85c-14 4 -28 4 -43 -1zM129 349c16 -19 53 -46 56 -35c7 40 -46 101 -62 59c-3 -4 -4 -14 6 -24z" />
    <glyph glyph-name="rr" unicode="rr" horiz-adv-x="576" 
d="M32 186c-3 122 -4 130 -6 147c-2 15 -7 23 -13 34c-22 38 -1 76 40 74c12 -1 34 -41 64 -69c20 -18 143 -70 182 -70c32 -1 26 9 26 9s-18 74 16 92c4 15 22 6 44 6c21 0 76 -19 104 -22c25 -2 70 -13 88 -9l53 -2c18 0 43 -26 43 -42c0 -15 -9 -73 -88 -44
c-15 20 -112 26 -137 26c-15 0 -29 -8 -31 -8s-3 -32 -3 -38c0 -99 28 -145 25 -246c-3 -66 -80 -42 -83 -9c0 8 -17 52 -19 154c-9 36 0 30 -16 43c-15 14 -71 22 -107 33c-36 13 -68 33 -88 38c-21 4 -18 -28 -26 -25l33 -231c6 -51 -90 -84 -101 -17v176z" />
    <glyph glyph-name="br" unicode="br" horiz-adv-x="395" 
d="M470 287c55 -25 6 -110 -49 -77c-47 27 -83 56 -109 90c-34 -13 -66 -6 -76 -2c-12 5 -16 3 -12 -21c14 -84 35 -273 -82 -276c-69 -2 -107 123 -147 359c-39 308 14 414 61 412c134 -6 85 -379 38 -555c15 -76 32 -132 52 -133c35 -3 5 165 -2 250c-5 19 -1 37 17 49
c14 9 66 7 79 -4c8 -7 23 -9 37 -9l-3 13c-8 44 24 73 62 57c25 -10 43 -117 134 -153zM62 653c-11 -15 -4 -177 15 -324c17 94 27 193 22 254c-4 52 -16 99 -37 70z" />
    <glyph glyph-name=".notdef" horiz-adv-x="286" 
 />
    <glyph glyph-name="x" unicode="x" horiz-adv-x="490" 
d="M116 92c27 -4 23 -44 62 -31c21 7 27 61 38 125c-41 67 -70 123 -82 115c-18 -11 -34 -131 -51 -167c-7 -28 -62 -21 -48 17c26 70 29 95 44 159c17 72 32 112 67 112c36 0 72 -43 106 -99c21 51 63 101 112 98c57 -4 85 -34 88 -107c2 -59 -34 -98 -52 -105
c-18 -8 -59 -4 -41 12c55 50 37 130 6 134c-13 2 -31 -7 -44 -44c-3 -9 -11 -40 -20 -76c44 -80 87 -156 131 -160c49 -5 90 58 108 119c10 35 57 26 44 -19c-21 -112 -94 -180 -141 -177c-17 -3 -34 -1 -51 4c-45 14 -85 55 -121 103c-1 -5 -3 -9 -3 -11
c-25 -73 -80 -145 -157 -84c-37 29 -34 88 5 82z" />
    <glyph glyph-name="w" unicode="w" horiz-adv-x="625" 
d="M31 386c8 22 13 40 33 37c22 0 13 -2 30 -8c44 -16 46 -79 10 -141c-39 -68 -2 -176 28 -178c37 -2 97 253 125 276c12 10 38 19 51 -12c18 -44 80 -266 112 -264c23 1 29 114 29 136c-1 59 -40 103 -76 132c-15 12 0 38 21 59c11 11 38 22 58 -6c9 -13 67 -156 112 -177
c33 -15 33 -31 95 -20c12 2 38 5 32 -44c-1 -16 -11 -28 -31 -38c-39 -19 -148 14 -153 54c-13 103 16 -160 -81 -185c-117 -30 -170 281 -178 252c-23 -85 -73 -259 -143 -252c-109 13 -96 319 -74 379z" />
    <glyph glyph-name="a" unicode="a" 
d="M207 147c10 25 51 236 6 220c-144 -9 -115 -212 -86 -261c28 -48 53 -24 80 41zM502 158c-8 -58 -72 -154 -130 -166c-8 -2 -16 -1 -24 0c-34 6 -62 25 -79 93c-63 -100 -130 -107 -167 -69c-118 122 -121 424 102 402c45 -4 81 -10 57 -36c19 -2 43 -9 48 -33
c8 -11 11 -92 19 -166c7 -68 19 -130 43 -128c21 2 69 70 89 121c13 32 47 21 42 -18z" />
    <glyph glyph-name="r" unicode="r" horiz-adv-x="313" 
d="M27 413c15 10 61 15 69 -25c4 -20 3 -142 18 -140c9 1 18 31 33 108c13 51 18 56 40 56c20 1 62 -35 96 -63c6 -5 24 -21 29 -35c6 -12 2 -30 -5 -47c-9 -15 -40 -22 -46 -18c-25 8 -15 31 -18 39c-20 44 -46 25 -54 17c-9 -7 -55 -132 -59 -142c-9 -33 11 -76 8 -112
c-1 -13 -4 -62 -72 -58c-25 1 -45 22 -38 48c23 60 -20 287 -24 324c-3 29 4 37 23 48z" />
    <glyph glyph-name="b" unicode="b" horiz-adv-x="257" 
d="M56 772c134 -6 85 -379 38 -555c15 -76 32 -132 52 -133c35 -3 5 165 -2 250c-5 19 -1 37 17 49c14 9 66 7 79 -4c19 -16 69 -4 77 -6c15 -2 5 -75 -3 -72c-35 -14 -68 -7 -78 -3c-12 5 -16 3 -12 -21c14 -84 35 -273 -82 -276c-69 -2 -107 123 -147 359
c-39 308 14 414 61 412zM62 653c-11 -15 -4 -177 15 -324c17 94 27 193 22 254c-4 52 -16 99 -37 70z" />
    <glyph glyph-name="e" unicode="e" horiz-adv-x="316" 
d="M157 345c-22 -2 -40 -34 -38 -65c3 -52 27 -56 54 -47c30 11 33 34 26 80c-3 18 -17 33 -42 32zM401 157c-13 -89 -89 -164 -175 -167c-125 -4 -187 82 -197 198c-6 66 10 228 110 244c71 12 125 -54 126 -127c1 -63 -9 -112 -85 -132c-31 -8 -50 -6 -67 -1
c6 -57 70 -113 124 -115c53 -2 97 50 117 104c19 52 55 50 47 -4z" />
    <glyph glyph-name="c" unicode="c" horiz-adv-x="304" 
d="M240 -1c-179 -5 -231 140 -232 230c1 107 59 192 148 199c151 12 178 -216 46 -225c-7 0 -18 8 -25 20c-10 21 -3 27 10 46c36 49 36 108 -8 106c-63 -3 -86 -129 -75 -198c13 -83 70 -126 143 -118c26 3 81 43 97 84s36 44 22 -34c-12 -50 -65 -108 -126 -110z" />
    <glyph glyph-name="space" unicode=" " horiz-adv-x="208" 
 />
    <glyph glyph-name="g" unicode="g" horiz-adv-x="375" 
d="M213 414c16 -4 13 -11 30 -9c13 4 29 6 36 5c69 -10 53 -154 56 -216c9 -229 40 -718 -181 -712c-41 1 -74 15 -103 41c-18 16 -68 55 -49 89c19 35 61 32 95 -7c28 -33 47 -49 77 -49c42 0 64 78 69 108c23 125 25 252 25 381c0 58 -10 26 -10 26l-29 -46
s-26 -40 -85 -37c-42 2 -114 58 -120 187c-7 127 68 247 146 245c23 0 34 -4 43 -6zM186 344c-120 4 -133 -264 -19 -278c89 -13 95 158 81 168c-29 -1 -13 35 -24 72c-10 35 -34 38 -38 38z" />
    <glyph glyph-name="s" unicode="s" horiz-adv-x="288" 
d="M289 58c-4 -57 -58 -76 -127 -76c-87 3 -168 62 -162 143c0 31 16 67 38 80c23 13 51 1 33 -28c-35 -59 31 -107 88 -115c15 -2 26 7 26 18c2 65 -157 168 -156 252c1 59 47 96 108 100c27 2 81 -13 99 -15c29 -3 36 -39 29 -57c-6 -20 -30 -31 -47 -27
c-24 5 -89 55 -103 1c-6 -23 24 -50 49 -78c55 -61 131 -122 125 -198z" />
    <glyph glyph-name="o" unicode="o" horiz-adv-x="347" 
d="M34 289c8 37 19 48 53 44c5 -1 -13 28 -2 55c11 24 41 51 74 53c46 6 95 -1 123 -67c31 -79 35 -150 27 -196c26 -3 89 -3 97 -3c38 0 28 -42 3 -52c-16 -10 -74 -11 -108 -7c-25 -64 -54 -132 -137 -127c-31 1 -51 11 -70 29c-54 53 -84 149 -60 271zM249 127
c-66 18 -127 64 -141 128c-10 -85 16 -199 76 -195c37 2 65 52 65 67zM168 320c-1 -25 26 -100 88 -120c2 110 -78 265 -88 120z" />
    <glyph glyph-name="B" unicode="B" horiz-adv-x="546" 
d="M149 432c-2 -98 -6 -327 4 -388c3 -36 5 -58 6 -61c1 -32 -8 -65 -41 -66c-34 0 -45 24 -46 36c-6 43 -7 144 -5 244c1 110 4 217 5 232c2 26 8 48 31 52c27 4 41 -21 44 -40c1 6 4 9 7 11c20 10 70 29 114 77c45 51 38 121 36 135s-14 55 -55 60
c-77 10 -111 -76 -148 -75c-36 0 -40 34 -36 54c4 28 62 103 151 104c128 0 162 -97 168 -159c9 -103 -85 -181 -144 -207l1 -3c36 0 61 -11 73 -16c71 -37 159 -99 201 -200l53 4c11 1 20 -18 23 -36c2 -18 -4 -32 -4 -32l-13 -10l-36 -5l1 -9c10 -115 -51 -164 -133 -191
c-81 -26 -192 14 -202 89c-16 108 111 157 226 178c-74 139 -277 136 -281 222zM468 92c-1 18 -6 32 -8 44c-100 -22 -186 -66 -173 -112c9 -29 39 -43 73 -41c59 5 112 53 108 109z" />
    <glyph glyph-name="f" unicode="f" horiz-adv-x="199" 
d="M124 615c-8 44 -26 15 -25 16c-25 -12 -8 -232 0 -350c2 -36 7 -68 10 -78c2 -7 64 4 143 16c41 6 40 -35 34 -46c-7 -12 -18 -12 -39 -18c-44 -11 -126 -23 -134 -22c-6 1 -9 -3 -9 -10c16 -165 7 -526 -2 -570c-11 -58 -51 -79 -72 -82c-22 -4 -58 12 -58 44
c-1 34 35 29 46 60c11 34 20 107 17 233c-1 98 -2 236 -9 306c0 8 2 14 -11 12c-19 -3 -35 -2 -38 15c-1 8 -1 15 -1 35c0 18 10 16 28 17c8 0 17 -1 17 16c-1 66 -31 346 -14 436c13 68 47 98 88 98s91 -42 96 -101c2 -23 16 -78 -23 -80c-24 -1 -33 18 -40 32
c-2 4 -3 12 -4 21z" />
    <glyph glyph-name="i" unicode="i" horiz-adv-x="188" 
d="M29 521c5 60 83 37 90 -13c6 -35 -45 -31 -47 -31c-4 0 -45 10 -43 44zM277 163c-9 -93 -130 -247 -214 -117c-26 40 -26 138 -26 186c0 0 -6 110 -3 149c4 51 37 57 37 55c0 -3 52 7 51 -65c0 -15 1 -121 0 -145c-1 -45 0 -131 20 -157c27 -35 86 90 93 112
c10 33 46 21 42 -18z" />
    <glyph glyph-name="j" unicode="j" horiz-adv-x="203" 
d="M130 240c0 -64 6 -179 59 -181c29 -1 44 50 59 111c8 34 46 33 41 -6c-8 -61 -12 -187 -108 -182c-19 1 -32 7 -46 24c-13 -281 64 -667 -130 -667c-38 0 -78 29 -83 79c-15 143 122 398 128 633c12 170 7 112 5 293l-19 -4c-61 -13 -78 50 -24 72l40 19
c46 21 80 -2 80 -54c0 -36 -3 -53 -2 -88v-49zM63 -174c-10 -50 -122 -410 -58 -410c52 0 51 371 58 410z" />
    <glyph glyph-name="O" unicode="O" horiz-adv-x="490" 
d="M112 -95c-100 5 -128 226 -95 438c-28 64 -45 143 -43 234c5 159 100 258 213 259c181 2 261 -164 253 -364c-7 -164 -149 -577 -328 -567zM118 202c-9 7 -17 16 -26 25c-6 -133 5 -247 45 -231c99 42 169 219 208 377c70 288 -50 385 -128 386
c-89 1 -156 -103 -156 -238c17 46 37 88 61 121c14 20 33 13 40 -9c10 -33 -2 -37 -6 -56c-24 -39 -44 -136 -55 -241c6 -15 13 -29 21 -43c32 -59 71 -75 82 -78c27 -8 52 -21 28 -47c-11 -12 -76 0 -114 34z" />
    <glyph glyph-name="t" unicode="t" horiz-adv-x="178" 
d="M159 -20c-136 -21 -131 128 -136 236c-6 123 -6 218 -7 298c-41 -12 -82 -25 -123 -40c-40 -14 -68 4 -72 33c-4 35 48 59 80 66l114 22c0 18 -1 35 -2 52c3 64 35 53 53 45c27 -13 41 -53 43 -82c73 10 148 16 224 12c32 -3 70 -19 66 -36c-3 -7 -1 -23 -24 -22
c-88 4 -179 -7 -268 -27c-4 -78 -9 -169 -10 -267c0 0 2 -32 1 -65c0 -45 -9 -176 63 -160c29 6 44 55 58 131c6 34 49 21 42 -18c-8 -55 -21 -165 -102 -178z" />
    <glyph glyph-name="d" unicode="d" horiz-adv-x="379" 
d="M151 333c-25 -3 -44 -68 -48 -126c-5 -53 -5 -177 37 -169c20 4 38 68 41 83c9 30 8 124 8 130c1 41 0 86 -38 82zM282 25c-27 51 -39 105 -39 105c-8 -63 -18 -149 -105 -157c-49 -5 -82 37 -94 75c-12 39 -17 93 -17 150c-1 164 81 193 124 198c25 3 35 -3 35 -2
c-6 5 -17 99 -53 160c-29 36 -10 64 18 76c45 21 81 -24 92 -55c3 -10 20 -115 31 -154c15 -60 23 -117 53 -271c2 -13 15 -108 40 -107c32 1 30 57 53 122c11 31 56 19 47 -17c-17 -65 -31 -163 -98 -169c-35 -2 -72 15 -87 46z" />
    <glyph glyph-name="k" unicode="k" horiz-adv-x="379" 
d="M174 719c-24 -78 -32 -102 -41 -193c21 23 50 97 65 151c12 41 21 86 12 95c-7 7 -29 -31 -36 -53zM177 118c-14 49 -9 96 4 126c18 41 67 72 73 104c13 68 -100 -18 -128 -96c0 0 -4 -140 -6 -198c-2 -35 -9 -42 -53 -44c-42 -1 -28 89 -35 117c-6 29 -26 18 -17 58
c2 10 27 49 27 52s-3 102 -5 133c-8 152 34 487 159 477c77 -6 60 -122 50 -165c-17 -65 -70 -181 -115 -239c-2 -2 -11 -54 -12 -86c-1 -36 -1 -49 0 -47c27 63 122 178 206 100c32 -29 34 -115 -52 -156c-27 -13 -31 -44 -35 -60c1 -18 4 -35 9 -51c38 -81 69 -103 92 -98
c29 6 63 63 83 131c10 33 49 21 42 -18c4 -43 -72 -166 -127 -178c-69 -15 -125 48 -160 138z" />
    <glyph glyph-name="l" unicode="l" horiz-adv-x="219" 
d="M260 164c9 31 54 20 47 -17c-5 -40 -49 -163 -111 -167c-232 -16 -238 792 -82 798c152 6 84 -544 11 -647c29 -63 46 -92 62 -93c27 0 66 103 73 126zM129 673c-16 4 -24 -52 -32 -134c-11 -116 -6 -261 9 -325c26 18 77 448 23 459z" />
    <glyph glyph-name="m" unicode="m" horiz-adv-x="711" 
d="M96 380c5 20 8 52 39 48c39 -5 45 -33 45 -71c-1 -70 -5 -140 -4 -214c31 85 86 260 137 263c80 2 119 -251 157 -315l3 7c1 20 38 301 122 300c84 -2 116 -318 122 -360c3 -22 -37 -42 -56 -41c-18 1 -27 7 -27 24c-1 14 -42 225 -63 224c-36 -1 -16 -250 -126 -252
c-69 -1 -112 289 -146 288c-27 -1 -99 -294 -142 -291c-33 2 -53 26 -52 67c1 36 7 132 6 177c-9 -34 -15 -48 -20 -65s-13 -32 -18 -46c-11 -33 -51 -25 -42 9c2 9 5 19 9 31c21 64 46 170 56 217z" />
    <glyph glyph-name="n" unicode="n" horiz-adv-x="482" 
d="M99 380c5 20 15 52 38 52c47 0 47 -46 45 -92c-3 -51 -5 -129 -4 -185c30 85 84 251 133 254c70 3 146 -245 179 -348c11 -34 10 -50 -14 -61c-10 -5 -20 -10 -33 -10c-68 -1 -108 297 -142 296c-39 -1 -74 -307 -145 -297c-31 5 -52 26 -52 65s8 148 6 187
c-3 -45 -21 -88 -30 -115c-18 -56 -72 -68 -47 11c18 57 50 183 66 243z" />
    <glyph glyph-name="p" unicode="p" horiz-adv-x="385" 
d="M53 -257l-1 186c1 60 -1 95 -1 101c-3 -12 -59 -44 -70 -12c-6 20 14 38 31 43s24 14 32 37c7 20 -1 144 -2 252c-1 119 16 234 80 236c33 1 82 -7 81 -107c0 -49 -14 -94 -29 -140c-16 -50 -44 -111 -51 -127c0 -9 -2 -33 -2 -49c9 23 74 223 146 222
c46 -1 84 -90 98 -166c7 -36 9 -125 -12 -176c-12 -28 -33 -46 -65 -49c-41 -4 -89 6 -94 68c-2 25 14 48 36 50c17 1 32 -12 35 -31c2 -12 2 -30 20 -31c25 -1 21 87 21 116c0 17 -17 130 -47 126s-73 -128 -87 -185c-42 -174 -44 -206 -39 -362c2 -57 -12 -75 -39 -76
c-41 -2 -40 39 -41 74zM139 518c-37 0 -25 -142 -23 -215c7 14 71 215 23 215z" />
    <glyph glyph-name="q" unicode="q" horiz-adv-x="404" 
d="M358 286l-74 -445c-24 -193 -62 -309 -32 -302c9 2 27 51 53 142c24 83 83 261 127 444c6 26 14 60 40 51c15 -5 22 -29 15 -55l-174 -584c-27 -77 -74 -87 -105 -80c-40 9 -62 41 -55 95c17 139 62 349 80 501c-27 -41 -51 -51 -76 -51c-165 -2 -183 410 16 428
c49 3 168 -22 168 -79c-1 -15 -4 -20 -26 -14c-48 14 -71 24 -129 23c-55 0 -83 -95 -83 -152c0 -77 28 -128 64 -129c18 -1 44 22 61 61c49 110 37 164 52 169c8 3 38 10 52 7c11 -3 32 -5 26 -30z" />
    <glyph glyph-name="u" unicode="u" horiz-adv-x="430" 
d="M407 -7c-69 4 -110 89 -130 151c-9 -14 -35 -152 -137 -148c-132 5 -114 276 -114 382c0 18 5 60 47 57c28 -2 39 -30 38 -55c4 -40 -4 -288 46 -288c41 0 60 95 63 154c2 37 1 67 3 122c1 19 15 52 40 54c41 3 45 -50 47 -76c4 -57 65 -279 105 -276c21 2 44 49 61 106
c10 33 49 21 42 -18c-6 -49 -50 -168 -111 -165z" />
    <glyph glyph-name="y" unicode="y" horiz-adv-x="364" 
d="M12 404c71 48 75 -79 79 -95c28 -119 78 -232 99 -217c12 9 14 57 -6 199c-4 25 -13 98 15 119c66 44 95 -68 117 -117c46 -104 43 -270 43 -420c0 -123 -20 -262 -79 -372c-27 -51 -71 -88 -120 -104c-38 -13 -82 -11 -128 10c-28 13 -30 40 -19 58c14 23 44 9 86 2
c118 -20 182 181 184 389c2 168 -10 333 -42 405c8 -60 12 -106 11 -168c-1 -63 -19 -94 -49 -102c-19 -5 -47 6 -67 30c-57 69 -116 222 -133 290c-6 24 -9 81 9 93z" />
    <glyph glyph-name="K" unicode="K" horiz-adv-x="516" 
d="M83 -19c-42 5 -41 32 -38 66c24 163 45 688 94 801c17 62 105 50 94 -16c-24 -131 -48 -223 -59 -361l6 -2c26 78 117 207 191 274c24 21 51 46 84 57c10 3 49 14 60 -18c16 -49 -32 -58 -73 -87c-110 -63 -197 -227 -233 -313c32 16 88 53 120 48c41 -6 46 -59 53 -84
c22 -79 41 -232 115 -277c18 -11 55 -39 28 -71c-16 -19 -49 -18 -71 -7c-40 19 -71 50 -97 102c-21 42 -51 184 -68 231c-10 27 -117 -19 -118 -26c-8 -71 -24 -222 -39 -289c-6 -25 -33 -30 -49 -28z" />
    <glyph glyph-name="F" unicode="F" horiz-adv-x="516" 
d="M142 288c2 2 24 31 56 9c36 -25 69 -50 115 -56c-8 169 -48 367 -60 432c-8 -86 -51 -153 -114 -195c-35 -24 -83 -37 -98 -11c-11 20 -8 41 9 56c39 33 155 117 171 258c2 18 5 46 36 47c24 1 43 -10 58 -67c45 -169 75 -340 87 -511c54 14 106 43 135 83
c21 30 63 15 41 -19c-37 -55 -97 -112 -172 -134c3 -59 3 -117 2 -175c-3 -85 -89 -139 -169 -119c-41 10 -65 33 -58 63c9 39 47 36 61 31c20 -7 39 -10 47 -5c36 21 28 96 26 194c-65 1 -108 19 -163 50c-33 18 -16 63 -10 69z" />
    <glyph glyph-name="z" unicode="z" horiz-adv-x="335" 
d="M41 111c-28 11 17 75 26 134c5 33 13 79 25 105c13 31 37 54 67 62c87 23 149 -76 145 -178c-2 -59 -47 -144 -115 -201c-14 -11 -20 -16 -12 -31c4 -8 9 -19 15 -29c24 20 48 35 74 54c44 31 73 66 104 127c21 41 60 27 47 -14c-2 -8 -9 -19 -12 -26
c-29 -64 -75 -108 -133 -149c-21 -15 -40 -27 -55 -39l7 -16c37 -102 58 -163 62 -265c5 -129 -88 -188 -148 -189c-122 -2 -156 104 -150 184c6 79 63 184 134 268c-6 14 -33 45 -48 99c-11 40 30 52 52 78c27 31 94 116 93 179c-1 55 -20 77 -57 71
c-29 -5 -38 -91 -57 -144c-24 -66 -35 -92 -64 -80zM182 -241l-37 104c-48 -65 -91 -131 -96 -219c-1 -66 30 -103 75 -101c92 4 87 136 58 216z" />
    <glyph glyph-name="v" unicode="v" horiz-adv-x="342" 
d="M17 431c16 -3 33 -15 27 -54c-13 -78 74 -280 117 -284c23 -2 24 114 24 136c-1 59 -13 125 -21 171c-3 19 12 36 42 38c15 1 52 -9 48 -43c-4 -24 3 -82 32 -130c18 -30 45 -51 81 -45c11 2 31 4 33 -37c2 -39 -31 -47 -61 -47c-44 1 -75 23 -88 72
c-5 -14 2 -181 -76 -201c-96 -25 -204 238 -204 333c0 11 -21 105 46 91z" />
    <glyph glyph-name="asterisk" unicode="*" horiz-adv-x="1281" 
d="M2 -472v374c4 3 13 2 16 6c12 15 43 30 58 34c25 8 51 46 64 64c15 23 42 38 62 50c19 12 33 24 52 36c40 24 18 100 8 136c0 5 -2 8 -6 10c-3 3 -7 5 -12 8c-16 16 -17 51 -20 74c0 24 -7 48 -10 72c-3 27 0 53 0 80c0 28 18 44 38 60c4 3 7 7 14 4c7 32 18 63 14 98
c-3 38 16 96 32 130c8 16 17 30 28 46c8 15 26 24 34 40c4 12 23 27 34 38c15 16 33 31 52 42c8 4 16 -2 24 6c28 20 89 39 124 36c11 0 23 5 34 8c15 4 32 0 48 0c23 0 40 -8 60 -12c1 0 2 -1 2 -4c0 3 2 1 2 4c28 8 66 -9 90 -20s43 -24 70 -32c66 -24 112 -69 166 -112
c136 -107 79 -287 28 -426c-4 -8 -6 -20 -2 -28s-7 -23 -4 -34c4 -20 23 -32 22 -52c3 -11 -11 -23 -14 -34c-7 -24 -21 -49 -32 -72c-11 -24 -29 -54 -52 -70c-11 -8 -21 -8 -36 -8c-6 0 -11 -3 -14 -8l-18 -24c-4 -7 -10 -9 -14 -16c-8 -11 -10 -21 -18 -32
c-15 -23 -29 -46 -48 -66c-15 -15 -38 -33 -46 -52c-15 -23 -35 -40 -46 -64c-4 -12 -4 -32 -4 -44c0 -3 1 -7 4 -12c3 -3 1 -4 4 -4c8 -12 27 -14 38 -22c12 -12 24 -21 36 -32c11 -8 23 -11 34 -22c15 -11 26 -26 42 -34c28 -12 54 -34 78 -50c16 -27 51 -33 78 -44
c7 -11 19 -18 30 -26h-374l-8 76c0 27 7 50 10 74c6 27 10 55 12 82c0 12 1 21 4 32c0 11 -7 30 -4 38c0 3 2 1 2 4c12 0 9 10 12 10c-4 -3 -7 -6 -14 -10h-1c-1 0 -2 -1 -3 -2c-4 -7 -7 -10 -10 -18c-3 0 -4 -1 -4 -4c-5 -16 -23 -40 -20 -58v-1c0 -1 1 -1 2 -1h2
c4 3 16 22 16 26c0 3 6 34 8 34l2 -2c0 -59 -57 -91 -94 -126c0 -3 -2 -1 -2 2c18 14 31 31 38 52c1 1 2 2 2 3v1c4 7 10 10 6 18c-7 -3 -14 -6 -14 -14c-4 -4 -10 -3 -14 -6c-8 -4 -29 3 -40 0c-1 0 -3 -1 -4 -2l-3 -5c-2 -3 -4 -5 -5 -5c0 -5 -3 -7 -8 -4v8
c1 0 13 10 2 10c0 -1 0 -1 -1 -1c-1 -1 -2 -1 -3 -1c3 -3 1 -4 -2 -4c-7 4 -5 12 -12 8h-4c1 3 2 5 2 8h-4v4c-11 3 -20 1 -28 4c-1 0 -2 0 -3 1c-1 0 -1 0 -1 1c-12 7 -26 0 -38 8c-7 3 -8 2 -12 -2l-1 1c-1 0 -1 0 -1 -1c-16 -4 -24 4 -36 16c-19 16 -42 34 -54 54
c7 0 11 -8 14 -12c3 -3 3 0 6 0c-12 15 -26 29 -42 44c-1 -3 -1 -5 0 -6c7 -4 15 -12 18 -20h-2c-29 25 -54 52 -76 82c-29 37 -51 61 -62 106c-3 0 -4 -1 -4 -2c-19 -15 -28 -37 -44 -56c-20 -36 18 -87 28 -120c4 -15 13 -30 20 -42c12 -20 21 -41 36 -60
c23 -27 32 -70 48 -102c19 -36 27 -85 50 -120h-412zM798 352v-4c4 -4 7 -1 10 -4c0 3 2 3 -2 6h-8c3 7 5 8 8 12c0 4 -18 3 -18 0c0 -4 -3 -6 0 -10h10c0 -3 -3 3 0 0zM1000 690c0 -3 -7 -5 0 -8h6v8c1 -1 2 -1 2 -1v-1v-4c0 -3 1 -3 4 0c3 0 4 1 4 4c1 0 3 -1 4 -2
c4 -4 3 -5 6 2c1 0 2 1 2 2c1 0 2 -1 3 -2c0 -1 0 -1 1 -2c3 -3 5 -4 8 -4s2 3 2 6c0 1 -1 3 -4 6h-6c-4 -3 -6 -5 -10 -2c0 3 -1 5 -2 6c-3 3 -4 6 -8 2c3 -4 8 -6 4 -10c-5 5 -9 9 -10 12c-3 0 -5 -1 -6 -2c-3 -3 -3 -7 0 -10zM880 -38l2 2h1c1 1 1 1 1 2c3 0 1 1 4 4v4
c3 0 1 -3 4 0s4 5 4 6c8 14 49 44 44 62c-3 0 -5 -1 -8 2c-3 0 -4 -1 -4 -2c-1 0 -2 -1 -2 -2c-3 0 -1 2 -4 2c-19 -24 -43 -39 -62 -62c0 -1 -1 -3 -4 -6c-1 0 -1 0 -2 -1l-4 -3c-8 -7 -7 -11 -14 -22c-3 0 -5 3 -8 0c0 -3 -2 -3 -2 -6c-4 0 -5 -3 -8 -6c0 -3 -5 -4 -2 -8
c0 -1 0 -1 1 -1c1 -1 2 -1 3 -1v-1c0 -1 -1 -2 -2 -3l-2 -2h-4c0 -3 3 -3 0 -6h-6c-3 -3 -5 -5 -6 -8c-4 -4 -10 -15 -10 -22h-2c-4 0 -14 -14 -18 -18l-5 -10c-2 -5 -2 -7 1 -6c20 8 32 27 48 42h4c3 3 3 5 2 6c-2 -2 -4 -2 -6 0c0 3 -3 3 0 6c4 -3 6 -1 10 -4
c11 11 13 30 24 38c1 -1 2 -3 2 -4c8 4 12 18 20 22h4c0 3 1 4 2 4c3 0 4 1 4 2zM368 66v-2c0 3 -1 1 -4 4c0 3 1 1 4 4c-4 7 -4 10 -8 18c0 3 1 6 -2 10c-7 12 -8 24 -12 36c-4 16 -4 36 -12 48h-2c-8 -3 -3 14 -6 18h-2c-4 0 -3 -1 -6 6v2h-2c-3 -5 -3 -9 -2 -12
c0 -4 1 -7 2 -8c-3 0 -6 2 -6 -2h4c3 -11 -5 -20 -2 -32c0 -12 3 -23 6 -34c0 -11 -1 -23 10 -30c-3 -4 -2 -7 -2 -10c3 -8 8 -12 12 -20l22 -60c-4 0 -5 -1 -2 -4c1 1 2 2 2 3v1h2c0 -3 1 -5 2 -6c-3 0 -1 -2 -4 -2c7 -19 17 -37 20 -56c3 -15 13 -21 16 -36
c0 -1 1 -2 4 -2s14 -35 22 -38l2 2c1 0 3 -1 6 -4c0 -3 -2 -3 -2 -6c0 -1 1 -3 4 -6c2 -4 5 -6 8 -6c3 -7 8 -10 8 -18c1 0 2 0 3 1c1 0 1 0 1 1c3 -3 1 -6 4 -6c32 -20 62 -44 102 -44c1 0 2 0 3 1c1 0 1 0 1 1c3 0 5 1 2 4c-7 4 -6 4 -10 0l-6 6c-3 0 -3 2 -6 2
c0 -3 1 -4 2 -4c-1 -1 -1 -2 -1 -2h-1h-4c0 4 -2 6 -6 6c-48 12 -98 52 -114 100c-11 24 -13 49 -20 76c-6 12 -7 71 -18 76v-10c0 -3 -1 -5 -2 -6c-4 4 -3 9 -6 16c0 3 2 3 2 6c0 1 -2 5 -3 9l-3 7v2zM370 672v4c3 0 3 2 6 2v2c0 -3 2 -3 2 -6c5 0 9 1 10 2c1 -1 2 -3 2 -4
c3 0 5 1 6 2c-3 3 -1 5 2 2c3 2 3 5 0 8c-3 -5 -5 -5 -8 0c-3 0 -2 -4 -6 -4v6c-3 0 -3 2 0 2s5 -1 8 -2c0 1 1 3 2 4h2c1 -1 2 -1 2 -1v-1c3 0 4 -3 4 0c3 1 4 1 4 0l6 4c4 3 7 4 8 4c0 3 -1 5 -2 6l-2 -2c-7 7 -7 5 -4 12c4 0 11 0 14 4l-4 2c-3 1 -3 2 0 2
c4 0 12 -7 16 -4c0 3 -1 7 -4 12c3 0 1 2 4 2l4 4c3 3 4 5 4 6c4 2 6 5 6 10c-3 0 -4 -1 -4 -4c-3 -3 -6 3 -2 6h2c0 4 -4 1 -4 4c4 3 8 1 12 4c3 4 -1 4 -4 8v2c-2 4 -1 6 2 6c9 9 19 -3 16 14c-2 0 -14 -12 -14 -2c3 0 5 1 8 4c1 3 4 4 8 2c5 18 -5 6 -8 6
c-7 8 4 17 12 14c1 -1 2 -3 2 -6c-1 0 -1 0 -1 -1c-1 -1 -1 -2 -1 -3h12c0 4 2 5 2 12c-4 2 -6 1 -6 -4c-1 1 -3 2 -6 2v4c3 1 5 3 8 6h2c3 0 4 1 4 2c-1 0 -2 0 -3 1s-2 3 -1 5c3 4 -5 10 -8 10v-4c-5 -2 -9 -1 -10 4c3 0 3 2 6 2l-2 2c-3 0 -3 2 -6 2s-4 3 -4 6
c0 1 1 3 2 4c-1 0 -2 1 -2 2c-3 -1 -4 -3 -4 -6c3 -5 4 -9 4 -12c-4 3 -8 3 -8 10c-3 0 -5 -1 -6 -4v-2c-3 -4 -4 3 -4 0c0 3 3 5 0 8c-1 -1 -2 -3 -2 -4c0 -5 1 -9 2 -10c0 -1 1 -2 4 -2c3 3 2 4 6 4v-8c-3 0 -5 -1 -6 -2v-2c0 -1 -1 -2 -4 -2c-1 0 -2 1 -2 2
c-3 3 -1 5 -4 8c-4 -3 -12 1 -16 4c-7 -7 2 -7 -2 -14h-2c-4 4 -6 9 -6 14c-3 -3 -5 -5 -8 -6l2 -6c1 -4 2 -7 2 -8s0 -2 1 -2h1c5 0 9 1 12 2c3 -3 5 -4 6 -4c-7 -8 -17 -1 -18 -14c0 -3 -4 -17 -4 -20c1 0 2 -1 2 -4c0 -1 0 -1 -1 -1c-1 -1 -2 -1 -3 -1l-2 2
c-3 0 -5 -1 -6 -2c4 -3 6 -5 10 -2c9 -6 -19 0 -16 0h-4c-1 0 -2 0 -2 1v1c-7 7 -12 -5 -12 -12h4c3 -8 -7 -12 -4 -20h6c-3 4 1 6 4 10v4v2c1 0 2 -1 2 -2c3 -3 1 -4 4 -8c-1 0 -3 -1 -6 -4l-2 -4c-5 -3 -9 -4 -12 -4c-7 3 -7 -6 0 -6c0 -1 1 -2 2 -2v-4c-3 -3 -1 0 -4 0
h-1c-1 0 -1 1 -1 2c0 -3 -2 -1 -2 -4c3 -3 3 -1 6 -4v-1c0 -1 -1 -1 -2 -1v-10v-4c1 -1 1 -2 1 -2h-1c-4 -3 -4 -4 -8 -4c0 1 -1 3 -4 6c0 -3 -2 -5 -2 -8s1 -5 4 -2h2c3 0 4 -1 4 -4c0 -1 -1 -2 -1 -3l-1 -1c-3 -3 -5 -4 -6 -4c0 -4 -1 -6 -4 -2v4c-3 3 -5 2 -8 2
c3 -8 1 -17 8 -24v-6v-4h-4c-2 3 -4 4 -6 2c-2 -4 -2 -8 0 -12h2c1 0 2 -1 2 -2v-2h-2c0 -3 -2 -1 -2 -4v-4v-2c1 -1 2 -3 2 -4c3 -3 3 -7 0 -10s-1 -3 -4 -6c0 -1 -1 -2 -4 -2h-4c-1 1 -2 3 -2 4c3 0 1 2 4 2c0 3 -1 4 -2 4c-7 -3 -4 -12 -4 -16h-4c-7 -2 -12 -6 -16 -12
l-6 6h-2c0 -3 -1 -5 -2 -6c0 -3 2 -6 6 -8c3 -3 5 -3 8 -6l6 10c3 0 4 -1 4 -2c0 -3 -2 -4 2 -4c3 0 3 4 6 4c1 -1 2 -3 2 -6c3 0 1 -2 4 -2c0 -3 3 -1 0 -4v-2c-4 4 -7 4 -14 4c-3 -12 -6 -17 -10 -28c8 0 11 0 18 -4c0 -1 -1 -3 -2 -4s-3 -1 -4 0v4c-3 0 -4 -1 -4 -2
c0 -3 -1 -7 -4 -12c3 -1 4 -3 4 -6c3 -3 4 -3 4 0c-1 1 -2 3 -2 4c0 3 1 -1 4 2c1 0 2 0 2 1v1c1 3 4 4 8 4h4c0 3 -5 9 -2 12h2h4c10 0 1 14 8 12h4c1 0 2 0 2 1v1v2h-2c-1 1 -1 3 0 4s2 3 2 6h4c3 3 3 5 6 8c0 3 -2 3 -2 6h2c1 0 2 -1 2 -2c3 0 -1 -2 2 -2c3 3 1 6 4 6
c1 1 2 3 2 6c0 1 -1 2 -2 2c-1 1 -1 3 0 4c3 3 18 29 18 26c1 -1 2 -3 2 -6v2c2 2 2 5 0 10c-3 3 -3 1 -6 4c0 3 -3 3 0 6c3 4 -8 10 -4 10v-1c0 -1 1 -1 2 -1v2v1c0 1 -1 2 -2 3h2c4 0 5 3 8 0c3 1 3 3 2 4c-3 4 -5 5 -8 8c-3 -1 -5 -2 -8 -2c-1 -1 -2 -3 -2 -6
c0 -1 1 -3 2 -4c-3 0 -3 -2 -6 -2c-1 0 -2 1 -2 2v2c0 3 2 1 2 4v1c0 1 -1 2 -2 3h-2c-1 -1 -2 -3 -2 -4h-2v4c0 3 1 5 2 6zM1112 608c4 2 6 5 6 10c-3 0 -4 1 -4 2c0 3 -3 4 0 8v1c1 0 1 0 2 -1h2c4 7 4 27 4 34v2c-4 -5 -9 -10 -14 -14c-3 0 -4 1 -4 2c3 3 4 6 4 10
c3 3 1 4 -4 4h-1c-1 0 -1 -1 -1 -2c-3 5 -6 6 -8 2c4 -8 -6 -2 -10 -2h-6c8 0 -20 2 -12 2h6c1 3 1 5 -2 6c-3 3 -2 7 -6 10c-4 0 -17 -11 -20 -14s-8 3 -12 0c-3 -3 -3 -1 -6 -4c-2 -4 -2 -6 0 -6c4 -3 3 -4 6 -8h6v-2c-5 0 -9 -1 -10 -2v-4c4 -3 10 2 14 -2v-8
c-4 -3 -13 -8 -6 -12l4 -4c0 -3 1 -5 2 -6h4c7 -3 -7 -2 -4 -2c-4 -8 -1 -5 2 -12c-3 0 -1 -2 -4 -2c-3 -3 -3 -5 0 -8s5 -10 8 -14c0 -3 -2 -1 -2 -4c3 -3 5 -4 6 -4s2 -1 2 -4v-2c0 -3 2 -1 2 -4l4 4h1c1 -1 1 -1 1 -2c0 -3 -2 -5 -2 -8h-6c-16 3 0 -10 2 -12
c-1 -1 -2 -4 -2 -8c3 -3 0 -1 -4 -4l-2 2v6v1c-1 0 -1 0 -2 -1c-4 -12 3 -10 10 -10c4 -3 5 -5 8 -8c-1 -1 -3 -2 -4 -2c-4 0 -1 4 -4 4c-2 2 -4 2 -6 0v-6c3 0 3 -2 6 -2c0 -4 -1 -7 -2 -10v-2c-3 3 -4 1 -4 4c-4 -4 -6 -4 -6 -8c3 -3 14 3 6 -8h-6c-5 -5 -5 -9 -2 -14v-12
v-6c3 0 1 -2 4 -2c-3 -7 -6 -5 -10 -8c3 -7 -2 -3 -2 -10c0 -5 12 8 14 6c-3 -3 -1 -3 -4 -6c5 -3 13 -17 8 -14c-3 3 -4 5 -4 8c-1 -1 -2 -3 -2 -6c0 -1 0 -2 1 -3c0 -1 0 -1 1 -1v-4h-2h-2c-3 -13 -11 -34 8 -36c0 -3 -2 -3 -2 -6c3 -3 8 -14 8 -18h-2c-3 0 -3 -1 -2 -4
c7 4 10 4 6 12c3 3 5 2 8 2l-6 16c3 5 5 9 8 10c4 -3 8 -1 12 -4c3 7 0 10 0 14c-2 2 -4 2 -6 0c-1 0 -1 0 -1 -1s0 -2 1 -3c4 -3 5 -4 2 -4s-4 1 -4 2v4c-4 0 -7 1 -8 2l6 6l-4 4c-7 4 3 7 6 10c1 -1 2 -3 2 -4c0 -3 -2 -5 -2 -8c4 -4 5 -3 8 0c0 3 -2 1 -2 4
c7 3 8 6 12 10v6h-2c-2 2 -2 4 0 6c4 4 4 6 4 10c3 5 4 9 4 12c-3 8 9 6 6 14c-3 11 6 9 10 6c4 3 3 3 6 6c1 3 1 5 -2 6c-1 0 -3 1 -4 2s-2 2 -2 3v1c1 1 3 3 6 4c-4 0 -6 2 -6 6c2 5 2 8 0 10h-4c-1 0 -3 1 -4 2c1 3 2 5 2 6c-3 -4 -8 -6 -12 -10s-5 10 -2 10
c3 3 16 -2 8 6l-6 6c0 1 0 2 1 2h1c11 7 12 18 4 26c-3 -1 -5 -2 -8 -2v2c0 7 4 10 4 18c0 4 -6 4 -6 12c2 7 1 13 -2 18c-3 0 -4 -1 -4 -2c0 -4 2 -5 2 -8c0 -4 -1 -6 -4 -6s-5 1 -2 4v4l-2 2c0 4 2 6 2 10c1 1 4 2 8 2c0 -3 3 -5 8 -8c-4 -11 2 -20 10 -20v-2
c-1 -1 -2 -3 -2 -6c0 -1 1 -3 4 -6c3 0 5 3 8 0v-4c3 0 1 -2 4 -2l2 2v6h-2h-2c0 3 -2 1 -2 4c-3 4 -3 -6 -6 -2c0 3 1 9 -2 12c4 0 3 1 6 4s4 3 4 0c3 -1 6 -2 10 -2h2v1c-1 1 -1 1 -2 1l-1 1c-1 0 -2 1 -3 1c-3 0 -4 1 -4 2c0 3 1 5 2 6v2c-5 -3 -8 -2 -10 4c4 3 3 -7 0 0
zM918 776c-1 0 -3 -1 -6 -4c-3 3 -3 4 -2 4c0 2 7 34 2 26c-2 -2 -2 -5 0 -10c-1 -1 -2 -2 -3 -2h-1c3 -8 -9 -13 -6 -10c3 4 1 6 4 10c-3 0 -1 1 -4 4h2c7 4 0 4 0 8c8 7 3 6 10 14l-2 2h-4c0 -4 -1 -6 -2 -6c-3 -7 -8 -7 -12 -14c-1 -1 -5 -2 -10 -2c-1 0 -1 0 -1 1
c-1 1 -1 2 -1 3c3 0 1 3 4 0h6c0 7 9 6 12 14h-2c-1 0 -3 -1 -6 -4c-1 0 -2 0 -2 1v1v2c0 3 -1 4 -4 4s0 -4 -4 -4v2c-3 3 2 3 2 6c-4 3 -6 3 -10 6c4 7 5 11 12 14v2c0 3 -1 3 -2 2c-3 0 -7 -1 -12 -4c1 -1 2 -3 2 -4s-1 -3 -4 -6c0 -1 0 -1 -1 -1c-1 -1 -2 -1 -3 -1
c0 -1 0 -2 1 -3c0 -1 0 -1 1 -1h4c3 -4 10 -5 2 -8h-4v2c-3 3 -5 3 -6 2l-6 -6c-3 3 -5 4 -6 4c7 4 9 3 6 10h6l-2 2c-7 4 -5 -2 -8 -6c-4 4 -1 8 -4 12c7 4 7 6 4 10h-2c-3 0 -4 -1 -4 -4c0 -1 -1 -4 -2 -9l-2 -7l-4 4c3 4 4 6 4 10c-1 3 -3 3 -4 2c-1 0 -3 -1 -4 -2v-6h-8
l6 -6v-6v-1c0 -1 1 -1 2 -1c0 1 0 2 1 2h1c2 -2 2 -4 0 -6c-4 0 -6 -2 -6 -6c0 -3 5 -2 2 -6c0 -3 -1 -5 -4 -6c0 4 -1 7 -2 10c-1 -1 -3 -2 -4 -2c0 -3 -1 -5 -2 -6c-1 1 -3 2 -6 2c0 1 -1 2 -1 3l-1 1c-4 4 -8 2 -12 2c3 4 1 6 4 10c1 0 2 -1 2 -4c3 -3 5 -4 8 -4s3 2 6 2
c4 12 0 19 -4 30v2h-4c-3 -3 -1 -4 -4 -4c-2 2 -2 5 0 8c0 3 -1 6 2 10c0 3 -2 1 -2 4c7 0 12 -1 16 6h-4v2v2c1 0 2 0 3 1c1 0 1 0 1 1c0 4 -1 3 -4 6c3 1 5 5 8 10c3 3 0 5 0 8h-2h-2v-4l1 -1c0 -1 1 -2 1 -3c-3 -1 -5 -2 -6 -2c-3 4 1 7 -2 10c-8 4 -1 6 -4 14h-10h-12
l-4 -4c7 -7 11 3 18 -4c-7 -4 -6 -10 -2 -6v1c1 0 1 0 2 -1c0 -4 -1 -7 2 -14c3 0 3 -2 0 -2c-4 3 -3 6 -6 10c-3 -1 -4 -3 -4 -6c3 -3 1 -4 4 -4c3 -5 2 -8 -2 -10h-2c-3 4 0 7 0 10c-7 4 -4 9 -8 16h-2c-1 -1 -2 -1 -2 -1v-1c-3 0 1 -3 -2 -6c0 3 -1 1 -4 4
c0 -1 -1 -2 -4 -2c0 -4 1 -7 4 -10v-2h-2c-3 0 -1 -2 -4 -2c-4 7 -3 11 0 18c-11 4 -21 -3 -24 12c-1 1 -3 2 -4 2c0 3 -2 1 -2 4h-6c-3 3 -4 5 -4 6c-7 8 -1 8 -12 8c-3 3 -5 4 -6 4s-1 0 -1 -1c-1 -1 -1 -2 -1 -3c3 0 7 0 4 -4h-4l-4 -4v-4c0 -1 -1 -2 -4 -2
c-2 -11 -4 -14 -6 -8c0 4 2 5 2 8s1 4 2 4h1c1 1 1 1 1 2c3 3 0 12 -4 12c-1 -1 -2 -1 -2 -1v-1c-3 -4 -5 -13 -8 -16c-3 3 -5 3 -8 0v-6c-3 0 -4 1 -4 4c1 3 2 7 2 12c-4 -4 -6 -3 -6 2c-3 0 -4 -1 -4 -2c-3 -3 -3 -4 0 -4c3 -3 1 -3 4 -6c-3 -3 -4 -3 -4 -2
c-2 2 -4 2 -6 0v-4c-4 -4 -2 15 -12 10c0 -5 -2 -8 -6 -10c-4 0 -7 -1 -10 -4v-6l-6 -8c-4 0 -4 11 -8 4s-8 -5 -12 -12c-3 4 -3 6 -6 10c-3 -4 -1 -7 -4 -10c-3 0 -5 -1 -6 -4c3 -3 1 -4 4 -4c-3 -3 -5 -3 -6 -2c-3 3 -5 4 -8 4v1c0 1 -1 2 -2 3h-2c0 -5 -1 -9 -2 -10
c0 -7 1 -6 -6 -10v-2c0 3 -1 0 -1 -1c-1 -1 -1 -2 -1 -3c-2 -2 2 12 -2 16c-8 3 -5 -11 -8 -18c0 -3 4 -4 4 -8c-1 1 -3 2 -6 2c-3 3 0 6 -4 6s-3 -7 -10 -4c0 1 1 3 4 6c3 0 5 1 8 4c0 3 -1 4 -2 4c-3 3 -5 4 -6 4c-1 1 -2 0 -4 -2c1 0 2 -1 3 -1l1 -1c5 -7 -8 -2 -8 -6
c0 -3 -1 -5 -2 -8l-1 -1c-1 0 -1 0 -1 1c14 -11 -16 14 -8 6c0 7 -2 12 -6 16c-7 3 -7 12 -18 4c0 -1 1 -2 2 -2c5 3 8 1 8 -4c-4 2 -7 1 -10 -4c3 -3 4 -5 4 -6c-1 -1 -1 -2 -1 -2h-1c-4 0 -3 3 -6 6c-4 -3 -5 -1 -2 -8h1c1 -1 1 -1 1 -2c3 0 4 -1 4 -2c4 4 4 4 8 4
c4 -4 8 -11 16 -8c0 -3 1 -1 4 -4c-3 -3 -3 1 -6 -2c-3 -4 3 -3 6 -6c0 -3 -1 -4 -2 -4c-2 -2 -4 -2 -6 0c0 1 0 2 1 3c0 1 0 1 1 1c-4 3 -9 8 -12 8v-6c-3 0 -5 -1 -6 -2v-1c0 -1 1 -2 2 -3c3 0 3 2 6 2c0 -1 0 -2 1 -2h1c-3 -7 -2 -5 -6 -8h-6c-1 -1 -2 -2 -2 -3v-1
c0 -5 2 -8 6 -8h4c3 0 4 1 4 4s2 5 2 8c0 -1 0 -1 1 -1c1 -1 2 -1 3 -1c0 -3 1 -5 2 -6c5 3 6 6 4 10c1 0 2 0 2 1v1c1 3 3 3 6 2c0 -3 1 -1 4 -4l-6 -6c-3 -1 -4 -4 -2 -8c3 -3 4 -5 4 -6c3 0 3 2 6 2c-3 3 -4 5 -4 6c0 4 1 6 4 10c3 3 1 -14 6 -16v-6c-1 -4 2 -5 7 -4
c3 1 6 2 9 4v-8c0 -1 1 -2 4 -2c-3 12 15 12 12 8h-8v-8c3 -3 3 -1 6 -4c0 -1 0 -1 1 -1c1 -1 2 -1 3 -1c4 6 10 8 18 6c0 -3 -1 -5 2 -8c4 0 8 -4 12 0c1 3 1 5 -2 6c4 3 17 -4 20 -4c9 -5 12 -11 10 -20c-3 -8 -8 -5 -8 -12v-1c0 -1 1 -1 2 -1c3 3 5 2 8 2l6 12h4v2
c-3 3 -4 1 -4 4s-2 3 -2 6h4c0 3 1 5 2 6c3 0 1 -1 4 -4c-3 0 -1 -2 -4 -2c0 -11 7 -2 10 -2c-3 -5 4 10 4 8c0 1 0 2 1 2h1c3 0 4 -1 4 -4c-2 -2 -2 -4 0 -6h6c-1 3 -1 5 2 8c3 -1 5 -5 8 -10c0 -3 0 -13 -4 -16c-3 -3 -4 -1 -4 -4c3 -5 2 -8 -2 -8c-2 -2 -4 -2 -6 0
c-1 0 -2 1 -2 4c-3 0 -5 -1 -6 -2c-3 -4 1 -4 4 -8v-12c-1 0 -2 0 -2 1v1c-1 1 -2 2 -3 2h-1c-1 0 -2 0 -2 1v1v4c0 3 -1 3 -4 2c-1 0 -3 -1 -4 -2l-4 4c-7 -4 -7 -9 -14 -12c-3 0 1 1 -2 4c-3 0 -7 -1 -12 -4c4 -7 7 -9 14 -16c-4 -4 -4 2 -8 2h-4c-3 -7 -2 -5 -6 -8
c-4 0 -6 2 -10 2h-6c-3 0 1 -1 -2 -4s-4 8 -12 4v-4c-3 -8 -13 3 -16 -8l2 -2c6 0 -5 -15 -8 -18c0 3 -2 1 -2 4h-2l-8 -8c4 3 8 0 12 0c-3 -3 -1 -3 -4 -6c1 -1 3 -2 4 -2l4 4c0 3 -3 3 0 6c0 1 1 2 2 2c3 -3 5 0 8 0c3 -1 5 -2 6 -2c7 -8 -3 -8 -10 -8c0 -3 -5 -10 -8 -6
c-4 2 -6 1 -6 -2c2 -6 1 -10 -4 -12c0 4 -1 6 -4 6v-6c-3 0 -3 -2 -6 -2l-1 -1c0 -1 0 -1 1 -1v-1c0 -1 1 -1 2 -1c0 1 1 2 4 2v-2c-3 -4 -1 -5 -4 -8c3 0 -7 -2 -10 -2v6c-3 0 -4 -3 -2 -8c0 -1 0 -1 1 -1c1 -1 2 -1 3 -1c8 -4 34 -10 42 -10c11 0 19 -6 30 -6
c3 -3 4 -5 4 -8c-3 3 -5 4 -6 4c-3 0 -10 1 -14 -2c3 -3 5 -1 2 -4h-2c-4 2 -6 5 -6 8c-5 0 -9 1 -12 2c-1 0 -2 0 -2 1v1c-4 0 -10 3 -14 0c0 -5 -2 -8 -6 -10c-4 7 -9 1 -12 8h-1c-1 0 -1 1 -1 2h-2c-3 -7 7 -5 0 -12c-3 -3 -1 -6 -4 -10c-7 -3 -12 -1 -20 -4
c-3 -3 -6 -4 -10 -8v-2c1 0 3 -1 4 -2c0 -3 0 -2 -4 -6c0 3 -2 1 -2 4l-18 -6c0 -3 -2 -3 -2 -6c3 -3 3 0 6 0s1 2 4 2s3 2 6 2c2 -1 2 -2 1 -3s-2 -1 -3 -1c0 -3 1 -4 4 -4c-3 -3 -3 -5 -2 -6h4c11 0 -42 -11 -12 -6l6 -6v-2c-3 0 -9 -1 -12 -4h6c3 -3 1 -4 4 -4
c3 3 1 3 4 6h2l4 -4c-6 -19 3 -14 -18 -26c-4 0 -5 -2 -8 -2l-4 -4c4 0 7 1 10 2c0 -1 0 -1 1 -1c1 -1 2 -1 3 -1v-2c-1 1 -2 2 -3 2h-1c-7 -11 -9 -26 -12 -38c-1 -1 -3 -2 -6 -2s-4 -1 -4 -4c19 -7 37 4 56 4c18 3 46 -15 62 -12c3 -3 5 -3 8 -6c3 0 5 -1 6 -2v-4
c3 -3 3 -1 6 -4c0 -3 2 -3 2 -6c-3 -3 -5 -3 -6 -2s-1 2 -1 2h-1h-2c4 -8 3 -8 10 -8v4c1 3 3 4 6 4h4c1 0 3 1 6 4v2c3 3 5 2 8 2c7 -4 7 1 14 -6h-2c-13 5 0 -9 -10 -12c-3 0 -5 -1 -2 -4c0 -7 -1 -9 2 -16h-2c0 -3 -1 -1 -4 -4c0 -1 1 -3 2 -4c8 7 8 8 20 8
c5 0 9 -1 10 -4c0 -4 -2 -8 -2 -12c-2 -4 0 -6 6 -6l1 1c1 0 2 1 3 1c3 -3 3 -5 6 -8c1 -1 2 -4 2 -8c-3 0 -24 -22 -26 -24c-4 -15 -24 -31 -24 -46l-4 -4v2c-1 3 -3 4 -4 4l-6 -10c0 1 -1 3 -2 4c0 1 -1 2 -4 2c-5 -3 -9 -4 -12 -4c0 -1 -1 -2 -1 -3l-1 -1
c0 -3 -1 -1 -4 -4c-1 -3 -4 -4 -8 -4c-3 3 -3 -1 -6 2c-1 0 -3 -1 -6 -4c-4 -7 -4 -15 -8 -22c-3 -3 -1 -6 2 -6c12 0 29 -3 44 -6c7 -11 22 -13 30 -24c8 -8 20 1 28 -6s28 3 36 0c13 0 43 -11 54 -6c3 1 6 4 10 8c1 0 2 1 2 4c2 7 2 12 0 16c-7 8 -13 22 -20 26h-8v2
c-3 3 -4 3 -4 0c-4 -4 -3 -7 -6 -10c-1 -1 -3 -2 -4 -2s-2 0 -2 1v1c3 8 2 13 2 20v1c1 1 1 1 2 1c7 8 0 4 0 12v10c-3 4 -3 11 -6 18c-3 3 -4 -2 -8 -2c0 1 -1 2 -1 3l-1 1c0 3 2 -1 2 2c0 4 -6 4 -6 8l2 2h2c3 0 4 1 4 4s-2 3 -2 6c4 4 5 11 2 18c-3 12 2 9 10 16
c2 2 2 4 0 6c-2 4 -1 7 2 8h6h4c7 -7 3 -13 10 -20c-3 -3 0 -3 0 -6c3 -7 8 -17 8 -24c-3 -7 2 -7 6 -14v-2c1 -1 2 -2 3 -2h1v-4c5 -14 26 -18 6 -26c-3 3 -3 5 -6 8c-4 0 -8 -3 -12 0c0 -3 1 -5 2 -8c4 -11 12 -17 16 -28l10 -8c3 -18 12 -48 -10 -62c-6 -6 -13 -8 -22 -6
c-7 3 -19 1 -26 8c-2 2 -4 1 -6 -2c0 -1 -1 -3 -2 -4c-8 4 -7 0 -14 0c-3 3 -1 3 -4 6c-4 0 -7 -1 -10 -2c-3 3 -5 5 -8 6c-11 8 -37 6 -52 14c-3 3 -5 1 -8 -4v-2c-4 0 -7 -4 -10 0c5 7 5 13 2 20c-2 2 -5 2 -8 0v4c-7 7 -7 10 -18 10c0 -3 -2 -1 -2 -4c7 -3 9 -1 16 -4
c4 -4 -5 -8 -8 -4c-3 0 -1 1 -4 4c-3 -3 -1 -4 -4 -4c-1 0 -3 1 -6 4c-3 -1 -7 -2 -14 -2s-13 1 -20 8c-3 4 -4 6 -4 10c0 11 -4 18 0 26c4 12 13 18 16 30h4c12 7 25 14 40 18c3 3 1 3 4 6c0 3 -1 5 -4 6c-1 0 -2 0 -3 1c-1 0 -1 0 -1 1c-4 3 -13 0 -16 0c-3 -3 0 -4 -4 -4
v2c0 3 2 5 2 8c-1 1 -2 3 -2 6s1 4 4 4c8 0 12 -2 12 6h4c7 4 7 9 14 12c0 3 1 5 2 8c4 3 8 6 12 10v6c-3 0 -1 2 -4 2l-2 -2v-4c-4 -3 -8 -3 -8 -10c-3 2 -6 5 -8 8c-3 0 -3 1 0 4l12 6c12 7 -1 19 -8 16l1 -1c0 -1 1 -2 1 -3h2l-4 -4c-3 2 -6 5 -8 8c-5 5 -41 23 -50 20
c-3 3 -5 4 -6 4c-11 0 -28 0 -36 4c-3 0 -17 8 -20 8c-1 -1 -3 -2 -4 -2l-2 2h-6c-4 -3 -5 -5 -2 -8c0 -4 2 -7 2 -4c-6 2 -10 1 -12 -4c0 -1 0 -1 1 -1c1 -1 2 -1 3 -1h2c4 -4 6 -8 10 -12h-20c-4 7 -10 1 -14 4c-8 3 -27 -6 -38 -6l-2 2v1c1 1 1 1 2 1c3 0 10 4 14 4h4
c3 0 4 1 4 4c4 -3 6 0 10 0v2h-4c-11 -7 -15 -1 -26 2c-9 0 -16 -2 -22 -6c-3 -3 -4 -5 -4 -8c-3 0 -3 -2 -6 -2c-1 0 -2 -1 -2 -2h10c1 0 3 1 4 4c7 0 9 0 16 -4c-8 -11 -22 -5 -30 -16v-2c0 -3 1 -5 2 -8h6l1 -1c0 -1 1 -2 1 -3c-1 -1 -3 -2 -6 -2c-7 0 -7 -4 -10 -8
c-3 0 -3 2 -6 2c0 -1 -1 -2 -1 -3l-1 -1c-1 -1 -2 -2 -3 -2h-1c-4 0 -12 -7 -12 -10s-3 -5 0 -8l-6 -6c-1 3 -1 5 0 6c0 3 2 1 2 4h-2c-1 0 -2 -1 -2 -2c-3 -3 -1 -5 -4 -8c-2 -2 -2 -4 0 -6c3 -3 3 -4 0 -4h-2c-1 0 -2 -1 -2 -4c0 -5 1 -9 2 -12c3 -3 1 -3 4 -6
c-3 -3 -3 -5 0 -8v-2c0 -3 1 -4 4 -4c7 -4 19 -7 22 -14c0 -7 -1 -11 -2 -14c4 -16 17 -27 20 -46c0 -1 -1 -2 -4 -2h-2c-3 -1 -5 -3 -8 -6c-1 -1 -1 -3 0 -4c3 -3 5 -4 6 -4c-1 -3 -3 -3 -4 -2c-6 2 0 -14 -2 -16h-4c-3 -4 -1 -3 2 -6h1c1 -1 1 -1 1 -2c1 -1 2 -1 2 -1v-1
c-3 0 -1 -2 -4 -2l-2 -2c0 -5 -1 -9 -2 -12h2c1 0 2 -1 2 -4h-1c-1 0 -1 -1 -1 -2c0 -7 1 -16 4 -24s3 -28 10 -28c3 0 4 -1 4 -4c-1 -1 -2 -2 -2 -3v-1c-3 -4 0 -8 0 -12v-4c4 4 0 8 4 8l1 -1c0 -1 0 -1 -1 -1c-3 -3 -3 -14 0 -18c3 -3 5 -4 6 -4c8 -4 4 -11 4 -18
c0 -8 1 -17 4 -24c0 -1 1 -3 4 -6l-2 -2c3 -7 2 -12 2 -16s2 -5 2 -8s1 -5 4 -6c-2 2 10 -47 10 -50c4 -20 10 -37 22 -56c0 -3 5 -7 8 -10h2c1 0 2 -1 2 -4l1 -1c0 -1 1 -2 1 -3s2 -2 6 -2c0 -3 1 -5 4 -8s4 -5 8 -8c0 3 2 1 2 4c4 -11 8 -7 8 -22c3 -8 25 -18 32 -22
c5 -3 10 -4 14 -4c12 -4 25 -6 38 -6v2v2c3 0 5 1 8 4l2 2c1 -1 3 -2 6 -2c4 0 5 -3 8 0c0 1 1 3 2 4c0 -4 18 9 10 6c11 0 -10 -9 -10 -12c3 0 21 2 24 2c5 0 8 2 10 6c3 -3 5 -3 8 0c1 3 4 6 8 10c3 -3 6 -4 10 -4l8 8c0 -3 2 -4 6 -2v4c4 0 7 1 8 2h8c1 0 2 -1 2 -2
c-3 -3 -5 1 -8 -2c-1 0 -3 -1 -6 -4c-1 -1 -1 -2 -1 -3s0 -1 1 -1h6c3 3 9 10 12 10c4 0 6 1 10 4l4 4v-10c4 4 5 8 8 12c3 3 4 -1 8 2v6c-1 5 0 6 1 5l3 -3c13 0 5 9 10 14c1 0 3 -1 4 -2c4 4 7 5 10 8c0 4 1 7 2 8c3 3 5 3 8 6c3 5 4 9 4 12c11 -7 11 2 14 14
c8 3 3 -1 10 6c12 4 19 23 26 34c0 3 -2 1 -2 4c3 0 1 1 4 4c1 -1 2 -3 2 -4c0 1 0 2 1 2h1c0 3 1 5 4 8v6c4 0 1 -4 4 -4h1c1 1 1 1 1 2c8 11 8 15 16 22c4 3 9 5 6 12v6c1 1 3 2 4 2c4 0 3 5 6 8s3 -1 6 2c-1 1 -2 3 -2 4c3 3 3 2 6 6c0 -1 0 -2 1 -2h1c4 -3 9 2 6 6
c-1 -1 -3 -2 -6 -2c-4 3 -3 5 0 8h4c1 0 3 1 6 4s5 4 8 8c-1 0 -2 0 -2 1v1v2c7 0 3 10 6 14h1c1 0 2 1 3 2c7 4 0 13 8 20c0 3 -1 5 -2 6c13 0 42 22 36 36c-1 0 -2 1 -2 4c4 4 8 7 12 14l1 1c1 0 2 1 3 1c3 0 6 3 8 10c4 11 8 9 12 16c0 3 -1 5 -2 6s-1 3 2 6h2
c3 -2 6 -2 8 0c3 0 4 2 4 6s1 9 -6 12h-2c0 3 1 7 4 12c-3 3 -4 25 -4 28c-4 -3 -3 -5 -6 -8c-4 3 0 8 0 12c-4 8 -15 30 -12 34c-3 3 -4 1 -4 4s-1 5 -4 8c-3 0 -5 2 -8 2c-3 3 -6 16 2 12c3 0 4 -2 4 -6c3 -7 5 -6 8 -2c-4 2 -5 5 -4 8c-3 8 -5 9 -12 6
c-3 -4 -5 -7 -8 -14c-3 7 -2 8 -6 12c-1 0 -3 1 -4 2c-4 3 -7 -2 -10 6h-4c-5 1 -6 5 -4 10h2c0 1 -1 3 -2 4h-7c-5 0 -7 1 -7 2v2h8c4 3 6 4 10 4c3 3 3 4 2 4c0 3 -9 6 -12 6h-6l-18 8h-6c-15 3 -25 13 -40 10h-2c-3 0 -5 1 -8 -2c3 -3 4 -5 4 -8c-8 0 -5 -8 -2 -12
c3 -3 0 -3 0 -6c0 -1 0 -1 1 -1s1 0 1 1c3 0 2 21 8 18c2 -4 -11 -20 2 -20h2v-4c7 0 10 -4 14 -4v-4v-1c0 -1 -1 -1 -2 -1c-3 0 -1 2 -4 2c0 3 -1 4 -2 4c-3 0 0 -4 -4 -4c0 3 -1 4 -4 8c-3 -1 -7 -2 -12 -2c-4 4 -9 6 -14 6h-2c0 3 3 1 0 4c-1 0 -3 -1 -6 -4
c-1 -3 -4 -4 -8 -4c0 3 -1 6 -4 6c-5 0 -9 -1 -10 -2c-3 1 -5 1 -6 0c0 8 4 20 8 24c0 1 -1 3 -2 4h-4c-4 -7 3 -12 -4 -16c-4 4 -7 -1 -10 2c0 4 -7 25 -4 28c3 4 6 16 6 20v8h6l2 2c0 3 3 4 0 8l1 1c1 0 2 1 3 1c1 -1 2 -4 2 -8c-3 -3 -1 -5 -4 -8c0 -7 2 -7 2 -14
c-2 2 34 2 36 2h6l1 1c0 1 1 2 1 3c7 -3 9 -2 16 -2c1 0 3 -1 4 -2c0 -3 2 -4 6 -2c3 0 -1 1 2 4c7 -7 13 -1 20 -8c0 -3 5 -18 8 -10v2l-1 1c-1 0 -2 1 -3 1s-2 1 -2 2s0 2 1 2h1c12 3 27 -18 40 -18c3 0 7 1 12 4c4 -2 4 -4 0 -6h-4c0 -1 0 -2 1 -3c0 -1 0 -1 1 -1
c4 0 3 0 10 4l1 -1c0 -1 1 -2 1 -3c4 4 5 9 4 16l-2 2c-3 -3 -5 -3 -6 0c4 7 4 5 4 12c-5 -3 -9 -5 -10 -8c-4 -3 -2 5 -2 8l10 8c-3 3 -1 3 -4 6s-1 3 -4 6c0 1 2 0 6 -1l6 -3c4 4 -1 12 -4 16c0 3 -2 4 -6 4c-3 0 -5 -1 -6 -2c-1 0 -2 0 -3 1c-1 0 -1 0 -1 1c1 1 3 2 4 2
c0 0 -16 39 -2 28c0 -1 0 -1 1 -1s2 0 3 1c0 3 -1 5 -2 6c1 0 3 1 4 2c3 0 4 -1 4 -2l1 -1c0 -1 1 -2 1 -3c1 1 2 3 2 6h4c4 -3 0 -7 4 -10l1 1c0 1 1 2 1 3c8 -3 8 -12 16 -12v10c-4 -3 -3 -1 -6 2c0 1 -1 3 -4 6c-3 0 -1 -2 -4 -2s-1 2 -4 2c0 3 -2 3 -2 0h-4h2
c3 7 -10 15 -14 18c-1 0 -2 0 -3 1c-1 0 -1 0 -1 1v8c0 3 1 1 4 4c-3 11 -9 6 -16 6h-2c3 4 6 6 2 10l-4 -4c-3 4 2 8 2 12v2c3 3 4 5 8 8c-4 3 -7 2 -10 6l2 2c4 8 -12 18 -8 22l4 4h2c7 -5 -11 -6 10 -6c3 0 6 0 6 -4h6c4 8 -3 7 4 14c3 3 5 10 2 14c0 7 -1 5 6 8h1
c1 1 1 1 1 2c8 4 0 12 -4 16c-2 2 -7 24 -12 16c0 -3 -1 -5 2 -8c0 -3 -1 -4 -2 -4c-3 2 -6 5 -8 8l-2 -2c-1 1 -2 3 -2 6c4 -2 6 -1 6 4c-1 1 -3 2 -6 2c-4 4 -6 14 -14 14c-4 2 -18 24 -16 28c3 0 1 2 4 2c1 0 2 1 2 2c0 3 -1 5 -2 6c0 1 -1 2 -4 2h-2v4c-3 3 -5 5 -6 8
h-2c-7 0 -3 9 -6 16c-1 -1 -2 -2 -3 -2h-1h-2c-3 0 -20 -2 -16 2c0 1 0 2 1 3c0 1 0 1 1 1c3 4 -5 6 2 10v8c-4 0 -13 4 -20 4c0 -3 -1 -5 -2 -6c-3 0 -1 -2 -4 -2c0 -1 -1 -2 -2 -2l-2 2c0 3 2 1 2 4c-4 3 -6 -2 -10 -2c0 3 1 4 2 4c7 7 2 11 6 18c5 0 1 -15 10 -10h6
c1 3 3 5 6 8c4 -3 1 -6 4 -6c3 3 1 6 4 10h2l2 -2c0 -1 -1 -3 -4 -6v-2h2c3 0 3 2 6 2c4 0 5 -3 8 0c1 3 2 5 2 8c0 1 1 2 4 2c0 -7 9 -7 6 0c-1 1 -2 3 -2 6v1c1 1 1 1 2 1c1 1 3 1 4 0s2 -1 2 -1v-1c-1 -1 -2 -2 -2 -3v-1c-2 -3 -2 -6 0 -8h4v2c-2 5 -1 9 4 14
c0 3 2 3 2 6c3 0 4 1 4 4c3 4 0 5 0 8c1 1 3 2 6 2c1 -15 -6 -18 10 -22h4c1 3 3 6 7 10c2 2 4 4 5 6c-4 4 -6 -7 -6 -4c-3 0 0 3 0 0zM264 336c7 0 10 3 10 8c0 37 17 78 12 118c-3 16 -12 4 -18 10c0 5 -1 9 -2 12c-11 11 -14 0 -18 -8h-2c0 3 -2 3 -2 6c0 1 1 3 2 4
c-3 3 -1 5 -4 8c-11 -11 -23 -63 -10 -76c7 -8 2 -29 2 -40c0 -20 1 -38 4 -58v-1c0 -1 1 -2 2 -3c7 3 10 6 14 10c1 1 2 3 2 6c0 1 1 2 2 2s2 1 2 4c-3 3 -1 5 -4 8c-3 0 -1 2 -4 2c-3 5 -4 9 -4 12c3 20 -8 96 18 106c3 0 1 -2 4 -2v-1c0 -1 -1 -1 -2 -1v-1
c0 -1 -1 -1 -2 -1l8 -10c-1 0 -2 -1 -2 -4c3 -3 4 -5 4 -6c0 -3 -1 -4 -4 -4v1c-1 1 -1 1 -2 1c-3 -4 -5 -13 -6 -21c-1 -5 -2 -10 -2 -15c-4 -8 7 -21 2 -30c-11 -11 -3 -25 0 -36c7 0 0 7 0 0c7 0 0 7 0 0zM1050 294c-1 1 -2 3 -2 6c0 1 -1 2 -4 2c-13 -5 -16 -54 -18 -66
c-7 -19 -2 -30 -2 -46c3 -13 -10 -32 0 -42s32 46 34 50c10 18 39 55 34 74c-6 2 -11 1 -16 -4v1c-1 1 -1 1 -2 1h-2c-3 -4 -7 -5 -4 -12v-7c0 -5 -1 -7 -2 -7c-3 -4 -2 -11 -6 -14c-3 7 2 11 2 18c-4 6 18 65 -12 46c-3 0 4 3 0 0c-3 3 4 3 0 0zM272 320
c-5 1 -11 -1 -16 -6c-7 -4 -2 -12 -10 -16c0 -1 -1 -3 -4 -6c-2 -4 -2 -8 0 -12c0 -4 1 -9 4 -14c0 -3 1 -3 4 0c8 15 26 38 22 54zM956 746v-4c3 -4 0 -3 -4 -6c-1 1 -2 3 -2 6c0 7 3 7 6 14c1 -1 2 -2 3 -2h1l6 -6c3 -4 10 -1 14 -4c4 4 9 11 6 18h-1c-1 0 -1 -1 -1 -2
c-1 0 -1 0 -1 -1c-1 -1 -1 -2 -1 -3c-3 -3 -5 -4 -6 -4c0 4 1 7 4 8v2c-8 -3 -8 -2 -8 -10c-3 0 -4 1 -4 2c0 3 3 3 0 6h-8l-12 -6v-2c-3 -8 -8 1 -12 -6c0 -3 2 -3 2 -6c-4 -7 -4 -6 0 -10l2 2c3 -5 4 -9 4 -12c3 -3 27 13 24 18c-3 0 -4 -1 -4 -4c-4 4 -4 8 -8 12z
M1054 718c7 0 9 4 16 4c3 0 2 -7 6 -10l2 -2c-3 -3 -5 -6 -2 -10c3 -9 6 12 6 14h-2c-4 2 -6 5 -6 10c3 4 1 8 4 12h-4c0 4 2 7 2 10c0 9 -3 11 -8 6c0 -3 -1 -5 -2 -6c4 -8 3 -12 -2 -12c-7 0 -10 -12 -10 -16zM776 930c-3 3 -4 3 -4 0c-3 0 -6 -1 -6 -4c-4 -2 -6 -5 -6 -8
c3 -8 -2 -11 6 -14c3 0 4 1 4 4c-1 0 -2 1 -2 2c2 2 5 2 8 0c0 -3 1 -5 2 -6c3 0 3 -5 6 -2c0 3 0 14 -4 14s-13 -1 -16 2c3 3 1 3 4 6c3 -3 3 -1 6 -4c0 4 2 7 2 10c-3 3 0 -3 0 0c-3 3 0 -3 0 0zM346 726c0 -4 -1 -6 -4 -6c0 -4 2 -7 2 -10s2 -4 6 -4v6v1c1 1 1 1 2 1
c0 -3 2 -1 2 -4c7 7 7 11 4 18h-1c-1 0 -1 -1 -1 -2c1 -3 1 -5 -2 -8c-3 8 -8 3 -4 10c1 0 2 1 2 4c-1 1 -3 2 -4 2c-1 -1 -3 -2 -4 -2v4c0 12 -6 -13 -4 -8c0 -3 1 -4 2 -4l1 1c1 0 2 1 3 1c0 -4 -3 0 0 0c0 -4 -3 0 0 0zM1020 132h-10c1 5 -10 -2 -6 -10c0 -4 2 -8 6 -12
c1 3 5 5 10 8c2 4 2 9 0 14c-4 0 3 -7 0 0c-4 0 3 -7 0 0zM1116 542c-1 -1 -1 -2 -1 -2h-1c-3 -3 -3 -5 -2 -6c1 -3 2 -7 2 -12c0 -1 -1 -2 -1 -3l-1 -1v-2c1 -1 3 -2 4 -2c14 -6 0 13 0 10c0 5 14 31 6 34s-3 -19 -6 -16zM1096 688c-12 -7 -12 -12 -24 -4c-4 -3 0 -5 0 -8
c4 -4 3 -4 6 -8c5 2 9 1 12 -2c2 4 2 8 0 12c4 7 6 -3 10 0l10 8c-3 3 -4 3 -4 0c-3 -3 -1 -4 -4 -4c-4 0 -3 -1 -6 6c-3 -3 3 -7 0 0c-3 -3 3 -7 0 0zM502 846c-3 3 -3 -1 -6 2c3 4 3 20 0 24c-3 -7 -6 -14 -2 -18c-7 -8 5 -12 2 -20h8c3 0 3 2 6 2s1 -2 4 -2c0 3 3 8 0 8
c-4 0 -7 -1 -10 -4c-3 3 -2 1 -2 8c-3 3 0 -7 0 0c-3 3 0 -7 0 0zM968 704c3 1 5 5 8 10c0 4 -2 8 -2 12v2h-4c-1 -1 -2 -3 -2 -4h-4c0 -12 -15 -17 4 -20c4 3 -4 0 0 0c4 3 -4 0 0 0zM336 646c0 3 2 1 2 4c-3 11 -2 19 -2 30c0 3 -2 3 -2 0c-7 -4 7 -15 -6 -18v2v10
c3 7 -9 5 -6 -2c5 -5 5 -9 2 -14c4 -3 7 -1 10 -4c0 -3 1 -5 2 -8c0 3 -3 4 0 0c0 3 -3 4 0 0zM608 752c2 -2 4 -2 6 0l2 2c7 2 5 -6 14 6c-3 3 -17 4 -20 4c-3 -5 -3 -9 -2 -12c3 -3 -3 4 0 0c3 -3 -3 4 0 0zM1080 696c0 -1 0 -2 1 -3c0 -1 0 -1 1 -1c-1 -1 -2 -3 -2 -6
c0 -4 18 3 18 6c-1 1 -2 4 -2 8c-1 0 -3 1 -6 4h-2c0 -3 2 -10 -2 -10c-3 0 -3 2 -6 2c0 -3 3 0 0 0c0 -3 3 0 0 0zM760 928c-5 10 -9 1 -14 6l-2 2c-1 -1 -2 -1 -2 -1v-1c-3 -7 0 -14 8 -10l2 -2c3 0 4 1 4 2l4 4c0 3 -3 -3 0 0c-3 4 -3 -3 0 0zM810 380c7 0 11 0 18 4
c-3 1 -5 2 -8 2c-4 0 -26 -3 -26 -6c1 0 3 0 4 -1c3 -1 4 -2 4 -3v-1c0 -1 1 -1 2 -1c4 0 3 3 6 6c7 0 -3 -3 0 0c7 0 -3 -3 0 0zM558 448c0 -3 -1 -5 -2 -6c0 -4 1 -6 4 -6c4 -2 8 -2 12 0c3 0 3 1 0 4c-3 0 -1 1 -4 4c-1 3 -5 4 -10 4c0 -3 4 0 0 0c0 -3 4 0 0 0zM508 820
c0 3 8 13 0 10l-12 -14c0 -3 -1 -6 2 -10c3 0 5 1 6 2c0 4 -2 6 -2 10c1 1 3 2 6 2c0 4 -3 0 0 0zM306 610c0 4 1 7 2 10c0 1 -1 2 -4 2c-6 -3 -10 -17 0 -14h4c0 -1 1 -3 2 -4c7 3 0 6 -4 6c0 4 3 0 0 0c0 4 3 0 0 0zM932 754h2c3 3 1 3 4 6c3 4 0 7 0 10
c-6 0 -18 -9 -8 -6c1 0 2 -1 2 -2c0 -3 -1 -5 -2 -6zM1026 714c-3 -1 -7 -2 -14 -2c-3 0 -5 1 -6 2c0 -4 1 -6 2 -6s3 -1 4 -2h2c3 0 6 -3 10 0c0 3 2 4 2 8c-3 0 0 -4 0 0c-3 0 0 -4 0 0zM852 372c0 15 -14 10 -14 6c0 -1 1 -3 2 -4c3 0 3 -2 6 -2c1 -1 2 -1 4 -1
c1 0 1 0 2 1c0 3 -3 0 0 0zM950 780c0 4 4 13 0 16c-3 0 -13 -20 -6 -18c3 0 3 2 6 2c0 4 -3 0 0 0c0 4 -3 0 0 0zM296 510c-11 -4 -2 -15 2 -12v4c-1 1 -1 2 -1 2h-1c0 1 1 2 4 2h1c1 -1 1 -1 1 -2h2c3 3 3 4 0 4c-4 0 -5 2 -8 2c-8 -3 3 0 0 0zM598 434v2
c-15 -6 -5 6 -12 6c-4 0 2 -16 8 -10c3 0 4 1 4 2zM974 278c2 3 2 6 0 8c-3 3 -5 5 -8 6c-3 -3 -1 -4 -4 -4c1 -3 4 -5 7 -7l5 -3c3 4 0 3 0 0zM366 756c4 4 8 8 0 12c-3 -3 -1 -3 -4 -6c3 -3 -2 -17 6 -12c0 3 -1 5 -2 6c3 0 3 -3 0 0c3 0 3 -3 0 0zM404 822
c-3 -4 -3 -6 -6 -10c3 3 15 6 6 18c-3 -3 -3 -1 0 -8c0 -4 -3 5 0 0zM1014 738h2c3 3 5 5 6 8c5 7 -16 0 -8 -8zM306 550c3 4 6 6 10 10c0 3 -2 1 -2 4c-3 -1 -19 -11 -8 -14c3 4 -4 3 0 0c3 4 -4 3 0 0zM1034 744l-3 -7c-1 -4 0 -6 5 -5c4 3 6 12 -2 12c0 -3 3 0 0 0
c0 -3 3 0 0 0zM1116 670c7 3 7 3 4 14c-1 -1 -1 -2 -1 -2h-1c-1 0 -2 -1 -2 -4c-2 -2 -2 -5 0 -8c7 3 -3 4 0 0c7 3 -3 4 0 0zM594 430v-6c3 -4 1 -4 8 -4c-1 1 -2 3 -2 6l1 1c0 1 1 2 1 3c-3 3 -4 0 -8 0c0 -3 4 0 0 0c0 -3 4 0 0 0zM320 682v6c-3 3 -1 3 -4 6
c0 3 -2 3 -2 0c-4 -7 3 -12 6 -12c0 3 -3 0 0 0zM978 726c3 0 17 -2 14 2c0 8 -11 2 -14 -2c3 0 7 7 0 0c7 0 4 7 0 0zM420 882c-8 3 -11 -3 -4 -10c3 4 4 6 4 10c-3 3 0 -4 0 0c-7 3 0 -4 0 0zM898 836c-3 3 -1 4 -4 4s-4 -1 -4 -4v-2c0 -3 1 -3 2 -2c1 0 3 1 6 4
c-3 3 -3 -3 0 0c-3 3 -3 -3 0 0zM1028 672c3 0 5 1 8 4c-3 7 -11 4 -8 -4c4 0 0 4 0 0c4 0 0 4 0 0zM932 800c-3 -3 -4 -5 -4 -8c-1 0 -1 -1 2 -4c3 3 4 5 4 8c0 1 -1 3 -2 4c-3 -3 3 -3 0 0c-3 -3 3 -3 0 0zM1068 380v-4v-1c0 -1 1 -1 2 -1h1c1 0 2 1 3 2c0 3 -1 5 -2 6
c-3 1 -4 1 -4 -2zM536 876c0 -4 2 -6 2 -10h2c3 0 4 1 4 4c-3 3 -5 5 -8 6c0 -4 4 -3 0 0c0 -4 4 -3 0 0zM496 552c-3 -3 -1 -3 -4 -6h-1c-1 0 -2 1 -3 2c0 -3 1 -5 4 -6c1 0 3 1 6 4c-1 1 -2 3 -2 6zM360 776c0 4 -3 4 -6 4s-5 -1 -6 -4h12c0 4 -3 -3 0 0zM990 710
c0 3 -2 6 -6 8c0 -5 1 -9 2 -10c3 0 1 2 4 2c0 4 -3 0 0 0c0 4 -3 0 0 0zM666 750c0 3 -1 2 -1 3c-1 0 -1 0 -1 1c-4 -3 -6 -11 -2 -8c3 3 4 1 4 4zM760 936c3 3 6 7 6 10c-1 0 -3 -1 -6 -4v-6c3 3 0 4 0 0zM508 526c-3 -3 0 -3 0 -6h6v2v2c-3 0 -3 2 -6 2c-3 -3 3 0 0 0
c-3 -3 3 0 0 0zM326 694c1 3 2 6 2 10c0 1 -1 2 -2 2h-1c-1 0 -1 -1 -1 -2c0 -3 -1 -6 2 -10zM304 496c4 -6 7 -7 10 -2c-3 0 -1 2 -4 2s-3 3 -6 0c3 -3 3 3 0 0c3 -3 3 3 0 0zM388 822c-1 1 -2 2 -2 3v1c-3 3 -4 3 -4 0c-1 0 -2 -1 -2 -4c1 -1 3 -1 5 -1c1 0 2 0 3 1
c-3 3 -4 0 0 0zM330 645v1c-1 1 -1 2 -1 2h-1c0 1 -1 2 -2 2s-2 -1 -2 -2c0 -3 1 -5 2 -6l2 2c1 0 2 0 2 1zM662 -254c4 0 3 1 6 4c0 3 -2 4 -6 2c-3 -3 0 -3 0 -6c4 0 0 3 0 0c4 0 0 3 0 0zM830 844v6c-1 1 -2 0 -4 -2v-2c3 -4 7 -2 4 -2c0 3 -3 -3 0 0zM302 514h4
c1 1 2 3 2 4l-2 2c-3 0 -4 -1 -4 -2v-4c3 0 0 3 0 0c3 0 0 3 0 0zM860 852v8c-3 0 -5 -1 -6 -2l6 -6c0 4 -3 3 0 0c0 4 -3 3 0 0zM908 758c-4 -3 -3 -4 -6 -8h2c0 -1 1 -2 2 -2c0 3 2 1 2 4v6c-4 -3 0 -3 0 0c-4 -3 0 -3 0 0zM410 446c1 0 2 1 2 4l-2 2c-4 0 -7 -6 0 -6z
M934 728c0 1 -1 2 -4 2c0 -3 1 -5 4 -8c2 2 2 4 0 6c0 3 3 -3 0 0c0 3 3 -3 0 0zM476 710c4 2 5 5 4 8c-4 3 -4 -5 -4 -8c4 3 0 3 0 0c4 3 0 3 0 0zM792 348h-2c0 -4 2 -6 6 -6h1c1 1 1 1 1 2v2c-3 0 -3 2 -6 2zM480 894c-3 0 -1 -1 -4 -4c0 -1 0 -2 1 -2h1c1 -1 2 -1 2 1v5
c-3 0 3 -3 0 0zM536 450c-2 4 -4 4 -6 0c2 -2 4 -2 6 0zM430 846v-2h8c0 3 -2 1 -2 4c-3 0 -5 -1 -6 -2zM682 764c0 3 -1 4 -2 4s-3 -1 -4 -4c1 -1 2 -1 4 -1c1 0 1 0 2 1c0 3 -3 -3 0 0zM810 924c-1 -1 -2 -3 -2 -6c3 -1 4 -1 4 2c0 1 -1 3 -2 4c-3 -3 3 -3 0 0
c-3 -3 3 -3 0 0zM474 862c3 3 4 5 4 6c-2 0 -3 0 -4 -1c-2 -1 -2 -2 0 -5c3 3 -3 4 0 0c3 3 -3 4 0 0zM812 352h2h2l-2 2v4c-5 -3 -5 -5 -2 -6zM584 340c1 -1 2 -2 2 -3v-1c3 0 1 2 4 2v4c-1 -1 -3 -2 -6 -2c3 -3 3 0 0 0c3 -3 3 0 0 0zM940 788l2 2c0 3 -1 4 -2 4h-2v-4v-1
c0 -1 1 -1 2 -1zM332 712c1 1 2 2 3 2h1c0 3 -1 5 -4 6v-8c3 3 0 4 0 0c3 3 0 4 0 0zM458 452c0 3 -2 1 -2 4c-3 -1 -3 -3 -2 -4h4c0 3 -3 0 0 0zM1096 394c-4 -4 2 -9 2 -6s-1 5 -2 6c0 -3 3 -3 0 0c-3 -3 3 -3 0 0zM778 -184v6c-7 -3 0 -9 0 -6zM920 814c-1 0 -2 -1 -2 -2
c3 -1 3 -1 2 2zM926 806v1c-1 1 -1 1 -2 1c-4 -3 -1 -5 2 -2zM1112 547v1c-4 0 -5 -4 -2 -4c1 1 2 2 2 3zM544 802c-1 1 -1 2 -1 2h-1c-1 -1 -1 -3 0 -4c0 1 0 1 1 2c0 1 1 1 1 0zM362 778c3 2 4 4 2 6c-1 -1 -2 -3 -2 -6zM520 804c-1 0 -2 0 -2 1v1c-3 0 -2 -5 2 -2z
M372 670l2 -2c3 0 4 1 4 2c-2 2 -4 2 -6 0zM502 878c-4 -4 5 -5 2 -2h-1c-1 0 -1 1 -1 2c-3 -3 0 -3 0 0zM608 892c-1 0 -2 0 -2 1v1c-3 0 -2 -5 2 -2zM918 320h2c3 4 2 4 -2 0zM952 776v-2h2v4c-1 0 -2 -1 -2 -2zM490 556c3 3 3 5 0 2c-4 0 -3 1 0 -2c4 4 -3 0 0 0z
M566 872c-1 -1 -2 -3 -2 -4c0 -3 5 0 2 4c-3 -3 0 -3 0 0zM1032 700c0 3 -1 5 -2 6c0 -3 1 -5 2 -6zM326 512l-2 -2l2 -2l2 2v1c-1 1 -1 1 -2 1zM1056 338h-2c-3 -4 -1 -4 2 0c-3 0 -3 -3 0 0c-3 0 -3 -3 0 0zM1058 740c3 8 -4 3 0 0c3 3 -3 0 0 0c3 4 -3 0 0 0zM458 772
c1 0 2 1 2 4c-3 3 1 -4 -2 -4zM320 614c-1 0 -2 -1 -2 -2v-1c0 -1 1 -1 2 -1v2v2c-3 0 0 -3 0 0c-3 0 0 -3 0 0zM578 692h-2v-4c1 0 2 1 2 4zM848 854v-2h2c0 3 -1 3 -2 2zM496 532c-5 -3 5 -5 0 0zM1130 584v-4v4zM780 -198v2l-2 2v-2h1c1 -1 1 -1 1 -2zM562 656v2v-2
c3 3 0 3 0 0zM1108 470h2v2c-1 0 -2 -1 -2 -2zM912 756v2c-1 0 -1 -1 0 -2zM1026 736v2c-1 0 -1 -1 0 -2zM1018 92h2c0 1 -1 2 -2 2v-2zM764 356h1c1 1 1 1 1 2c-1 0 -2 -1 -2 -2zM308 676v-2v2zM546 608c-3 -3 0 -3 0 0zM458 860h-2h2c-3 3 -3 0 0 0zM518 884v2
c-1 0 -1 -1 0 -2zM1052 322v-2h2v1c-1 1 -1 1 -2 1zM436 902c-4 3 -4 0 0 0c-3 3 -3 0 0 0zM394 -130v2v-2zM268 514h-2c0 -1 1 -1 2 0zM1128 624l2 -2v2h-2zM920 444v2c-1 0 -1 -1 0 -2zM378 432v1c-1 1 -1 1 -2 1c0 -3 1 -3 2 -2zM944 754h2h-2zM536 808l2 2h-2v-2z
M694 942v2v-2zM378 438v-2v2zM630 782h2h-2zM568 668v2v-2zM544 -472c-4 7 -17 15 -20 22c0 3 -1 4 -2 4c-6 9 -67 69 -62 72c8 7 30 14 38 6c7 3 6 3 10 0c1 0 2 0 2 1v1c1 0 2 0 3 1c1 0 1 0 1 1h4c-3 7 -20 1 -24 -2v2c-3 0 -3 2 0 2h2c24 7 50 13 74 6c15 -4 31 0 46 -8
c12 -4 32 2 40 -6c27 -19 53 -33 64 -64v-2c-3 3 -4 1 -4 4c-3 1 -5 5 -8 10c-2 5 -5 5 -8 2v-2c-4 -4 -8 -7 -12 -10c-8 -12 -17 -25 -20 -40h-124c-2 2 42 0 0 0c-2 2 42 0 0 0zM526 -392h-6c0 -5 4 -6 12 -4c4 -2 6 -4 6 -6c-3 -7 -1 -9 2 -6c7 8 2 12 -6 16h-2
c-3 0 -1 1 -4 4c0 -3 -1 -4 -2 -4zM570 -406c-3 3 -3 0 -6 0c-7 0 -7 -8 -14 -8v-2c0 -4 20 8 20 10zM586 -420c7 -3 7 7 4 10c-3 -3 -4 -6 -4 -10c4 -3 0 4 0 0c7 -3 0 4 0 0zM563 -422h1c3 0 5 -1 8 2v2c-1 1 -1 2 -1 2h-1c-3 -3 -3 -1 -6 -4h-2c0 -1 0 -2 1 -2zM524 -372
c0 -4 2 -6 6 -6c0 4 -1 7 -2 10c0 -3 -1 -1 -4 -4c3 -3 3 3 0 0c3 -4 3 3 0 0zM576 -406c1 -1 3 -2 6 -2c-3 3 -2 5 -6 2zM726 -456c-1 0 -2 1 -2 2c-3 4 -5 12 -2 16c3 -3 5 -5 6 -8c0 -3 1 -6 -2 -10c-3 0 3 4 0 0c-3 0 3 4 0 0zM648 -326c3 3 1 4 4 4s4 -1 4 -2
c-1 0 -3 -1 -4 -2l-2 -2h-1c-1 0 -1 1 -1 2c3 3 0 -3 0 0c3 3 0 -3 0 0zM562 -246c5 1 6 0 4 -4l-4 4c3 0 3 -3 0 0c7 0 3 -3 0 0zM702 -248c7 -3 -4 -9 -4 -2c1 1 3 2 4 2zM522 -256h-2l-1 1c-1 0 -2 1 -3 1v2c0 1 0 1 1 1s1 0 1 -1c3 0 1 -1 4 -4zM644 -328v-2
c-1 0 -3 -1 -6 -4c1 3 3 5 4 6h2zM606 -266c-1 1 -1 3 0 6v-2c3 -3 0 -1 0 -4c-3 3 0 3 0 0c-3 3 0 3 0 0zM598 -338c-1 -1 -3 -1 -4 0h2c9 -3 -2 0 2 0zM730 -458c0 -3 -2 -5 -2 -2c-1 0 -2 0 -2 1v1l2 2v-1c0 -1 1 -1 2 -1zM624 -288c-3 4 0 7 0 4v-4c-3 3 0 3 0 0
c-3 3 0 3 0 0zM626 -340c0 1 1 2 2 2h2c-3 -3 -4 -3 -4 -2zM642 -264c-4 -3 -4 -5 -4 -2c1 1 2 2 3 2h1c-3 -3 -3 0 0 0zM616 -277v-1c0 -1 -1 -2 -2 -2v2v2c1 -1 2 -1 2 -1zM610 -344c-4 -3 -6 -3 -2 0c1 1 2 1 2 1v-1c-3 -3 -3 0 0 0zM730 -466v4c1 -1 1 -2 1 -3
s0 -1 -1 -1c0 3 3 0 0 0zM634 -334v-2h-2c0 1 1 2 2 2zM680 -278v-2v-2h-2c0 1 1 3 2 4c0 -3 -3 -3 0 0c0 -3 -3 -3 0 0zM656 -320h2h-2zM664 -266v2v-2zM782 -2c-3 -3 -2 -8 -6 -8c1 -1 2 -3 2 -6c-2 -2 -4 -2 -6 0c0 -4 -2 -8 -2 -12c-3 -7 -4 -8 -12 -8h-4
c0 4 5 17 -4 16c0 -3 -1 -5 -4 -8c-3 0 -3 -1 0 -4c1 0 3 -1 6 -4c0 -7 -3 -8 -6 -12v-2c-1 -1 -3 -2 -6 -2c-3 3 -1 3 -4 6s-5 4 -6 4c-3 0 -4 1 -4 4v2c-7 0 -6 -3 -10 -6c0 3 1 5 4 8v10c-7 3 -8 8 -12 4c0 -1 -1 -2 -2 -2c-3 4 -1 6 -8 6h-8v-2c-1 -1 -1 -2 -1 -2h-1
l-2 2c0 3 -1 5 -4 8s-5 3 -8 2h-6c0 3 -2 3 -2 6c12 12 13 13 16 32c3 3 3 -1 6 2v1c0 1 1 2 2 3l1 1c1 0 2 1 3 1h-1c-1 0 -1 1 -1 2c-7 0 -12 -1 -20 2c-3 0 -5 -2 -8 -2h-2v2v2h4c0 3 -3 3 0 6c1 0 3 -1 6 -4c8 3 13 0 20 0h4c4 3 7 -11 14 -4c3 3 4 2 4 6c0 3 1 3 4 0
c3 0 1 -1 4 -4c4 -3 9 -2 12 2h4c3 0 5 1 6 2l6 12c3 3 2 6 -2 6c-20 4 -39 13 -62 16c-11 0 -21 4 -32 4c-7 0 -33 3 -36 6c-8 8 -29 10 -40 14c-12 4 -35 12 -46 8c-1 0 -2 0 -2 1v1c-7 4 -24 3 -28 6c-1 0 -2 -1 -2 -2c-1 0 -1 0 -1 -1c-1 -1 -1 -2 -1 -3v6
c-3 0 -3 3 -6 0c-3 -7 2 -11 6 -8v-8c0 -3 1 -5 4 -8h8c1 -1 2 -4 2 -8c3 0 3 -2 6 -2c3 -3 5 -3 6 -2h2c4 3 3 1 6 -2c0 -3 -1 -6 2 -6h12c3 0 5 1 8 4c3 -3 -1 -6 2 -6c7 -3 5 -2 8 -6c7 3 11 2 18 2c3 0 4 -1 4 -2c-3 -3 -2 -5 -6 -8c0 1 -1 3 -4 6c0 -1 -1 -2 -4 -2
c-4 0 -26 0 -8 -8c0 -7 -9 -7 -6 -14v-14c-4 0 -5 2 -8 2c-5 3 -9 3 -10 2c-3 0 -5 1 -8 4c-3 0 -5 1 -8 -2s-3 -1 -6 -4c0 -3 -2 -1 -2 -4c0 1 -1 2 -1 3l-1 1c-10 -21 -15 3 -28 6c-3 3 -1 4 -4 4c-3 4 -7 3 -10 6c0 8 3 14 -8 14c-5 5 14 8 2 14c-1 0 -2 -1 -3 -1l-1 -1
c-3 3 -3 5 0 6h2v6h-4c0 1 1 2 2 2h4c0 3 -1 4 -2 4c-3 -3 -6 -5 -10 -2l2 2c3 3 4 1 4 4c0 7 -2 12 -2 16c-2 10 -17 15 -12 28c0 4 -1 7 -4 8l6 6c0 4 1 10 -2 14c4 4 4 -11 4 -14c3 3 3 1 6 4c4 0 6 7 6 10c7 11 22 8 30 12c9 3 21 -19 24 0h6v-2c0 -4 3 -7 -4 -10v-4
c-4 -3 -5 2 -8 2h-1c-1 0 -1 -1 -1 -2c-13 -21 45 -25 58 -28c3 0 5 -1 8 -4v-1c0 -1 1 -1 2 -1c3 0 5 1 6 2c3 0 5 -1 6 -4l4 -2c3 -1 5 -2 6 -2h4c8 0 15 -8 22 -12c-2 -4 -5 -6 -8 -6c4 -4 11 -11 18 -8c4 0 8 2 12 2c3 3 4 5 4 8c3 0 12 -3 16 0c7 3 14 -1 22 2v-2
c1 -1 2 -2 3 -2h1c12 -3 23 -4 34 -4c18 -5 4 14 2 18h8c4 4 14 4 10 12c-1 1 -2 3 -2 6c3 3 5 4 6 4c4 -7 1 -12 8 -16c1 -1 2 -1 3 -1s1 0 1 1c3 0 4 1 4 4c1 1 2 3 2 6c8 -3 11 -8 18 -8c2 -4 4 -6 6 -6c3 -3 5 -1 8 -4v-2c0 -3 1 -4 4 -4l10 -6c0 -11 -2 -14 6 -22v1
c1 1 1 1 2 1c0 4 -1 10 2 14h-1c-1 0 -1 1 -1 2c-3 5 3 -3 6 -4c3 -3 5 0 8 -4c0 -3 1 -4 4 -8c3 -3 1 -4 -2 -8c-3 3 -5 2 -8 2v4h-2h-1c-1 0 -1 -1 -1 -2c-1 0 -1 0 -1 -1c-1 -1 -1 -2 -1 -3c-1 1 -3 2 -4 2c0 -3 -2 -1 -2 -4l4 -4c-1 -1 -3 -2 -6 -2v-4c-3 0 -4 -1 -4 -2
c0 -4 -2 -6 -2 -10c-4 -3 -6 -5 -10 -2c-3 0 -4 -1 -4 -4c0 -1 -1 -3 -4 -6s0 -4 0 -8c-3 0 -6 -2 -8 -6c-1 0 -2 -1 -2 -4c0 1 -1 -12 -2 -8c-1 0 -2 1 -2 4c-1 -1 -2 -3 -2 -4s1 -3 2 -4h-1c-1 0 -1 -1 -1 -2l-4 4c-3 -1 -4 -4 -2 -8c1 0 2 0 3 1c1 0 1 0 1 1
c1 -1 2 -1 2 -1v-1c-1 0 -1 0 -1 -1c-1 -1 -1 -2 -1 -3c0 -3 1 -4 4 -4c3 -1 4 -1 4 0zM754 56c3 0 1 -2 4 -2c5 0 8 3 8 8c0 1 -1 2 -2 2c-3 0 -4 -1 -4 -2c0 -2 -2 -4 -6 -6c3 0 4 3 0 0c3 0 4 3 0 0zM608 120h-2v-4h2v4zM830 4c3 -3 0 -3 0 -6l-12 -12
c-3 -11 -14 -13 -14 -24c-3 -3 -9 -4 -12 -4c-2 4 -2 8 0 12c1 0 2 -1 3 -1l1 -1c7 3 12 15 16 22c-1 0 -2 0 -2 1v1c1 1 3 2 6 2c3 3 5 4 8 8v2c-3 0 -4 1 -4 2c3 11 22 14 22 30c0 0 2 2 7 5l7 7c3 8 0 9 0 20h6c0 7 2 10 2 14c4 27 -13 44 -24 64c0 3 1 4 2 4h2
c4 -8 13 -18 16 -26v-2c3 -3 4 -1 8 -4c-1 -1 -2 -1 -2 -1v-1c4 -12 7 -19 10 -34c3 -24 -31 -65 -46 -78c0 -3 3 3 0 0c0 -3 3 3 0 0zM418 82c-1 -1 -3 -2 -4 -2c-3 0 -4 1 -4 4c0 32 -21 57 -10 92c8 29 38 35 58 48c3 3 0 4 4 4c1 1 3 2 6 2v-2c-14 -22 -48 -20 -56 -48
c-13 -37 6 -63 6 -98zM744 -85v-1c8 3 -2 7 8 12c7 3 8 5 12 12c-1 0 -2 1 -2 2c3 0 1 2 4 2v2c-1 1 -2 2 -3 2h-1c0 3 1 1 4 4v-1c0 -1 1 -1 2 -1c4 3 6 3 10 6c4 4 1 7 4 14c1 0 2 -1 3 -4c1 -1 1 -3 1 -4c0 -3 -2 -3 -2 -6c8 -12 -3 -8 -6 -12c-7 -11 -5 -11 -12 -18
c0 -1 1 -3 2 -4c-1 -1 -2 -3 -2 -6c-1 0 -2 1 -2 4v1c0 1 -1 2 -2 3c-4 -4 -9 -11 -12 -18c0 -3 -1 -4 -4 -4h-2c-1 -1 -2 -3 -2 -4h-4c-3 -3 -3 -5 -2 -6c3 -4 1 -5 4 -8c-3 0 -5 1 -6 4c-3 7 -11 9 0 16v6c3 3 3 10 6 10c1 0 2 -1 2 -2c1 -1 2 -1 2 -1zM458 400l-2 2h-22
c-7 0 -8 -7 -12 -10c-4 0 -8 5 -12 2c-3 0 -3 -2 -6 -2c-8 0 -1 8 2 8c8 3 14 6 22 6c4 0 6 1 6 2c8 4 29 -1 36 -4h2c1 -1 2 -1 2 -1v-1h-2c0 -3 -11 -2 -14 -2zM722 736c4 3 3 3 10 0c-3 -3 -4 -5 -4 -8c-3 1 -7 2 -12 2c0 -3 -1 -1 -4 -4l-1 1c-1 0 -2 1 -3 1
c1 0 2 0 2 1v1c1 3 1 5 -2 6c0 1 -1 3 -4 6c-1 0 -3 -1 -4 -2c-1 1 -2 3 -2 4c0 3 1 4 2 4c4 0 6 -2 10 -2c3 0 1 -1 4 -4v-4c3 0 8 11 8 4v-6c4 3 0 3 0 0c4 3 0 3 0 0zM430 18h-2c-3 -3 -2 -2 -6 2c0 3 7 15 0 18c-4 0 -8 19 -4 22l2 2c0 -7 2 -12 6 -16h2h2v-4
c-3 -4 3 -14 0 -18c-2 -4 -2 -6 0 -6zM688 710c8 -4 11 -4 18 4c0 -1 1 -2 4 -2c0 -3 3 -3 0 -6c-3 0 -1 -1 -4 -4c-3 0 -5 1 -8 -2s-1 0 -4 0c-3 3 -3 1 -6 4c-4 3 -11 -2 -18 2v4c4 0 6 2 10 2c-1 0 -2 1 -2 4c0 -3 -1 1 2 -2c4 -3 1 -4 8 -4c4 -3 -7 0 0 0zM818 778
c0 -1 -1 -2 -1 -3l-1 -1c-3 -3 -4 -1 -4 2v2v1c-1 1 -1 1 -2 1v-2c-1 -1 -1 -2 -1 -2h-1c-3 0 -4 1 -4 2c0 4 4 17 4 20c-3 7 -2 6 -10 6c-2 3 -2 7 0 10c3 -3 1 -3 4 -6c0 -4 8 -2 12 -2c3 -7 0 -11 0 -18c0 -5 1 -9 4 -10c0 -3 -4 3 0 0c0 -3 -4 3 0 0zM492 366
c-3 -3 -1 -3 -4 -6c-4 0 -4 7 -4 10s34 -4 44 -6c-3 -2 -6 -2 -8 0c-7 -3 -11 -2 -18 -2h-6c0 3 -2 -1 -2 2c-1 0 -2 1 -2 2c-3 -3 0 -3 0 0c-3 -3 0 -3 0 0zM580 206c1 0 3 1 6 4c3 0 5 -1 8 -2c3 3 2 6 6 6v-8l-6 -6c0 -3 1 -5 2 -6l-2 -2h-1c-1 0 -1 1 -1 2l-2 2
c-3 0 -5 1 -8 -2c-3 0 -5 2 -2 2c1 3 1 7 0 10c3 0 3 -4 0 0c3 0 3 -4 0 0zM726 176c1 -1 2 -3 2 -6s1 -5 2 -6c4 -3 6 -7 2 -4c-1 1 -3 2 -6 2h-2v-4h1c1 -1 1 -1 1 -2c3 0 1 -2 4 -2l-2 -2c-1 -1 -2 -3 -2 -6v-4c-1 -1 -2 -1 -2 0c-1 1 -3 2 -6 2v2v2h2c1 0 2 1 2 4
c-4 3 -2 6 -2 10c-3 4 3 14 6 14c3 -3 -4 0 0 0zM666 894c4 4 3 17 14 16c-3 -3 -4 -5 -4 -6c0 -3 1 -4 4 -8l-2 -2c-3 -3 -4 -5 -4 -6s-1 -2 -4 -2c-3 3 -4 5 -4 8zM898 292c-1 1 -2 3 -2 6c3 0 1 -1 4 -4c4 3 13 1 16 -2l6 -6h8v-4c0 -3 -6 -2 -11 1l-11 5
c-3 3 -6 4 -10 4c-3 3 4 0 0 0c-3 3 4 0 0 0zM614 50c3 1 6 2 10 2c11 0 22 -3 34 -6l2 -2c0 -3 -1 -4 -4 -4c-8 0 -13 6 -24 6c-3 0 -15 4 -18 4c4 3 4 -3 0 0c4 3 4 -3 0 0zM568 200c0 3 1 1 4 4c0 3 1 3 4 0c2 -5 1 -9 -2 -10c-4 -3 -7 -5 -14 -2h-1c-1 0 -1 1 -1 2
c-3 0 -3 4 0 4s1 2 4 2h6c0 3 -3 0 0 0zM722 -116h4c12 0 -1 -9 -4 -12c2 -4 2 -8 0 -12l-4 12c3 4 0 8 4 12zM634 604c-1 1 -2 2 -2 3v1c4 4 32 -6 34 -8c0 -1 -1 -2 -2 -2c-8 0 -23 10 -30 6c-3 3 4 4 0 0c-3 3 4 4 0 0zM606 376h-4c-1 0 -2 0 -2 1v1c-3 3 -8 1 -8 4
c0 4 10 8 2 12c-1 0 -2 0 -2 1v1c0 1 1 2 4 2c5 -3 6 -6 4 -10l4 -8l2 -4c-3 0 -3 3 0 0zM952 274c-3 3 -21 13 -16 18c4 0 13 -8 16 -12c2 -2 2 -4 0 -6c-3 3 3 3 0 0c-3 3 3 3 0 0zM854 582c2 -2 22 -10 8 -10c0 -1 0 -1 -1 -1c-1 -1 -2 -1 -3 -1c-3 0 -4 1 -4 4
c-1 0 -1 0 -1 1c-1 1 -1 2 -1 3s1 3 2 4c3 -3 -3 -3 0 0c7 -7 -3 -3 0 0zM430 18h-2c4 0 5 3 8 0c-3 -4 4 -16 0 -20c-2 -2 -9 13 -6 16v4zM558 832c-1 -1 -2 -2 -3 -2h-1c-4 0 -6 2 -6 6h1c1 1 1 1 1 2c2 2 1 4 -2 6h-6c3 3 5 4 8 4c1 0 2 -1 3 -1l1 -1v-8c0 -1 1 -3 4 -6
c-3 -3 -3 3 0 0c-3 -3 -3 3 0 0zM902 308c-3 0 -5 -3 -8 0c0 3 3 4 6 4s6 -1 10 2l-2 -8c-1 -5 -3 -5 -4 -2v1c0 1 -1 2 -2 3c-3 0 3 -3 0 0c-3 0 3 -3 0 0zM818 310c-4 3 -6 6 -10 10v8c3 3 4 3 4 0l4 -4c0 -3 -2 -1 -2 -4c3 -3 2 -4 3 -7c0 -1 0 -2 1 -3zM520 156
c1 -1 3 -2 6 -2l2 2c4 4 6 4 10 4c10 -13 -21 -6 -18 -6v2c3 -3 0 -3 0 0c3 -3 0 -3 0 0zM874 314c-4 0 -12 2 -16 6c3 3 1 4 4 4c3 3 1 0 4 0c5 -2 8 -5 8 -10zM878 672c-4 0 -6 -2 -10 -2c0 3 -2 1 -2 4h-2c-1 0 -2 1 -2 2c-1 0 -2 1 -2 2c3 8 15 -3 18 -6c-4 0 -4 4 0 0
c-4 0 -4 4 0 0zM792 848l6 -2c0 -3 -1 -4 -2 -4c-4 0 -6 -1 -10 -4v2c0 3 1 1 4 4c-3 3 -3 1 -6 4c0 3 2 1 2 4c3 -3 3 -1 6 -4zM584 386l6 -6c4 -4 1 -5 -2 -8c-2 -2 -4 -2 -6 0c0 1 1 2 2 2c3 4 -3 9 0 12c3 -3 -3 0 0 0zM726 646c-7 -3 -19 6 -26 6v4h8l4 -4
c4 0 10 1 14 -6c-3 0 -4 7 0 0c-3 0 -4 7 0 0zM912 568c-2 2 -2 5 0 8h6c3 -7 2 -10 2 -14s-1 -5 -4 -2c2 2 2 5 0 10c-3 0 -1 -2 -4 -2c-3 3 3 0 0 0c-3 3 3 0 0 0zM704 784c0 3 1 4 4 4c4 0 7 -1 8 -2c3 -3 3 -4 0 -4c0 -3 -2 -3 -2 -6c-2 7 -5 9 -10 8zM468 368
c-1 3 -4 4 -8 2l-2 2l2 2h12c3 0 1 2 4 2h2c1 -1 1 -2 1 -3s0 -1 -1 -1c-3 -3 -6 -4 -10 -4c0 3 4 0 0 0zM610 192c2 2 2 4 0 6h-2c3 4 1 7 4 10c3 0 1 2 4 2c2 -4 -6 -23 -6 -18zM612 876c7 -3 5 -6 12 -10c-1 -1 -3 -2 -6 -2s-1 2 -4 2c0 3 2 1 2 4h-2v-1
c0 -1 -1 -1 -2 -1h-1c-1 0 -1 1 -1 2s1 3 2 6c7 -3 -3 -4 0 0c7 -3 -3 -4 0 0zM554 388h-2c0 7 1 7 4 14h6c0 -3 -1 -1 -4 -4v-6c0 -3 -1 -4 -4 -4zM520 384c-4 0 -7 -1 -10 -2c-3 -3 -5 -3 -8 0c-5 8 16 4 18 4v-2c-4 0 0 3 0 0c-4 0 0 3 0 0zM438 -8c0 3 -1 14 6 14
c2 -6 2 -12 0 -18c-1 0 -3 1 -6 4zM816 276c3 -1 4 -4 4 -8l-6 -10c4 7 -2 11 2 18c4 -3 -3 -3 0 0c4 -3 -3 -3 0 0zM498 388c-1 -1 -1 -2 -1 -2h-1l-4 -4c-4 4 -5 4 -12 4v2v2c4 3 14 -2 18 -2zM742 642c0 1 1 3 2 4c4 -4 12 -3 16 -6c3 0 3 -2 0 -2h-2c-7 3 -12 1 -16 4z
M444 -34c-3 5 -4 9 -4 12v1c0 1 1 2 2 3h1c1 -1 1 -1 1 -2c0 -3 2 -6 2 -10c0 -3 -1 -4 -2 -4zM902 434c8 4 12 -1 12 -8c0 -1 -1 -2 -2 -2c-1 1 -2 3 -2 4c-1 0 -2 0 -3 1c-1 0 -1 0 -1 1l-4 4c7 4 -3 3 0 0zM716 172l2 -2v-1c0 -1 -1 -1 -2 -1c0 -4 -1 -6 -4 -10
c-7 7 0 10 4 14zM894 64c-1 1 -3 2 -4 2c1 0 2 0 2 1v1c0 -2 0 20 6 14v-2l-2 -7c-1 -5 -2 -8 -2 -9c-3 3 0 4 0 0c-3 3 0 4 0 0zM342 316h8c0 -4 -2 -5 -2 -8c0 -1 -1 -2 -4 -2l-2 2c0 1 0 2 1 3c0 1 0 1 1 1c-3 4 -5 4 -2 4zM668 902c-4 0 -6 1 -6 4v12c3 4 6 -13 6 -16
c-4 0 0 3 0 0c-4 0 0 3 0 0zM532 362c-1 3 -1 5 0 6h8c3 3 1 4 4 4c5 -5 -9 -7 -12 -10c-3 4 3 3 0 0c-3 4 3 3 0 0zM790 868h8c3 0 4 -2 4 -6h-8l-4 4v2c4 0 0 -3 0 0c4 0 0 -3 0 0zM436 164c-7 3 -7 12 0 12c1 0 2 -1 2 -4s1 -5 -2 -8c-4 3 0 3 0 0c-4 3 0 3 0 0zM434 142
c-1 1 -2 2 -2 3v1c0 7 -1 11 2 18c0 -3 1 -4 2 -4c-3 -7 1 -11 -2 -18c-3 3 3 7 0 0c-3 3 3 7 0 0zM820 902c3 -3 3 -4 0 -4c0 -4 -2 -4 -2 -8c0 -3 -2 -3 -2 0c0 5 1 9 4 12zM582 652c-7 -3 -6 -6 -6 -10c-1 1 -3 3 -4 6l4 4v6c4 -3 2 -3 6 -6c-7 -3 -4 3 0 0
c-7 -3 -4 3 0 0zM896 426h2c0 -3 -1 -1 -4 -4c-3 0 -9 -1 -12 2c-1 1 -1 2 -1 2h1h14zM682 658c3 3 3 1 6 4c3 -3 5 -4 8 -4c0 -3 -1 -4 -4 -4s-3 5 -6 2c-3 0 -1 2 -4 2c3 3 3 0 0 0c3 3 3 0 0 0zM830 768c0 -3 2 -3 2 -6c-1 -1 -3 -2 -4 -2c-1 3 -3 5 -6 8v2
c23 -3 3 0 8 -2c0 -3 -3 3 0 0zM586 606c-1 -3 -3 -5 -6 -6c0 3 1 5 4 6c3 0 3 2 6 2c3 -3 4 -1 4 -4v-2c-3 -3 -5 -1 -8 4c-3 -4 3 -3 0 0c-3 -4 3 -3 0 0zM820 834c3 0 4 -1 4 -4s-1 -8 -4 -8c-3 3 -4 1 -4 4c0 1 0 2 1 2h1c0 3 2 3 2 6c3 0 0 -3 0 0c3 0 0 -3 0 0z
M860 286c0 3 3 10 6 10c1 -1 2 -3 2 -6s-2 -1 -2 -4c-1 -1 -3 -1 -6 0c0 3 4 -3 0 0c3 4 4 -3 0 0zM608 622c-3 7 -5 18 2 22c3 -8 1 -19 -2 -22c0 3 3 3 0 0zM778 738v-1c0 -1 -1 -1 -2 -1l-1 -1c-1 0 -1 0 -1 1c-1 -1 -2 -1 -2 -1v-1c-3 -3 -4 -3 -4 0c-3 8 7 4 10 4z
M816 34v4c0 1 1 2 4 2h6c-3 -3 -4 -1 -4 -4v-1c0 -1 -1 -1 -2 -1h-4zM816 690h2l6 -6c1 -4 -12 1 -12 4l1 1c1 0 2 1 3 1zM734 926c3 -4 2 -3 -2 -10c-8 8 3 10 2 10zM652 898h-2c-3 0 -4 1 -4 2c0 3 1 4 4 4h4v2c3 4 1 -5 -2 -8zM496 -179v-1c3 0 4 -1 4 -4
c-7 0 -8 4 -12 8c3 0 1 2 4 2c0 -3 2 -1 2 -4c1 -1 2 -1 2 -1zM852 784c1 0 2 0 3 1c1 0 1 0 1 1c3 -4 1 -11 -2 -14h-2c-2 4 -1 7 2 8c0 3 -2 1 -2 4c3 0 0 -3 0 0c3 0 0 -3 0 0zM578 402c-4 4 -5 7 -8 10c3 3 5 3 6 2c3 0 2 -8 2 -12c-4 4 0 3 0 0c-4 4 0 3 0 0zM872 800
c0 -3 -1 -4 -4 -4c-3 3 -4 7 -2 10l6 -6c0 -3 -3 3 0 0c0 -3 -3 3 0 0zM601 864h-1c-13 5 11 11 2 2c-1 -1 -1 -2 -1 -2zM564 390c0 5 1 9 4 12c4 0 1 -1 4 -4c-2 -3 -5 -6 -8 -8c0 7 3 0 0 0c0 7 3 0 0 0zM782 -2v4c0 4 5 5 8 8c0 -3 3 -3 0 -6c-7 -3 -5 -2 -8 -6zM870 788
c-1 -3 -2 -7 -2 -12c-4 -3 -4 9 0 12h2c-4 -4 -3 0 0 0c-3 -4 -3 0 0 0zM492 346c1 0 3 -1 6 -4l-6 -4l-4 4c0 3 1 4 4 4zM646 -174c0 3 2 6 6 8l2 -2c0 -8 -8 -3 -8 -6c0 4 4 0 0 0zM796 788c3 -4 2 -7 2 -10c-1 -1 -1 -2 -1 -2h-1l-1 -1c-1 0 -1 0 -1 1c0 4 0 7 1 8
c0 1 0 3 1 4zM672 662c0 -3 -1 -5 -2 -6c0 1 -1 2 -4 2c-8 0 -11 1 -4 4c41 -3 1 0 10 0c0 -3 -4 0 0 0zM838 304c3 -2 6 -5 8 -8c-3 -4 -5 1 -8 4c-1 1 -1 3 0 4c4 -3 -3 -3 0 0c4 -3 -3 -3 0 0zM816 38v2c-3 0 -5 1 -8 4c3 3 1 4 4 4c3 -3 7 -6 4 -10zM890 442
c-4 0 -5 2 -8 2c-1 0 -2 0 -2 1v1c0 1 1 2 4 2s4 -1 4 -4c1 0 2 -1 2 -2c-4 0 0 3 0 0c-4 0 0 3 0 0zM450 196l4 -8l-2 -2c-1 0 -2 0 -3 1c-1 0 -1 0 -1 1c-3 3 0 3 0 6v1c1 1 1 1 2 1c3 -4 -3 0 0 0c3 -4 -3 0 0 0zM806 404c4 -2 6 -5 6 -8h-4c-1 1 -2 4 -2 8
c4 -3 0 -4 0 0c4 -3 0 -4 0 0zM930 298v-2c-1 -1 -1 -2 -1 -2h-1c-1 0 -2 1 -2 2c-2 2 -2 4 0 6c0 1 0 1 1 1s1 0 1 -1c-7 7 -7 5 -4 2c1 -2 3 -4 6 -6zM762 140c0 -5 -1 -9 -2 -10h-2c-3 3 0 3 0 6s1 4 4 4c0 -4 -3 0 0 0c0 -4 -3 0 0 0zM548 394c-3 0 -5 -3 -8 0
c3 3 1 2 8 6c3 -3 0 -3 0 -6c-3 0 0 3 0 0c-3 0 0 3 0 0zM902 768c-2 4 -1 7 2 8c0 -3 1 -4 4 -4c-1 -3 -3 -4 -6 -4c0 3 4 0 0 0c0 4 4 0 0 0zM508 342c-3 0 -4 1 -4 4l1 1c1 0 2 1 3 1c3 0 3 -2 6 -2c-3 -7 -3 -4 -6 -4zM912 584c-1 0 -3 -1 -4 -2v-6h-2h-1
c-1 0 -1 1 -1 2v6c3 0 3 2 6 2v-1c0 -1 1 -1 2 -1zM792 424c3 -3 4 1 8 -2c0 -3 -2 1 -2 -2h-4v-4v-2c-1 0 -2 0 -2 1v1c0 3 -3 4 0 8c3 -3 -3 -4 0 0c3 -3 -3 -4 0 0zM388 386c-3 0 -3 2 -6 2c4 0 6 1 6 4c3 3 5 3 8 0l-5 -4l-3 -2c-3 0 3 3 0 0c-3 0 3 3 0 0zM738 914
l2 -2c-1 -1 -1 -2 -1 -2h-1c-3 0 -5 1 -8 2c0 1 0 2 1 2h1h6zM926 596c-3 3 -1 3 -4 6c-3 0 -3 2 0 2c0 3 1 4 4 4v-2c3 -3 0 -13 0 -10zM792 -18c-1 0 -2 1 -2 4c-1 0 -1 0 -1 1l1 1c0 1 1 2 4 2c3 -4 -2 -11 -2 -8c-3 0 3 3 0 0zM360 290c-3 0 -1 2 -4 2v4c1 1 2 2 3 2h1
l2 -2c0 -3 -1 -5 -2 -6c-3 0 3 3 0 0c-3 0 3 3 0 0zM754 772v-2c3 -4 -2 -11 -2 -8s-2 3 -2 6s1 4 4 4zM588 394l2 -2c1 -3 1 -4 -2 -4s-4 1 -4 2c0 3 1 4 4 4zM444 108c-1 0 -2 -1 -2 -2c-1 3 -3 5 -6 8v2h2c11 -7 6 -5 6 -8c-3 0 -3 3 0 0zM590 190c0 -4 1 -6 4 -6
c2 -2 2 -4 0 -6c-1 0 -2 1 -2 4c-1 0 -2 0 -2 1v1c-2 2 -2 4 0 6c0 -4 -3 -3 0 0c0 -4 -3 -3 0 0zM800 838c-3 -8 -1 -9 -8 -6c4 4 4 3 8 6zM924 422c4 -3 4 -1 4 -8h-4v2c-2 2 -2 4 0 6c4 -3 -3 -3 0 0c4 -3 -3 -3 0 0zM580 638c3 -3 1 -6 -2 -6h-2c-4 7 7 6 4 6zM790 284
c3 3 -2 6 2 6c1 0 2 -1 2 -4s-1 -4 -4 -4h-2v1c1 1 1 1 2 1zM660 716c-3 0 -4 1 -4 4s1 4 4 4s4 -1 4 -4c-3 -3 -1 -4 -4 -4zM966 270v-2c-7 4 -6 3 -6 -4c4 -2 6 0 6 6zM500 396h-8c-1 -1 -2 0 -4 2c4 3 6 -1 10 2c1 0 2 -1 2 -4c-3 0 0 3 0 0c-3 0 0 3 0 0zM612 436
c0 1 1 2 2 2c3 3 4 0 8 0c0 -5 -3 -5 -10 -2c0 3 4 -3 0 0c0 3 4 -3 0 0zM762 694c1 -1 2 -3 2 -4h6l-2 -2h-1c-1 0 -2 -1 -3 -2c-8 0 1 8 -2 8c3 -3 -3 -3 0 0zM874 768h-6c-4 0 0 11 4 4c1 -1 2 -3 2 -4c-3 0 0 3 0 0c-3 0 0 3 0 0zM800 692v-2h-10c-1 0 -2 0 -2 1v1v1
c1 1 1 1 2 1s3 -1 6 -1c1 -1 3 -1 4 -1c0 -3 -3 0 0 0zM566 414c1 -3 2 -5 2 -8l-2 -2h-2c-1 1 -1 2 -1 2h-1c3 3 1 5 4 8c3 -4 -3 -3 0 0c3 -4 -3 -3 0 0zM786 408c0 1 -1 2 -1 3l-1 1c0 3 1 5 2 6c1 -3 2 -5 2 -8l-2 -2c0 3 3 3 0 0c0 3 3 3 0 0zM550 580c0 3 -1 5 2 8
c7 0 2 -8 -2 -8c0 3 3 0 0 0c0 3 3 0 0 0zM828 752c3 3 4 5 4 6c1 0 2 -1 2 -2v-2c0 -1 -1 -3 -2 -4c-3 0 -1 2 -4 2c3 3 3 0 0 0c3 3 3 0 0 0zM796 822c-1 0 -2 0 -2 1v1l6 6v-2c0 -2 -1 -4 -2 -5s-1 -1 -2 -1zM850 812c-1 1 -1 2 -1 2h-1c0 3 1 4 2 4c3 3 4 2 4 -2l-4 -4
c0 3 3 3 0 0c0 3 3 3 0 0zM654 724c-3 0 -1 -1 -4 -4h-2c-1 0 -2 0 -2 1v1c1 1 2 3 2 4c1 1 3 1 4 0l2 -2c-3 0 -3 3 0 0zM754 750c-3 0 -4 1 -4 4c-3 0 -1 1 4 4v-8c-4 0 0 3 0 0c-4 0 0 3 0 0zM432 22c3 3 1 3 4 6c3 -3 1 -3 4 -6c-4 -3 -5 0 -8 0c3 3 3 0 0 0
c3 3 3 0 0 0zM836 710v4h-4v2c4 0 7 -1 8 -2c0 -3 -1 -1 -4 -4c0 3 3 3 0 0c0 3 3 3 0 0zM652 898c3 0 3 3 6 0s0 -4 0 -8c-4 3 -3 5 -6 8zM846 766v-4c-3 -3 -6 5 -2 8c3 0 5 -1 2 -4zM898 434h4c0 -3 -1 -5 -2 -6h-2c-2 2 -2 4 0 6zM488 400c-1 0 -2 -1 -3 -1l-1 -1
c-3 0 -5 1 -6 2v2c1 1 3 1 6 0l4 -2c-3 0 -4 3 0 0zM840 240l2 2c3 0 3 -2 6 -2c2 -3 1 -4 -4 -2l-1 1c-1 0 -2 1 -3 1c3 3 3 0 0 0c3 3 3 0 0 0zM686 790c-4 0 -5 3 -2 6c3 0 4 -1 4 -2l-2 -3c-1 -1 -1 -2 0 -1zM568 816l-2 2c0 4 2 9 2 6c1 -1 1 -2 1 -5
c-1 -1 -1 -2 -1 -3zM828 688c3 0 3 -2 6 -2c0 -3 -1 -5 -2 -6c-3 3 -4 5 -4 8c3 0 0 -3 0 0c3 0 0 -3 0 0zM564 602l-4 -4c-3 2 -4 4 -2 6c3 0 3 -2 6 -2c-3 0 -3 3 0 0c-3 0 -3 3 0 0zM536 858v-2c-3 0 -5 -1 -8 -2c3 -3 5 -2 8 -2c3 3 0 3 0 6zM508 336c-1 -1 -2 -3 -2 -6
c-10 2 -2 10 2 6c-3 -3 -3 3 0 0c-3 -3 -3 3 0 0zM672 792c2 -2 2 -4 0 -6c-3 0 -8 3 0 6c3 -3 -4 -3 0 0c3 -3 -4 -3 0 0zM654 408c0 -4 1 -3 4 -6c-3 -3 -10 0 -6 4l2 2c0 -4 -3 -3 0 0c0 -4 -3 -3 0 0zM880 776c-3 -7 -7 -1 -4 2s4 1 4 -2zM748 152v-2c0 -3 -1 -4 -4 -4
c-3 3 0 9 4 6zM480 430c3 0 4 -1 4 -2c1 -1 2 -1 2 -1v-1c-4 -7 -6 1 -6 4zM968 192c3 0 1 -1 4 -4c-3 0 -1 -2 -4 -2h-1c-1 0 -1 1 -1 2c-1 1 0 2 2 4c3 0 -3 -3 0 0c3 0 -3 -3 0 0zM610 54c-3 -2 -6 -2 -8 0c2 2 5 2 8 0zM814 30c-1 -1 -1 -2 -1 -2h-1c-7 0 -5 9 -2 6
l4 -4c0 -3 -3 3 0 0c0 -3 -3 3 0 0zM846 680c-3 0 -5 1 -6 2c2 2 5 2 8 0c-3 -3 -2 -5 -2 -2c-3 0 0 -3 0 0zM516 822c3 0 4 -1 4 -4v-2h-2c-3 3 -3 5 -2 6c4 0 -3 -3 0 0c4 0 -3 -3 0 0zM418 16v2h2c1 -1 2 -3 2 -6c-4 -3 -4 7 -4 4zM530 396h-8v2h4h6zM632 266
c1 -1 2 -3 2 -6c3 -3 0 -3 0 -6c-3 4 -2 4 -2 12c3 -3 0 -8 0 0c3 -3 0 -8 0 0zM574 388c-3 3 0 3 0 6h4v-4c-1 -1 -3 -2 -4 -2c-3 3 3 0 0 0c-3 3 3 0 0 0zM682 658c-1 -1 -2 -2 -3 -2h-1c-1 0 -2 0 -2 1v1v2c1 1 3 1 4 0l2 -2c-3 -3 -4 4 0 0zM718 138h4l2 -2
c0 -3 -1 -4 -2 -4h-2c0 3 -1 5 -2 6c3 0 3 -3 0 0c3 0 3 -3 0 0zM714 128v-2h-2c-4 4 2 9 2 2zM686 900c3 0 5 -1 2 -4c-2 -2 -3 -2 -3 0c0 1 0 3 1 4c4 -3 -3 -3 0 0zM784 868h-2v2c0 1 1 1 4 1c1 -1 1 -1 2 -1c-1 -1 -3 -2 -4 -2zM820 754c1 3 2 5 2 8c7 -3 5 -11 -2 -8
c3 4 3 0 0 0c3 4 3 0 0 0zM544 154c-2 4 -1 6 2 6s1 -2 4 -2c-3 -4 -3 -1 -6 -4c0 3 3 3 0 0c0 3 3 3 0 0zM902 324c0 -3 2 -1 2 -4l-2 -2c-3 0 -4 1 -4 4l1 1c1 0 2 1 3 1c0 -3 -3 0 0 0c0 -3 -3 0 0 0zM560 -40h1c1 -1 1 -1 1 -2l-2 -2c-1 0 -2 1 -2 2v1c1 1 1 1 2 1z
M830 312c-1 -1 -3 -2 -4 -2l-4 4v4c5 -8 8 -9 8 -9s-1 3 0 3c-3 -3 -3 0 0 0zM794 602c-3 0 -1 -2 -4 -2l-1 1c-1 0 -2 1 -3 1c0 1 0 2 1 2h1c3 0 5 -1 6 -2c-3 0 -3 3 0 0c-3 0 -3 3 0 0zM426 84h-2c0 3 -1 5 -2 6l2 2h2v-2v-6zM740 768c0 3 1 2 4 6c0 -3 1 -5 2 -6
c-1 -1 -2 -1 -2 -1v-1c-3 0 -4 1 -4 2zM430 48c-4 7 2 9 2 6s2 -3 -2 -6c-3 3 4 3 0 0c-3 4 4 3 0 0zM724 374l2 2c0 -3 2 -1 2 -4c0 -7 -1 -8 -4 -4v6zM600 370c-1 -1 -2 -2 -3 -2h-1c-1 -1 -2 -1 -2 -1v-1c-3 3 -3 4 0 4c2 2 4 2 6 0c-3 -3 -3 3 0 0zM880 790h2l2 -2
c3 -6 -8 0 -4 2zM640 788c-4 3 1 4 4 4v-2c-1 -1 -3 -2 -4 -2zM788 790c-3 -4 -4 -5 -4 -2s1 4 2 4v2c1 -1 2 -3 2 -4zM806 682c-3 0 -5 1 -6 4h2c3 0 4 -1 4 -4c-4 0 0 4 0 0c-4 0 0 4 0 0zM446 176c-1 -1 -2 -1 -2 -1v-1h-2c-3 0 -3 3 0 6h2v-2c1 0 2 -1 2 -2
c-3 0 0 3 0 0c-3 0 0 3 0 0zM602 194c-2 3 -2 6 0 8c3 -3 3 -5 0 -8zM564 818v-2v-1c0 -1 -1 -1 -2 -1v2v4c1 1 2 1 2 -2zM728 -94c-3 3 0 4 0 8c1 -1 2 -3 2 -6v-1c0 -1 -1 -1 -2 -1c-3 3 3 0 0 0c-3 3 3 0 0 0zM652 -38c0 -1 -1 -2 -2 -2c0 -3 -1 -3 -4 0c-3 7 9 2 6 2
c0 -3 -3 0 0 0zM778 690c1 0 3 1 4 2h2c0 -3 -2 -3 -2 -6l-4 4c3 0 3 -3 0 0c3 0 3 -3 0 0zM726 302v-2v-2h-2l-2 2c0 1 1 3 2 4v-1c0 -1 1 -1 2 -1zM630 276c-3 3 1 3 -2 6c0 1 0 2 1 2h1h1c1 -1 1 -1 1 -2c0 -3 -1 -5 -2 -6c-3 3 3 3 0 0c-3 3 3 3 0 0zM508 418h-4h-2v2
c1 1 2 1 3 1s1 0 1 -1c1 0 2 -1 2 -2c-3 0 0 3 0 0c-3 0 0 3 0 0zM872 282l-2 -2h-4v2l2 2c3 0 1 -2 4 -2c-3 -3 -3 0 0 0c-3 -3 -3 0 0 0zM666 528c-1 3 -2 7 -2 12c0 -4 9 -9 2 -12zM356 310l4 -4l-2 -2h-2v2v4zM804 262h2v-4c-4 0 -6 1 -2 4zM400 376c-3 5 -3 8 0 8
c1 -1 1 -3 1 -6c0 -1 0 -2 -1 -2c-3 3 3 3 0 0zM724 -66v2c0 1 1 2 2 2c0 3 2 1 2 -2c0 -1 -1 -2 -4 -2zM550 188c1 -1 1 -2 1 -3s0 -1 -1 -1h-2c-7 -3 5 4 2 4zM836 258c-7 0 -1 8 2 4c0 -3 -1 -4 -2 -4zM858 644h6v-2v-2c-1 0 -3 1 -6 4c3 0 3 -3 0 0c3 0 3 -3 0 0z
M826 68c-4 7 4 9 4 6c0 -1 -1 -3 -4 -6c-3 3 3 3 0 0c-3 4 3 3 0 0zM874 570h2l1 -1c0 -1 1 -2 1 -3h-2c-3 0 -5 1 -2 4zM432 366c3 3 5 3 8 0c-2 -2 -5 -2 -8 0zM922 582c-3 3 -3 5 -2 6s2 0 2 -2v-4c-3 3 3 3 0 0c-4 4 3 3 0 0zM702 918v2c-3 3 -1 4 2 4l2 -2
c0 -3 -1 -1 -4 -4c0 3 3 3 0 0c0 3 3 3 0 0zM617 696h1v-6c-3 0 -4 1 -4 4c1 1 2 2 3 2zM792 682h-2h-2v2c-3 0 -3 2 0 2h1c1 -1 1 -1 1 -2h1c1 -1 1 -1 1 -2c-3 0 0 3 0 0c-3 0 0 3 0 0zM492 404v2c-3 0 -1 1 -4 4c2 2 4 1 6 -4v-1c0 -1 -1 -1 -2 -1zM492 -172
c-3 0 -4 1 -4 4c-3 0 -3 2 0 2h2c0 -3 2 -3 2 -6c-3 0 0 3 0 0c-3 0 0 3 0 0zM538 30h6v-2c-3 0 -4 -1 -4 -2c-1 0 -2 1 -2 4c3 0 0 -3 0 0c3 0 0 -3 0 0zM696 590l-2 -2c-3 0 -4 1 -4 2v1c1 1 1 1 2 1s2 -1 3 -1zM538 172c-1 -1 -2 -2 -3 -2h-1c-1 0 -2 1 -2 2l2 2l2 -2h2
c-3 -3 -3 0 0 0c-3 -3 -3 0 0 0zM790 -48v2c4 0 7 -1 8 -2h-8c0 3 3 0 0 0c0 3 3 0 0 0zM812 48c-1 0 -1 0 -1 1s0 2 1 3l2 2c1 0 2 -1 2 -2v-2c-3 0 -1 -2 -4 -2zM444 186v-2h-4v2c0 1 1 2 4 2v-2zM896 460c0 4 2 4 2 0c3 -4 -2 -4 -2 0zM958 244l-2 -2c-3 0 -5 1 -2 4
s4 1 4 -2zM650 888v-2h-2c-2 2 -2 4 0 6c0 -3 2 -1 2 -4zM634 106v-4c-4 7 -3 7 0 4zM916 594c3 -2 3 -5 0 -8v8c4 -3 0 -3 0 0c7 -3 0 -3 0 0zM468 -38c0 -1 -1 -2 -1 -3l-1 -1c-4 0 -5 1 -2 4s7 0 4 0c0 -3 -3 0 0 0zM892 450c1 1 2 3 2 4h4v-2v-2h-6c3 3 3 0 0 0
c3 3 3 0 0 0zM854 314h-6c-4 3 3 0 6 0c-3 0 -3 3 0 0c-3 0 -3 3 0 0zM975 212h1c4 -3 2 -4 -2 -4c-1 1 -1 2 0 2c0 1 0 2 1 2zM514 160c4 -3 -2 -11 -2 -4c0 3 2 1 2 4c3 -3 0 -3 0 0zM820 114c2 -5 1 -7 -2 -6v2c0 3 2 1 2 4c3 -4 0 -3 0 0zM416 70c-1 1 -2 3 -2 4
c-3 0 -3 2 0 2c1 0 2 -1 2 -2v-4c-3 3 0 3 0 0c-3 3 0 3 0 0zM424 68c-1 1 -1 2 -1 2h-1c-1 0 -2 0 -2 1v1c5 3 7 1 4 -4zM612 -190h2c3 0 3 -1 0 -4c0 3 -2 1 -2 4zM600 270c-1 1 -2 3 -2 6c3 0 5 -1 6 -2l-4 -4c-3 3 3 3 0 0c-3 3 3 3 0 0zM526 532c1 -1 2 -3 2 -4
c-3 -2 -5 -2 -4 0c0 1 1 2 2 4zM876 286l2 -2c1 -1 2 -3 2 -4h-2c-1 0 -2 1 -2 3v3c3 -3 0 -3 0 0zM746 713v-1c-1 -1 -1 -2 -1 -2h-1c-1 0 -2 0 -2 1v1c0 1 0 2 1 2h1c1 -1 2 -1 2 -1zM740 892c1 0 2 -1 2 -2v-2c-1 -1 -1 -2 -1 -2h-1c-2 2 -2 4 0 6zM858 678
c-1 3 -2 5 -2 6c0 3 2 3 2 0c1 -1 1 -2 1 -4c-1 -1 -1 -1 -1 -2c-3 4 0 3 0 0zM652 804h-2c-3 3 -3 4 0 4c1 0 2 -1 2 -4zM804 828l-2 2c0 1 1 2 4 2h1c1 -1 1 -1 1 -2s-1 -2 -4 -2zM730 646h8v-2c-4 0 -7 1 -8 2zM612 652c3 -3 3 -5 0 -8v8c3 -3 -3 -3 0 0c3 -4 -3 -3 0 0z
M590 684c-1 0 -2 -1 -2 -2h-2v2c0 3 1 4 2 4c0 -1 1 -3 2 -4c-3 0 -3 3 0 0c-3 0 -3 3 0 0zM784 -90v-1c0 -1 -1 -1 -2 -1c-3 3 -3 4 0 4c1 0 2 -1 2 -2zM890 434c-3 0 -3 1 0 4c5 0 5 -1 0 -4zM694 -146c1 -3 1 -5 0 -6c-1 1 -1 3 0 6zM582 192c-1 -3 -3 -4 -6 -4v2
c1 0 3 1 4 2c0 -1 0 -1 1 -1s1 0 1 1c-3 -4 -3 0 0 0zM652 794v-6c0 -3 -3 3 0 6c0 -3 -3 -3 0 0c0 -3 -3 -3 0 0zM790 880c1 3 4 4 8 2c0 -2 -1 -3 -4 -3c-1 0 -3 0 -4 1zM698 588c1 1 3 1 4 0c0 -3 -1 -4 -2 -4c-1 1 -2 3 -2 4c3 4 0 -3 0 0zM594 866c-1 0 -2 0 -2 1v1v2
c1 1 2 1 2 1v-1c1 -1 1 -3 0 -4c-3 0 3 3 0 0c-3 0 3 3 0 0zM534 828l-2 -2c-1 -1 -3 -1 -4 0c2 3 4 4 6 2c-3 -3 -3 0 0 0c-3 -3 -3 0 0 0zM888 560v-2l-2 2c0 3 1 3 2 2l1 -1c0 -1 0 -1 -1 -1zM520 478c-1 1 -2 3 -2 6h2l2 -2c-1 0 -2 -1 -2 -4c-3 3 0 3 0 0c-3 3 0 3 0 0
zM382 362v4c3 0 4 -1 4 -2v-1c0 -1 -1 -1 -2 -1h-2zM456 -36c0 -3 -1 -4 -2 -4c-4 3 -2 1 2 4c0 -4 -3 -3 0 0c0 -4 -3 -3 0 0zM452 -22c4 -7 -2 -8 -2 -4c0 1 1 3 2 4c3 -3 -3 -3 0 0c3 -4 -3 -3 0 0zM670 722l-2 -2c-1 0 -2 1 -2 2v1c1 1 1 1 2 1h2v-2zM672 840h2
c3 -10 -7 3 -2 0zM688 592h-8v2h2c1 0 3 -1 6 -2c-4 0 -4 3 0 0c-4 0 -4 3 0 0zM718 894l1 1c1 0 2 1 3 1l2 -2h-2c-1 -1 -2 -1 -3 -1s-1 0 -1 1zM556 598l4 -4c-4 -4 -7 0 -4 4zM568 600h2c0 -5 -1 -7 -4 -4c0 3 1 4 2 4zM782 696h-6c0 1 1 2 2 2s3 -1 4 -2c-3 0 -3 3 0 0
c-3 0 -3 3 0 0zM856 758h2v-2c3 -3 0 -1 0 -4h-2v6zM586 698c-3 3 -2 4 2 4c0 -1 -1 -3 -2 -4c-3 3 4 3 0 0c-3 4 4 3 0 0zM778 606h4v-6c-3 1 -4 3 -4 4c-1 1 -1 1 0 2c3 0 0 -3 0 0zM576 172c-2 6 -1 7 2 4v-1c0 -1 -1 -2 -2 -3c0 3 3 3 0 0c0 3 3 3 0 0zM791 874h1
c-3 0 -1 -3 -4 0h-1c-1 0 -1 1 -1 2h2c0 1 0 1 1 1s1 0 1 -1s0 -2 1 -2zM632 438l2 -2c-3 0 -3 -3 -6 0v2c1 1 3 1 4 0zM914 306c11 0 1 -1 4 -4c0 3 -1 1 -4 4c4 0 3 -3 0 0c8 0 3 -3 0 0zM774 608h-4h-1c-1 0 -1 1 -1 2h2c1 0 3 -1 4 -2c-3 0 -3 3 0 0c-3 0 -3 3 0 0z
M412 392h4v-2h-4h-1c-1 0 -1 1 -1 2h2zM898 598h4c0 -3 3 -1 0 -4c-3 0 -1 1 -4 4c3 0 3 -3 0 0c3 0 3 -3 0 0zM966 244v-6c-4 7 -3 9 0 6zM798 278c1 -1 2 -3 2 -4v-1c0 -1 -1 -1 -2 -1l-2 2c0 3 2 1 2 4c3 -3 0 -3 0 0c3 -3 0 -3 0 0zM716 182h-1c-1 0 -1 -1 -1 -2l2 -4
c2 2 2 4 0 6zM856 508c1 -1 2 -1 2 -1v-1c-3 -1 -3 -1 -2 2zM580 840h-1c-1 0 -1 1 -1 2l2 2c1 -1 2 -1 2 -1v-1c0 -1 -1 -2 -2 -2zM792 -4l2 2h2v-2v-2h-2c-1 0 -2 0 -2 1v1zM808 762h2v-2c0 -1 -1 -2 -2 -2h-2c0 3 1 4 2 4zM569 55l1 -1c0 -5 -1 -5 -4 0c0 1 1 1 3 1z
M608 884c3 -8 4 -3 4 0h-4zM708 174c0 -1 0 -2 1 -2h1c0 -1 -1 -2 -2 -2c-4 3 -3 1 0 4zM766 878c-1 1 -2 3 -2 6c3 -3 3 -5 2 -6zM824 594c-4 -2 -6 -2 -6 0c1 1 2 1 4 1c1 0 1 0 2 -1c-4 -3 -4 3 0 0zM566 328h2c0 -3 -1 -4 -2 -4l-2 2v1c1 1 1 1 2 1zM532 548
c-3 -3 -4 -3 -4 -2c-3 7 4 -1 4 2c-3 -3 -3 0 0 0zM798 846c-3 3 0 5 0 8h2c0 -4 -2 -5 -2 -8zM900 606c-1 -1 -3 -2 -4 -2s-2 0 -2 1v1c0 1 0 2 1 2h1c3 0 1 -2 4 -2c-3 -3 -3 0 0 0c-3 -3 -3 0 0 0zM730 714c0 -4 -1 -5 -4 -2c0 1 1 2 4 2c0 -3 -4 0 0 0zM802 16
c-1 1 -1 2 -1 2h-1c0 3 1 4 2 4c1 -1 1 -2 1 -4c0 -1 0 -1 -1 -2zM692 792v-1c0 -1 1 -1 2 -1l-2 -2c-4 3 0 7 0 4zM566 -34h2h2c3 0 3 -2 0 -2h-2h-1c-1 0 -1 1 -1 2zM910 450c-1 -1 -1 -2 -1 -2h-1c-1 1 -1 2 -1 3s1 1 3 -1zM566 514c-1 0 -2 1 -2 4c3 -1 3 -3 2 -4z
M562 -192c0 -3 2 -3 2 -6h-2v6c3 -4 0 -4 0 0c4 -11 0 -4 0 0zM556 -32v6c1 -3 1 -5 0 -6zM716 -28c-3 0 -1 -2 -4 -2v2c-1 1 -1 2 2 2l2 -2c-3 0 -3 3 0 0c-3 0 -3 3 0 0zM622 578v-2v-2c-3 0 -5 1 -2 4h2zM762 756v-6c0 1 -1 2 -1 3l-1 1c0 1 1 2 2 2zM804 596
c3 1 5 1 8 -2h-2c-3 0 -5 1 -6 2c4 3 3 -3 0 0c4 3 3 -3 0 0zM524 414v2c3 0 1 3 4 0v-2h-4zM662 792v-2c-1 -1 -1 -2 -1 -2h-1l-2 2c1 1 3 2 4 2zM826 24l-2 -2c-4 3 -2 5 2 2c-3 -3 -3 0 0 0c-3 -3 -3 0 0 0zM668 216c1 1 2 2 3 2h1c1 -1 2 -1 2 -1v-1h-2c0 -3 -1 0 -4 0
c3 3 3 0 0 0c3 3 3 0 0 0zM738 -68v-2l1 -1c0 -1 0 -1 -1 -1s-2 0 -2 1v1c0 1 1 2 2 2zM528 558c0 3 1 4 4 4c1 -1 1 -3 0 -4h-4c0 4 3 0 0 0c0 4 3 0 0 0zM892 794h2c0 -1 -1 -3 -2 -4c-1 0 -2 0 -2 1v1c0 1 1 2 2 2zM474 362h2h1c1 -1 1 -1 1 -2h-2c-1 0 -2 1 -2 2z
M574 188v-2c-3 -1 -4 -1 -4 2c1 1 2 1 3 1s1 0 1 -1zM728 -56h4l2 -2l-1 -1c-1 0 -1 0 -1 1c-3 0 -4 1 -4 2c3 0 0 -3 0 0c3 0 0 -3 0 0zM654 2l-2 -2c-1 0 -2 1 -2 2c-3 0 -1 2 2 2c0 -1 1 -2 2 -2c-3 -3 -3 0 0 0c-3 -3 -3 0 0 0zM784 276c-3 4 -1 6 2 2c0 -1 -1 -2 -2 -2
c-3 3 3 0 0 0zM796 284c3 1 5 1 6 0c-1 -1 -2 -2 -3 -2h-1l-2 2c3 0 3 -3 0 0zM594 688c-1 1 -2 3 -2 4c1 3 2 0 2 -1v-3c-3 3 0 3 0 0c-3 3 0 3 0 0zM448 98c-1 -1 -1 -2 -1 -2h-1l-1 -1c-1 0 -1 0 -1 1v1c1 1 1 1 2 1h2c0 -3 -3 0 0 0zM844 10c4 -3 2 -3 2 -6
c-1 0 -2 0 -2 1v1v4c4 -3 0 -3 0 0c4 -3 0 -3 0 0zM702 786h-1c-1 0 -1 1 -1 2h-2c0 1 0 2 1 2h1h1c1 -1 1 -1 1 -2v-2zM828 22c1 0 3 1 4 2c-1 0 -3 -1 -4 -2zM878 812h2c3 0 3 -2 0 -2h-2v2zM822 46l-2 2c0 1 1 2 2 2h1c1 -1 1 -1 1 -2h-1c-1 0 -1 -1 -1 -2c-3 3 0 3 0 0
c-3 3 0 3 0 0zM700 822c1 -1 1 -3 0 -4c-1 1 -1 3 0 4zM810 680c0 1 -1 2 -1 3l-1 1h2c1 -1 1 -3 0 -4c0 3 3 3 0 0c0 3 3 3 0 0zM815 282h1c1 -1 1 -3 0 -4c-1 0 -2 1 -2 2s0 2 1 2zM604 280c0 3 6 4 6 0h-6c4 3 4 0 0 0zM528 578l2 2h2c4 -3 -4 1 -4 -2c3 3 3 0 0 0z
M864 690c7 0 6 1 6 -2c-3 0 -5 1 -6 2zM562 -188c3 0 1 3 4 0c-1 -1 -3 -1 -4 0zM510 398h2c7 3 3 -5 0 -2l-2 2c3 0 3 -3 0 0c3 0 3 -3 0 0zM580 590c-3 3 -1 4 2 4v-2c0 -1 -1 -2 -2 -2zM612 798c3 -3 5 -1 2 -4c0 -3 -1 -3 -1 0c-1 1 -1 2 -1 4c3 -3 0 -3 0 0zM876 300
v-2v-2h-2c0 3 1 4 2 4c0 -3 -3 0 0 0c0 -3 -3 0 0 0zM670 180c0 -1 -1 -2 -4 -2v2c14 3 0 0 4 0zM474 180c-4 -3 -6 -1 -2 2c0 -1 1 -2 2 -2c-3 -3 -3 0 0 0c-3 -3 -3 0 0 0zM492 184c0 3 -2 1 -2 4c1 1 2 1 2 1v-1c1 -1 1 -3 0 -4c0 3 3 3 0 0c0 3 3 3 0 0zM812 4v-2v-2h-2
c-1 1 -1 3 2 4zM682 634c0 1 -1 2 -2 2c0 1 0 2 1 2h1c3 0 3 -1 2 -2l-2 -2c0 3 3 3 0 0c0 3 3 3 0 0zM730 258h-4v2h2c1 0 2 -1 2 -2zM814 724h-2c-4 0 2 7 2 0c-3 0 0 3 0 0zM582 270c3 -3 0 -3 0 -6c-1 3 -1 5 0 6zM726 768c4 3 6 3 2 0h-2c0 3 3 0 0 0c0 3 3 0 0 0z
M688 -44c-1 1 -1 3 0 4c1 0 1 -1 0 -4c-3 3 0 3 0 0c-3 3 0 3 0 0zM660 624v4c1 0 1 -1 0 -4zM834 730v-1c0 -1 1 -1 2 -1c-1 -1 -2 -1 -3 -1s-1 1 1 3zM446 -56c-1 1 -1 3 0 4h2c0 -3 -1 -4 -2 -4c-3 3 3 0 0 0c-3 3 3 0 0 0zM832 798h-2c-1 -1 -2 -1 -2 -1v1c0 1 1 1 2 1
c1 -1 1 -1 2 -1c-3 0 -3 3 0 0zM760 156c-4 3 -2 3 -2 6h1c1 -1 1 -1 1 -2v-4c-4 3 0 3 0 0c-4 3 0 3 0 0zM440 124c-1 1 -1 3 0 4c1 -1 1 -3 0 -4zM682 170c1 -1 2 -2 2 -3v-1c-3 0 -3 1 -2 4c3 -3 0 -3 0 0c3 -3 0 -3 0 0zM576 206c0 3 1 3 4 2c-3 0 -1 -2 -4 -2zM674 210
c-1 -1 -3 -1 -4 0c1 1 2 1 3 1s1 0 1 -1c-3 -3 -3 3 0 0zM812 672c-1 1 -1 2 -1 2h-1c0 1 1 2 2 2c0 1 0 1 1 1l1 -1c0 -3 -2 -1 -2 -4zM592 404c-1 -1 -1 -2 -1 -2h-1h-1c-1 0 -1 1 -1 2v2c3 0 4 -1 4 -2zM756 432c-1 -1 -1 -2 -1 -2h-1h-1c-1 0 -1 1 -1 2c3 3 2 1 3 1
c0 -1 0 -1 1 -1zM568 638c1 -1 2 -2 2 -3v-1l-2 4c3 -3 0 -3 0 0zM698 906c-1 0 -2 1 -2 4c3 -1 3 -3 2 -4zM708 771v-1c-3 -3 -4 -2 -4 2h1c1 1 1 1 1 2v-2c1 -1 2 -1 2 -1zM690 738h-2c-3 0 -1 3 2 0c-3 0 0 3 0 0zM910 560c-1 0 -2 1 -2 4h2v-4c-3 0 0 3 0 0
c-3 0 0 3 0 0zM442 -72c1 -1 2 -3 2 -4c-3 0 -5 1 -2 4c3 -3 0 -3 0 0c3 -3 0 -3 0 0zM838 360h-6l2 2c1 0 3 -1 4 -2c-3 0 -3 3 0 0c-3 0 -3 3 0 0zM910 598v-2l-2 -2v2c0 1 1 2 2 2zM774 624c4 -4 0 -7 0 -4v4c3 -3 0 -3 0 0zM528 358c0 -1 -1 -2 -2 -2c-4 3 5 2 2 2z
M544 572c-1 0 -2 0 -2 1v1c0 1 0 2 1 2h1c3 -3 -3 -4 0 -4zM509 -171l-1 -1c0 3 1 3 2 2h2c-1 0 -2 -1 -3 -1zM680 -170c0 -1 1 -2 2 -2c-1 -1 -1 -2 -1 -2h-1h-2c0 1 1 3 2 4c0 -3 -3 -3 0 0c0 -3 -3 -3 0 0zM668 600h4h2v-2h-4l-2 2c3 0 3 -3 0 0c3 0 3 -3 0 0zM594 346
l-2 2c3 4 5 2 2 -2c-3 3 0 3 0 0c-3 3 0 3 0 0zM894 584c-1 1 -1 2 -1 2h-1c0 3 2 5 2 2c1 0 1 -1 1 -2s0 -1 -1 -2zM844 90l2 -2c0 -1 -1 -2 -2 -2h-1c-1 0 -1 1 -1 2c1 0 2 1 2 2c3 -3 0 -3 0 0c3 -3 0 -3 0 0zM420 80h2l2 -2h-1c-1 0 -1 -1 -1 -2l-2 2v2zM448 66
c-1 0 -2 -1 -2 -2c-1 1 -1 2 -1 2h-1c0 1 0 2 1 2h1l2 -2c-3 0 -3 3 0 0c-3 0 -3 3 0 0zM838 658v2c-1 0 -1 0 -1 1s0 1 1 1c1 -1 2 -1 2 -1v-1v-1c0 -1 -1 -1 -2 -1c0 3 3 0 0 0c0 3 3 0 0 0zM906 462c0 -3 3 -3 0 -6c-2 2 -2 4 0 6zM784 808c-1 1 -2 3 -2 6
c1 -1 2 -3 2 -6zM688 814c1 0 2 -1 2 -4h-2c0 3 -3 4 0 4zM726 234v6c1 -1 1 -2 1 -4c0 -1 0 -1 -1 -2c-3 3 0 3 0 0zM884 594h2c0 -1 -1 -2 -2 -2h-1c-1 0 -1 1 -1 2s0 1 1 1s1 0 1 -1zM436 36l2 -2v-1c0 -1 -1 -1 -2 -1c-1 1 -1 3 0 4zM524 26v2h2v-2l-1 -1
c-1 0 -1 0 -1 1zM642 640v4c1 0 1 -1 1 -2s0 -1 -1 -2zM570 376c-1 1 -1 2 -1 2h-1c3 1 3 1 2 -2c0 3 3 3 0 0c0 3 3 3 0 0zM568 340l-2 2l2 2l2 -2v-1c0 -1 -1 -1 -2 -1zM718 792h-2h-2l2 2h1c1 -1 1 -1 1 -2zM832 324c-1 -1 -3 -1 -4 0c1 1 2 1 3 1s1 0 1 -1zM694 344v2h2
v-1c0 -1 -1 -1 -2 -1zM798 758v2h2c0 -1 -1 -2 -2 -2zM638 284l-2 -2c-3 0 -1 2 2 2c-3 -3 -3 0 0 0zM720 708c0 1 1 2 2 2c3 -3 -5 -2 -2 -2c0 3 3 0 0 0zM459 190h3v-1c0 -1 -1 -1 -2 -1c-3 1 -2 2 -1 2zM712 360c-1 0 -2 -1 -2 -2c-1 0 -2 0 -2 1v1c0 1 1 2 2 2l2 -2
c-3 0 -3 3 0 0c-3 0 -3 3 0 0zM482 240c0 -1 0 -1 -1 -1c-1 -1 -2 -1 -3 -1c0 1 1 2 2 2c0 3 5 0 2 0zM702 786h1c1 -1 1 -1 1 -2c-4 0 -5 2 -2 2zM656 780c0 4 1 5 2 2h-1c-1 0 -1 -1 -1 -2c-3 3 0 3 0 0c-3 3 0 3 0 0zM380 116c-1 -1 -1 -2 -1 -2h-1c-3 3 -1 5 2 2
c0 -3 -3 0 0 0c0 -3 -3 0 0 0zM580 608v4h1c1 1 1 1 1 2c0 -1 -1 -3 -1 -4c-1 -1 -1 -1 -1 -2c0 3 3 3 0 0zM516 542c0 4 3 4 0 0zM904 542h-2c-1 0 -1 0 -2 -1v-1v-2zM570 588v-1c0 -1 -1 -1 -2 -1c0 3 1 3 2 2zM594 656v-6c-1 1 -2 3 -2 4l2 2c0 -3 -3 -3 0 0
c0 -3 -3 -3 0 0zM666 584v2c3 -4 0 -5 0 -2zM534 -182l2 -2v-2c-1 0 -2 1 -2 2v2zM816 16h-2c-3 0 -2 7 2 0c-3 0 -3 3 0 0c-3 0 -3 3 0 0zM768 -108c1 -3 1 -4 0 -4c-3 0 -3 1 0 4c3 -3 0 -3 0 0c4 -7 0 -3 0 0zM676 -18c1 0 2 1 2 2c-1 0 -2 -1 -2 -2zM712 582
c1 0 3 -1 4 -2c-3 0 -4 1 -4 2zM830 -32h-2v2c0 1 0 2 1 2h1h1c0 -1 0 -1 -1 -2v-2zM614 180h2c0 -3 -2 -5 -2 -2c-1 1 -1 2 0 2zM768 698v-2v-2c-1 0 -1 1 -1 2s0 1 1 2c0 -3 -3 -3 0 0zM582 408l-2 2h2c1 0 1 -1 0 -2zM676 166v6c1 -1 1 -3 0 -6zM874 620c-4 4 -3 7 0 4
v-4c-3 3 0 3 0 0zM492 422h2c-1 -1 -1 -2 -1 -2h-1h-1c-1 0 -1 1 -1 2h2zM886 598c-1 1 -2 3 -2 4h2v-4c-3 3 0 3 0 0c-3 3 0 3 0 0zM412 152c-1 0 -2 0 -2 1v1c0 1 0 2 1 2h1c3 -3 3 -4 0 -4zM744 900c-3 0 -1 2 -4 2l2 2c1 0 2 -1 2 -4c-3 0 0 3 0 0c-3 0 0 3 0 0z
M648 -48l2 -2v-1c0 -1 -1 -1 -2 -1v2v2c3 -3 0 -3 0 0c3 -3 0 -3 0 0zM452 -46c1 -1 1 -3 0 -4v2c-1 0 -1 1 0 2zM610 798c-4 -4 -5 5 -2 2h1c1 -1 1 -1 1 -2c-3 -3 0 3 0 0zM890 610l-2 -2h-1c-1 0 -1 1 -1 2h1c1 1 1 1 1 2c0 -1 1 -2 2 -2c-3 -3 -3 0 0 0c-3 -3 -3 0 0 0z
M694 676v2c1 -1 3 -2 4 -2c0 -1 -1 -1 -4 0zM708 142h-2c0 3 1 4 2 4v-4zM600 -42l2 2h1c1 -1 1 -1 1 -2h-2h-2c3 3 3 0 0 0c3 3 3 0 0 0zM640 278h-2c0 3 1 3 2 0zM911 284h-1c1 0 2 0 2 1v1c0 -1 0 -2 1 -2h1l-2 -2c-1 1 -1 2 -1 2zM754 890l-2 -2v2h2zM654 322h2
c0 -1 -1 -2 -2 -2v2zM716 908v4v-2v-2zM510 186h-2c-1 0 -2 1 -2 2h2v-1c0 -1 1 -1 2 -1zM978 188h-2h-2c1 0 2 0 2 1v1h1c1 -1 1 -1 1 -2zM550 162h2c-1 -1 -1 -2 -1 -2h-1v2zM560 160v-2h-2v2h2zM620 798c-3 0 -3 1 -2 2l2 -2c-3 0 -3 3 0 0c-3 0 -3 3 0 0zM710 149v1
c0 -3 -1 -3 -2 -2c1 0 2 0 2 1zM632 198c-4 0 -3 3 0 0zM618 790h2l-2 -2l-2 2h2zM372 144c0 7 3 0 0 0zM434 136v2h1c1 -1 1 -1 1 -2h-2zM560 220v-2v-2l-2 2v1c1 1 1 1 2 1zM810 110l-2 2c-3 0 -1 2 2 2v-2v-2c-3 3 0 3 0 0c-3 3 0 3 0 0zM590 88v2c3 -3 3 -5 0 -2z
M640 224v-2v-2h-2c0 1 1 3 2 4zM416 226v-2h-1c-1 0 -1 1 -1 2h2zM834 58h-2v2c1 0 2 -1 2 -2zM800 816c-3 -3 -3 7 0 0zM482 24h2c-1 -1 -1 -2 -1 -2h-1l-2 2h2zM888 244v-4c-1 1 -1 2 -1 2h-1h1c1 1 1 1 1 2zM466 14h2v-1c0 -1 -1 -1 -2 -1v1c-1 1 -1 1 -2 1h2zM800 -18h2
v-2h-1c-1 0 -1 1 -1 2zM630 268l2 2h2l-2 -2h-2zM616 850v-1c0 -1 -1 -1 -2 -1c-1 1 -1 1 -1 2c0 2 1 2 3 0zM562 -38c0 3 1 4 2 4c0 -3 -2 -1 -2 -4c-3 3 0 3 0 0zM454 -54h-2c0 3 1 3 2 0c-3 0 -3 3 0 0c-3 0 -3 3 0 0zM754 -58c-1 -1 -3 -2 -4 -2h-2l2 2h4
c-3 -3 -3 0 0 0zM520 338v-1c0 -1 -1 -1 -2 -1l-2 2c0 1 1 1 2 1s1 0 2 -1zM722 578l-2 -2c-1 0 -2 0 -2 1v1h2h2c-3 -3 -3 0 0 0c-3 -3 -3 0 0 0zM674 516l-2 -2c0 1 0 2 1 2h1z" />
    <glyph glyph-name="D" unicode="D" horiz-adv-x="541" 
d="M46 624c-7 47 -28 106 18 116c17 4 31 -6 43 -22c16 66 52 115 116 116c154 4 245 -374 262 -518c11 -84 61 -370 -66 -374c-105 -3 -141 211 -205 221c-9 1 -18 -1 -27 -8c3 -58 0 -115 -8 -178c-7 -60 -29 -72 -61 -71c-25 1 -36 28 -39 43s7 114 7 143
c0 101 -5 326 -40 532zM171 346l8 -97c10 7 23 11 40 11c65 0 122 -103 149 -151c14 -25 20 -72 38 -68c39 9 23 199 -18 377c-37 160 -96 310 -140 310c-70 0 -91 -156 -71 -235c24 -97 77 -142 123 -158c61 -21 61 -78 -12 -63c-50 10 -88 38 -117 74z" />
    <glyph glyph-name="A" unicode="A" horiz-adv-x="521" 
d="M379 93c-18 60 -23 128 -29 171c-27 -97 -79 -342 -202 -339c-114 4 -171 248 -149 480c19 210 102 411 264 406c38 -1 103 -38 125 -58c11 -6 17 -14 14 -24c-2 -8 -4 -17 -10 -27c-6 -14 -17 -23 -26 -29c-18 -10 -24 1 -34 12c-14 15 -34 17 -61 22
c-133 18 -189 -224 -189 -339c0 -101 -3 -347 91 -342c89 4 157 392 175 543c4 28 6 52 8 70c4 27 7 31 24 39c12 5 44 7 61 -4c13 -8 19 -15 17 -43c-7 -97 -22 -189 -22 -285c0 -47 1 -102 7 -152c7 -68 21 -141 45 -139c21 2 58 64 75 121c10 33 49 21 42 -18
c-15 -51 -28 -75 -37 -93c-28 -55 -67 -79 -103 -73c-34 6 -69 33 -86 101z" />
    <glyph glyph-name="question" unicode="?" horiz-adv-x="355" 
d="M28 527c25 50 87 100 180 102c94 1 209 -40 207 -158c-1 -119 -107 -153 -154 -158c-32 -4 -91 0 -100 -47c-5 -28 -3 -57 -1 -90c1 -40 -16 -52 -44 -52s-47 3 -49 52c0 16 0 24 -1 55c0 26 0 52 3 69c6 29 17 51 36 61c13 8 51 21 93 24c69 9 125 17 125 88
c-4 52 -37 68 -94 70c-37 2 -103 -6 -109 -51c-8 -41 -25 -58 -51 -58c-45 0 -61 50 -41 93zM54 -5c0 84 151 66 127 -17c-17 -65 -138 -56 -127 17z" />
    <glyph glyph-name="S" unicode="S" horiz-adv-x="609" 
d="M456 743c17 -20 46 -92 15 -111c-13 -8 -21 -4 -43 33c-18 28 -73 61 -123 61c-38 0 -94 -16 -97 -58c-13 -140 384 -117 389 -473c3 -197 -146 -292 -306 -288c-92 2 -259 58 -258 208c1 131 139 195 244 197c87 2 166 -53 184 -99c15 -39 6 -50 -9 -55
c-8 -3 -19 -6 -29 0s-12 31 -28 47c-30 30 -56 38 -112 36c-80 -3 -133 -70 -131 -135c2 -71 63 -123 153 -125c120 -2 192 67 185 203c-15 284 -425 253 -403 478c7 63 65 152 199 150c61 -1 125 -14 170 -69z" />
    <glyph glyph-name="W" unicode="W" horiz-adv-x="623" 
d="M125 732c27 -11 37 -35 20 -86c-52 -167 -21 -438 8 -526l23 55l16 55c-26 31 -36 83 -32 137c6 78 29 128 75 131c72 3 57 -191 41 -224c5 -42 16 -88 34 -148c20 -70 47 -133 77 -133c130 0 219 712 128 763c-9 5 -16 -3 -21 -11c-11 -15 10 -81 24 -111
c25 -60 -29 -74 -60 -1s-52 174 19 214c14 8 30 8 53 0c34 -12 64 -60 76 -99c35 -125 31 -286 11 -447c-27 -213 -117 -415 -231 -418c-104 0 -136 161 -155 243c0 -9 -12 -41 -26 -73c-8 -18 -32 -79 -61 -78c-30 1 -53 47 -64 77c-28 65 -44 160 -50 265
c-11 218 24 452 95 415z" />
    <glyph glyph-name="M" unicode="M" horiz-adv-x="1083" 
d="M55 396c34 47 61 119 170 342c15 31 22 69 62 69c20 0 30 -38 34 -98c17 -248 -36 -712 17 -715c21 -1 23 25 40 72c36 112 74 336 108 469c15 61 25 105 47 107c41 2 38 -66 37 -100c-8 -148 13 -502 77 -508c45 -4 84 303 91 349c7 28 15 45 37 45c13 0 30 -9 36 -36
c23 -83 34 -309 127 -327c72 -15 154 179 176 251c0 0 2 22 18 17c17 -4 11 -24 11 -28c0 -88 -97 -331 -203 -331c-105 0 -143 134 -163 231c1 -35 -47 -255 -131 -263c-39 -2 -76 32 -95 80c-37 94 -40 236 -47 270c0 0 -30 -155 -68 -275c-20 -58 -35 -139 -106 -134
c-59 7 -100 53 -106 121c-26 233 3 374 10 583c-19 -32 -79 -178 -131 -248c-25 -32 -45 -36 -61 -24c-16 10 -22 34 13 81z" />
    <glyph glyph-name="I" unicode="I" horiz-adv-x="370" 
d="M254 782c0 0 0 -3 1 -4c11 31 38 57 72 40c18 -9 39 -29 29 -71c-25 -116 4 -323 11 -501c9 -194 -4 -299 -65 -340c-31 -21 -71 -24 -126 -6c-63 21 -52 62 -43 75c18 27 68 11 84 0c25 -15 38 -6 48 17c21 55 19 188 18 217c-4 94 -9 175 -14 248
c-9 -34 -38 -160 -38 -176c0 -26 4 -45 -3 -65c-9 -23 -31 -16 -41 -7c-14 5 -19 34 -19 48c0 42 15 107 29 148c45 112 28 249 57 377z" />
    <glyph glyph-name="L" unicode="L" horiz-adv-x="654" 
d="M432 421c-35 -27 -73 -25 -82 7c-12 41 29 50 44 72c33 37 72 102 90 184c19 86 25 221 -18 217c-47 -4 -109 -269 -164 -597c120 -107 170 -334 350 -192c19 26 42 31 53 19c6 -9 7 -29 -5 -54c-21 -34 -72 -90 -163 -85c-109 6 -190 106 -254 184
c-12 -80 -37 -174 -122 -174c-75 0 -121 101 -118 193c2 91 65 168 156 158l12 -2c34 276 64 629 268 618c98 -5 122 -154 106 -263c-15 -99 -78 -212 -153 -285zM188 198c4 20 7 41 10 63c-15 9 -29 10 -42 3c-69 -39 -24 -155 0 -152c8 1 25 53 32 86z" />
    <glyph glyph-name="C" unicode="C" horiz-adv-x="633" 
d="M207 471c40 19 101 150 107 193c6 55 5 98 -43 92c-113 -15 -150 -268 -162 -362c-11 -93 14 -328 131 -376c120 -51 348 173 410 287c14 27 49 6 39 -36c-38 -153 -307 -348 -442 -341c-351 18 -271 882 -3 894c146 6 152 -207 120 -291c-25 -64 -86 -146 -145 -118
c-27 13 -20 46 -12 58z" />
    <glyph glyph-name="J" unicode="J" horiz-adv-x="447" 
d="M61 492c-33 -50 -83 -26 -57 22c7 13 35 61 50 84l83 150l23 46c26 52 92 46 107 -11c59 -223 62 -450 66 -627c95 7 111 28 174 96c25 27 31 -7 22 -30c-12 -29 -21 -116 -190 -137c-2 -69 -7 -116 -14 -154c-8 -40 -36 -80 -91 -74c-99 11 -119 180 -123 251
c-6 115 87 55 133 52c-3 33 -12 363 -40 525c-3 17 -12 23 -24 -1l-43 -81c-24 -43 -55 -79 -76 -111zM171 61c4 -23 4 -49 37 -107c6 -22 24 -18 24 -5c11 38 13 78 15 142c-62 11 -76 39 -76 -30z" />
    <glyph glyph-name="R" unicode="R" horiz-adv-x="425" 
d="M262 267c31 -76 97 -189 133 -211c46 -17 54 -73 7 -87c-61 -19 -82 35 -107 66c-38 48 -75 143 -75 143s-22 55 -36 92c-14 1 -27 1 -39 2c-4 -3 -2 -123 22 -232c19 -86 -70 -100 -92 -47c-25 90 -31 184 -32 290c-38 1 -51 33 -43 44c14 16 34 13 47 12
c3 163 9 556 185 556c75 0 116 -103 144 -181c46 -127 73 -260 44 -372c-17 -65 -67 -74 -158 -75zM146 334c72 -5 128 -33 185 31c66 71 -70 457 -96 460c-43 5 -71 -153 -84 -295c-8 -89 -9 -175 -5 -196z" />
    <glyph glyph-name="G" unicode="G" horiz-adv-x="512" 
d="M4 370c0 221 87 450 242 457s174 -171 169 -225c-4 -38 -44 -102 -88 -87c-23 5 -33 32 -25 58c39 127 -17 181 -44 180c-74 -2 -152 -218 -150 -404c0 -132 74 -368 202 -368c102 0 154 234 99 302c-41 51 -123 21 -163 -5c-32 -16 -55 -7 -64 10c-10 19 0 47 36 63
c88 40 177 74 235 7c72 -83 81 -424 -110 -457c-172 -30 -339 147 -339 469z" />
    <glyph glyph-name="Z" unicode="Z" horiz-adv-x="474" 
d="M139 755c95 31 253 -24 256 -154c3 -128 -84 -204 -185 -231c114 -27 188 -116 227 -215c26 0 51 -1 72 -2c22 -3 56 -11 54 -38c-1 -16 -19 -16 -58 -8c-15 3 -33 6 -53 6c12 -42 18 -84 19 -122c3 -152 -58 -374 -240 -375c-108 -1 -216 77 -210 225
c2 85 39 173 106 229c59 48 139 70 215 80c-42 94 -123 162 -239 162c-18 0 -25 41 -25 48c-1 14 4 39 27 43c96 17 194 57 196 176c1 72 -89 89 -150 85c-21 -1 -51 9 -54 29c-7 36 21 55 42 62zM86 -154c8 -73 68 -131 145 -130c109 2 145 172 145 271
c-1 40 -6 79 -17 116c-135 -26 -292 -107 -273 -257z" />
    <glyph glyph-name="V" unicode="V" horiz-adv-x="492" 
d="M177 -28c-88 151 -119 335 -143 543c-14 118 98 130 101 12c4 -143 88 -538 162 -534c112 6 205 624 69 739c-53 45 -16 111 27 115c36 3 64 -60 76 -99c35 -125 31 -286 11 -447c-27 -213 -64 -415 -178 -418c-42 0 -76 5 -125 89z" />
    <glyph glyph-name="H" unicode="H" horiz-adv-x="614" 
d="M123 218c-45 10 -44 48 -34 62c21 29 59 -7 85 -7c17 0 33 1 50 3c-6 69 -12 127 -13 135c-9 68 -28 250 -56 295c-25 36 -65 -18 -75 -2c-13 21 29 67 68 91c21 13 56 -29 68 -54c50 -85 73 -274 84 -445c47 19 89 51 123 98c-1 32 -1 65 -1 98c0 89 12 310 78 314
c27 2 55 -63 61 -98c10 -60 9 -117 -32 -205c-13 -28 -27 -55 -42 -81c5 -100 15 -200 23 -279c1 -19 23 -124 49 -137c33 -14 67 26 93 69c14 26 11 64 14 85c9 37 41 22 41 -18c0 -111 -63 -163 -119 -195c-11 -8 -42 -14 -49 -14c-32 0 -57 14 -70 47
c-24 61 -38 196 -44 352c-35 -43 -76 -77 -122 -99c4 -71 5 -136 6 -184c4 -59 -15 -136 -100 -124c-83 22 -137 92 -163 173c-8 24 -22 68 14 78c42 20 59 -32 66 -47c15 -40 38 -94 66 -114c40 -29 48 20 47 51c-2 37 -6 91 -10 146c-33 -5 -68 -3 -106 6zM484 576
c-1 -17 -1 -34 -1 -52c9 32 16 67 21 106c3 29 4 53 3 85c-12 -32 -20 -90 -23 -139z" />
    <glyph glyph-name="E" unicode="E" horiz-adv-x="445" 
d="M381 715c4 -90 -63 -120 -116 -123c-32 -2 -47 15 -47 31c0 24 18 33 38 34c26 2 67 9 68 51c1 31 -40 45 -81 43c-51 -2 -103 -45 -103 -111c0 -65 55 -103 120 -118c21 -5 84 -14 93 -17c15 -5 26 -18 26 -41c1 -24 -11 -41 -38 -44c-10 -1 -20 -3 -30 -5
c-96 -22 -220 -93 -215 -222c6 -130 111 -168 185 -162c64 5 115 58 160 111c16 19 70 99 91 93c22 -6 8 -47 -12 -73c-65 -84 -135 -213 -260 -211c-120 2 -243 95 -245 258c-3 141 92 231 176 262l-2 5c-71 16 -137 83 -137 163c0 99 76 180 190 181
c67 1 136 -31 139 -105z" />
    <glyph glyph-name="U" unicode="U" horiz-adv-x="533" 
d="M58 218l-15 106c-8 58 -17 123 -18 191c-2 119 98 130 101 12c4 -156 25 -555 137 -546c15 1 28 15 34 62c23 163 14 520 -5 657c-5 51 -7 103 52 108c58 6 59 -64 59 -101c-2 -155 0 -326 -1 -522c-1 -94 8 -161 42 -168c64 -13 85 128 107 235c5 23 5 55 31 54
c25 -1 19 -32 13 -64c-18 -84 -21 -295 -139 -299c-56 -3 -88 22 -106 67c-27 -75 -65 -125 -121 -127c-62 0 -146 80 -171 335z" />
    <glyph glyph-name="T" unicode="T" horiz-adv-x="236" 
d="M1231 978c11 -35 -10 -58 -50 -74c-57 -23 -136 -38 -177 -42c-239 -23 -466 -28 -704 -81c0 0 -40 -12 -73 -21c-10 -2 -19 -5 -27 -8c3 0 6 -1 9 -1c40 -5 32 -73 28 -110c-20 -181 -31 -454 -66 -613c-6 -25 -23 -41 -47 -42c-66 0 -40 94 -33 139
c33 234 28 296 45 533c2 31 7 52 14 66c-18 -12 -34 -23 -52 -30c-55 -21 -76 -20 -90 9c-16 33 5 61 59 89c55 26 116 46 180 62c234 59 503 74 678 92c72 7 132 16 163 28c12 5 39 14 63 24c23 10 68 16 80 -20z" />
    <glyph glyph-name="h" unicode="h" horiz-adv-x="463" 
d="M314 96c-4 71 -3 220 -17 221c-23 1 -72 -147 -85 -192c-33 -113 -52 -126 -91 -118c-27 6 -59 78 -77 180c-39 225 -15 594 58 585c95 -12 105 -115 101 -210c-6 -146 -35 -195 -98 -253c8 -97 21 -176 33 -177c18 -2 18 48 31 97c17 66 88 209 133 211
c78 4 81 -141 85 -251c1 -72 11 -136 35 -134c21 2 69 70 89 121c13 32 47 21 42 -18c-8 -58 -72 -154 -130 -166c-8 -2 -16 -1 -24 0c-34 6 -79 30 -85 104zM121 660c-26 -7 -29 -147 -21 -281c84 95 46 288 21 281z" />
    <glyph glyph-name="N" unicode="N" horiz-adv-x="840" 
d="M520 292c0 0 -30 -155 -68 -275c-20 -58 -35 -139 -106 -134c-59 7 -100 53 -106 121c-26 233 3 374 10 583c-19 -32 -79 -178 -131 -248c-25 -32 -45 -36 -61 -24c-16 10 -22 34 13 81c34 47 61 119 170 342c15 31 22 69 62 69c20 0 30 -38 34 -98
c17 -248 -36 -712 17 -715c21 -1 23 25 40 72c36 112 74 336 108 469c15 61 25 105 47 107c41 2 38 -66 37 -100c-3 -57 -1 -126 5 -212c18 -101 39 -251 114 -265c72 -15 154 179 176 251c0 0 2 22 18 17c17 -4 11 -24 11 -28c0 -88 -97 -331 -203 -331
c-138 0 -165 220 -187 318z" />
    <glyph glyph-name="Y" unicode="Y" horiz-adv-x="459" 
d="M78 605c59 8 68 -52 69 -82c3 -38 0 -310 83 -310c12 0 30 4 43 12c-4 40 -6 591 128 586c41 -2 65 -37 71 -85c7 -77 0 -166 -11 -248c-16 -128 -43 -207 -80 -271c-3 -91 1 -200 -4 -308c-6 -138 -58 -280 -214 -307c-60 -9 -136 -14 -150 -14c-26 0 -142 -10 -176 -5
c-24 5 -37 16 -37 30c0 21 20 36 65 37c16 0 136 9 159 12c320 39 239 229 257 486c-69 -33 -132 -3 -154 14c-77 59 -100 254 -93 376c2 35 13 73 44 77zM429 652c7 44 -8 53 -18 53c-34 0 -33 -335 -40 -380c43 85 43 219 58 327z" />
    <glyph glyph-name="Q" unicode="Q" horiz-adv-x="477" 
d="M151 -95c-84 5 -117 162 -106 338c-35 124 -45 256 -27 351c29 156 107 245 208 242c181 -5 261 -164 253 -364c-5 -114 -75 -346 -176 -475c55 -46 113 -80 154 -86c28 -4 55 -13 35 -42c-10 -14 -73 -6 -121 12c-23 9 -68 30 -117 65c-33 -27 -67 -43 -103 -41z
M151 174c22 -42 56 -86 95 -125c63 74 109 206 138 324c70 288 -50 385 -128 386c-107 1 -156 -121 -163 -259c18 54 41 103 68 142c14 20 33 13 40 -9c10 -33 -2 -37 -6 -56c-38 -49 -66 -193 -75 -326c9 -29 19 -55 31 -77zM185 0c-21 20 -42 42 -60 66
c9 -50 25 -79 51 -70z" />
    <glyph glyph-name="P" unicode="P" horiz-adv-x="459" 
d="M262 267c-14 1 -105 4 -117 5c-4 -3 -2 -123 22 -232c19 -86 -70 -100 -92 -47c-25 90 -31 184 -32 290c-38 1 -51 33 -43 44c14 16 34 13 47 12c3 163 9 556 185 556c75 0 116 -103 144 -181c46 -127 73 -260 44 -372c-17 -65 -67 -74 -158 -75zM146 334
c72 -5 128 -33 185 31c66 71 -70 457 -96 460c-43 5 -71 -153 -84 -295c-8 -89 -9 -175 -5 -196z" />
    <glyph glyph-name="X" unicode="X" horiz-adv-x="656" 
d="M683 108c42 58 81 36 47 -18c-37 -55 -95 -149 -211 -153c-77 -2 -128 71 -160 156c-22 -91 -61 -159 -127 -158c-104 2 -163 130 -185 260c-21 122 -4 274 123 302c68 15 81 -42 25 -63c-41 -16 -84 -61 -86 -158c-2 -79 55 -235 124 -235c44 0 69 150 69 310
c1 178 -27 368 -68 377c-37 8 -74 -113 -152 -113c-41 -1 -75 41 -58 69c10 18 21 19 36 27c52 21 67 119 165 116c54 -2 89 -56 110 -124c23 73 60 124 118 123c177 -3 245 -277 104 -373c-47 -32 -63 19 -27 63c52 60 10 245 -78 204c-37 -17 -48 -154 -48 -314
c-1 -178 35 -361 115 -371c57 -7 118 10 164 73z" />
    <glyph glyph-name="AE" unicode="&#xc6;" horiz-adv-x="727" 
d="M578 590c-14 -11 -57 -43 -77 5c-12 26 15 47 39 59c16 10 40 19 48 24c9 4 24 20 20 36c-7 33 -43 37 -81 39c-66 3 -115 -63 -101 -139c8 -41 50 -76 118 -92c21 -5 84 -14 93 -17c15 -5 26 -18 26 -41c1 -24 -11 -41 -38 -44c-10 -1 -20 -3 -30 -5
c-96 -22 -220 -93 -215 -222c6 -130 111 -168 185 -162c64 5 115 58 160 111c16 19 70 99 91 93c22 -6 8 -47 -12 -73c-65 -84 -135 -213 -260 -211c-98 2 -198 64 -233 176c-32 -100 -83 -204 -163 -202c-114 4 -171 248 -149 480c19 210 102 411 264 406
c36 -1 96 -34 121 -55c29 39 76 63 137 64c52 2 143 -27 139 -103c-5 -89 -52 -103 -82 -127zM348 569l4 28c-2 8 -4 16 -4 25c-2 16 -1 32 1 47c-7 2 -11 9 -17 16c-14 15 -34 17 -61 22c-133 18 -189 -224 -189 -339c0 -101 -3 -347 91 -342c89 4 157 392 175 543z
M473 476c-9 2 -18 5 -26 8c-1 -9 -2 -18 -2 -27c10 6 20 10 30 14z" />
    <glyph glyph-name="oe" unicode="&#x153;" horiz-adv-x="521" 
d="M600 157c-16 -111 -111 -180 -203 -171c-52 5 -88 46 -111 95c-23 -52 -54 -96 -122 -92c-31 1 -51 11 -70 29c-54 53 -84 149 -60 271c8 37 19 48 53 44c5 -1 -13 28 -2 55c11 24 41 51 74 53c46 6 95 -1 123 -67c0 -2 1 -3 2 -5c17 40 43 72 83 79
c71 12 125 -54 126 -127c1 -63 -8 -128 -84 -148c-31 -8 -50 -6 -67 -1c3 -36 32 -98 71 -110c49 -17 126 50 148 116c12 35 44 14 39 -21zM249 127c-66 18 -127 64 -141 128c-10 -85 16 -199 76 -195c37 2 65 52 65 67zM168 320c-1 -25 26 -100 88 -120
c2 110 -78 265 -88 120zM385 361c-22 -2 -39 -50 -37 -81c3 -52 27 -56 54 -47c30 11 32 50 25 96c-3 18 -17 33 -42 32z" />
    <glyph glyph-name="OE" unicode="&#x152;" horiz-adv-x="725" 
d="M580 590c-14 -11 -57 -43 -77 5c-12 26 15 47 39 59c16 10 40 19 48 24c9 4 24 20 20 36c-7 33 -43 37 -81 39c-63 3 -109 -56 -103 -127l6 -26c14 -35 53 -64 114 -78c21 -5 84 -14 93 -17c15 -5 26 -18 26 -41c1 -24 -11 -41 -38 -44c-10 -1 -20 -3 -30 -5
c-71 -16 -156 -59 -195 -132c-5 -18 -12 -37 -19 -56c-1 -11 -2 -22 -1 -34c6 -130 111 -168 185 -162c64 5 115 58 160 111c16 19 70 99 91 93c22 -6 8 -47 -12 -73c-65 -84 -135 -213 -260 -211c-88 2 -178 52 -220 143c-57 -108 -132 -193 -214 -189
c-100 5 -128 226 -95 438c-28 64 -45 143 -43 234c5 159 100 258 213 259c84 1 147 -35 189 -94c28 46 79 77 147 78c52 2 143 -27 139 -103c-5 -89 -52 -103 -82 -127zM118 202c-9 7 -17 16 -26 25c-6 -133 5 -247 45 -231c69 29 124 124 164 233c3 52 18 95 41 132l3 12
c19 78 24 142 19 194c-8 17 -13 35 -14 55c-1 7 -1 15 -1 22c-29 82 -87 114 -132 115c-89 1 -156 -103 -156 -238c17 46 37 88 61 121c14 20 33 13 40 -9c10 -33 -2 -37 -6 -56c-24 -39 -44 -136 -55 -241c6 -15 13 -29 21 -43c32 -59 71 -75 82 -78c27 -8 52 -21 28 -47
c-11 -12 -76 0 -114 34zM440 472l-2 -19c13 7 26 13 39 18l-2 5c-12 2 -24 6 -35 12v-16z" />
    <glyph glyph-name="ae" unicode="&#xe6;" horiz-adv-x="500" 
d="M564 157c-16 -111 -111 -180 -203 -171c-10 1 -20 4 -29 7c-22 5 -42 17 -57 45c-8 11 -16 24 -22 37c-61 -90 -125 -96 -161 -59c-118 122 -121 424 102 402c45 -4 81 -10 57 -36h2c17 34 42 60 78 66c71 12 125 -54 126 -127c1 -63 -8 -128 -84 -148
c-31 -8 -50 -6 -67 -1c3 -36 32 -98 71 -110c49 -17 126 50 148 116c12 35 44 14 39 -21zM197 147c10 25 51 236 6 220c-144 -9 -115 -212 -86 -261c28 -48 53 -24 80 41zM349 361c-22 -2 -39 -50 -37 -81c3 -52 27 -56 54 -47c30 11 32 50 25 96c-3 18 -17 33 -42 32z" />
    <glyph glyph-name="yen" unicode="&#xa5;" horiz-adv-x="459" 
d="M78 605c59 8 68 -52 69 -82c3 -38 0 -310 83 -310c12 0 30 4 43 12c-4 40 -6 591 128 586c41 -2 65 -37 71 -85c7 -77 0 -166 -11 -248c-16 -128 -43 -207 -80 -271c-1 -34 -2 -70 -2 -108c25 3 55 3 95 1c32 -3 70 -19 66 -36c-3 -7 -1 -23 -24 -22
c-58 2 -100 -1 -136 -10c0 -28 -1 -56 -2 -85c22 1 46 1 77 -1c32 -3 70 -19 66 -36c-3 -7 -1 -23 -24 -22c-50 2 -88 0 -121 -6c-10 -133 -64 -264 -213 -290c-60 -9 -136 -14 -150 -14c-26 0 -142 -10 -176 -5c-24 5 -37 16 -37 30c0 21 20 36 65 37c16 0 136 9 159 12
c181 22 234 93 249 197c-34 -14 -73 -32 -125 -51c-40 -14 -68 4 -72 33c-4 35 48 59 80 66c55 11 90 23 122 32v68c-31 -13 -66 -28 -111 -45c-40 -14 -68 4 -72 33c-4 35 48 59 80 66c45 9 76 18 103 26c1 20 1 40 3 61c-69 -33 -132 -3 -154 14c-77 59 -100 254 -93 376
c2 35 13 73 44 77zM429 652c7 44 -8 53 -18 53c-34 0 -33 -335 -40 -380c43 85 43 219 58 327z" />
    <glyph glyph-name="ss" horiz-adv-x="439" 
d="M212 374c2 -11 -3 -28 -10 -34c-18 -15 -31 -9 -50 1c-9 5 -18 10 -25 12c-22 9 -40 2 -50 -11c-25 -33 0 -69 30 -93h-1l86 -66c19 -16 55 -44 83 -77c7 -9 14 -18 20 -27l5 7c8 9 31 20 42 3c5 -10 26 -33 41 -44c6 -4 10 -6 14 -1c8 8 4 19 -4 27
c-22 29 -64 70 -129 143c-45 53 -33 140 22 186c21 18 51 31 79 31c33 0 61 -17 77 -51c7 -18 8 -37 -10 -51s-38 -14 -51 4c-9 15 -34 13 -46 3c-32 -26 -19 -65 4 -89l57 -62c77 -86 90 -132 72 -166c-21 -39 -47 -47 -69 -47c-32 0 -60 14 -84 38c-2 -11 -7 -22 -16 -32
c-46 -49 -117 -24 -164 14c-27 22 -63 53 -34 85c12 13 34 14 44 4s28 -25 44 -36c6 -5 27 -24 37 -12c9 11 -9 24 -18 32c-51 47 -110 86 -166 130c-67 53 -88 145 -28 212c57 57 138 49 189 -15c5 -8 7 -14 9 -18z" />
    <glyph glyph-name="tt" horiz-adv-x="390" 
d="M14 514l49 10l3 92c-3 29 32 30 46 29c15 -1 30 -10 27 -33l-3 -74c38 7 76 13 115 17l2 61c-3 29 32 30 46 29c15 -1 30 -10 27 -33l-2 -50c40 3 81 3 122 1c32 -3 70 -19 66 -36c-3 -7 -1 -23 -24 -22c-55 2 -111 -1 -167 -8c-5 -102 -13 -203 -17 -304
c0 -71 -9 -135 42 -138c32 -2 69 70 89 121c13 32 47 21 42 -18c-8 -58 -65 -161 -130 -166c-58 -5 -89 20 -106 55c-23 -30 -51 -52 -81 -55c-119 -10 -127 110 -124 172c5 89 14 179 21 269l-51 -18c-40 -14 -68 4 -72 33c-4 35 48 59 80 66zM117 193
c0 -71 -9 -135 42 -138c21 -2 45 30 64 67c-1 15 -1 30 0 42c6 106 17 214 24 320c-38 -7 -77 -17 -115 -28c-5 -88 -11 -175 -15 -263z" />
    <glyph glyph-name="sterling" unicode="&#xa3;" horiz-adv-x="654" 
d="M87 492c2 2 24 31 56 9c26 -18 51 -36 80 -47c32 254 76 524 256 515c63 -3 119 -68 93 -137c-10 -27 -31 -23 -36 -7c-14 45 -48 78 -70 76c-39 -4 -90 -194 -138 -452c61 12 122 43 154 88c21 30 63 15 41 -19c-43 -64 -118 -130 -209 -142l-18 -109
c-2 -6 -3 -12 -4 -20c131 -83 173 -283 360 -135c19 26 42 31 53 19c6 -9 7 -29 -5 -54c-21 -34 -72 -90 -163 -85c-116 7 -197 87 -261 144c-15 -69 -44 -134 -115 -134c-75 0 -137 67 -125 155c8 57 76 130 165 122c5 31 9 64 13 98c-42 7 -76 23 -117 46
c-33 18 -16 63 -10 69zM155 102c24 2 26 56 32 90c-9 2 -17 1 -25 -2c-69 -26 -31 -90 -7 -88z" />
    <glyph glyph-name="dotlessi" unicode="&#x131;" horiz-adv-x="188" 
d="M277 163c-9 -93 -130 -247 -214 -117c-26 40 -26 138 -26 186c0 0 -6 110 -3 149c4 51 37 57 37 55c0 -3 52 7 51 -65c0 -15 1 -121 0 -145c-1 -45 0 -131 20 -157c27 -35 86 90 93 112c10 33 46 21 42 -18z" />
    <glyph glyph-name="germandbls" unicode="&#xdf;" horiz-adv-x="546" 
d="M150 554c-2 -98 -7 -449 3 -510c3 -36 5 -58 6 -61c1 -32 -8 -65 -41 -66c-34 0 -45 24 -46 36c-6 43 -7 144 -5 244c1 110 5 339 6 354c2 26 8 48 31 52c27 4 43 -30 46 -49zM270 -70c-47 -9 -45 47 -15 48c135 5 203 92 200 162c-10 145 -236 226 -273 259
c-61 58 150 138 136 243c-5 40 -23 75 -69 82c-77 12 -111 -76 -148 -75c-36 0 -40 34 -36 54c4 28 62 103 151 104c128 0 171 -95 177 -157c8 -92 -50 -169 -108 -202c-7 -4 -16 -19 0 -23c47 -13 92 -41 138 -75c64 -48 106 -138 106 -205c-2 -100 -81 -209 -259 -215z
" />
    <glyph glyph-name="circumflex" unicode="&#x2c6;" 
d="M119 461c-23 -14 -52 10 -14 39c29 27 76 79 94 80s62 -46 88 -77c32 -31 13 -64 -19 -36c-27 20 -56 43 -71 42c-24 -2 -37 -18 -78 -48z" />
    <glyph glyph-name="ring" unicode="&#x2da;" horiz-adv-x="380" 
d="M187 453c-104 15 -76 127 19 131c66 -5 85 -118 14 -133c-11 -2 -22 0 -33 2zM211 490c25 3 17 57 -12 55c-54 -7 -52 -55 12 -55z" />
    <glyph glyph-name="tilde" unicode="&#x2dc;" horiz-adv-x="404" 
d="M145 498l-36 -24c-26 -12 -42 19 -20 34c20 16 42 48 74 48c31 1 50 -25 84 -28c14 -1 30 1 51 11c26 12 45 -11 25 -31c-32 -33 -58 -43 -79 -42c-35 1 -59 30 -90 32h-9z" />
    <glyph glyph-name="breve" unicode="&#x2d8;" horiz-adv-x="398" 
d="M94 543c0 24 28 33 39 10c23 -41 118 -57 136 1c9 27 47 17 39 -10c-33 -113 -201 -106 -214 -1z" />
    <glyph glyph-name="dieresis" unicode="&#xa8;" horiz-adv-x="395" 
d="M256 562c17 6 33 9 40 -5c35 -21 23 -77 -24 -74c-64 3 -56 59 -16 79zM158 544c13 -21 -5 -59 -33 -59c-57 0 -57 78 2 76c12 -1 24 -6 31 -17z" />
    <glyph glyph-name="dotaccent" unicode="&#x2d9;" horiz-adv-x="379" 
d="M182 566c54 16 76 -52 26 -75l-5 -2c-48 -4 -67 49 -26 75c2 1 3 2 5 2z" />
    <glyph glyph-name="grave" unicode="`" horiz-adv-x="425" 
d="M245 463c-38 14 -97 37 -126 53c-24 13 11 75 34 60c34 -22 57 -43 97 -74c23 -18 30 -33 -5 -39z" />
    <glyph glyph-name="acute" unicode="&#xb4;" horiz-adv-x="416" 
d="M160 459c-35 6 -28 21 -5 39c40 31 63 52 97 74c23 15 58 -47 34 -60c-29 -16 -88 -39 -126 -53z" />
    <glyph glyph-name="caron" unicode="&#x2c7;" horiz-adv-x="389" 
d="M119 585c41 -30 54 -46 78 -48c15 -1 44 22 71 42c32 28 51 -5 19 -36c-26 -31 -70 -78 -88 -77s-65 53 -94 80c-38 29 -9 53 14 39z" />
    <glyph glyph-name="hungarumlaut" unicode="&#x2dd;" horiz-adv-x="505" 
d="M283 455c-35 -3 -32 13 -15 36c31 41 48 67 75 97c18 21 68 -30 48 -49c-24 -23 -75 -60 -108 -84zM137 455c-35 -3 -32 13 -15 36c31 41 48 67 75 97c18 21 68 -30 48 -49c-24 -23 -75 -60 -108 -84z" />
    <glyph glyph-name="cedilla" unicode="&#xb8;" horiz-adv-x="304" 
d="M193 19c30 7 41 -4 32 -22c4 -34 15 -28 27 -31c14 -3 27 -28 26 -48c-2 -32 -23 -53 -53 -57c-21 -3 -42 3 -54 20c-22 16 -7 48 19 35c15 -28 46 -18 46 4c0 25 -53 3 -53 60c0 16 0 29 10 39z" />
    <glyph glyph-name="ogonek" unicode="&#x2db;" horiz-adv-x="364" 
d="M219 20c23 6 39 -19 19 -35c-18 -13 -33 -59 -15 -78c15 -14 36 -12 55 -15c21 -10 19 -37 -7 -39c-30 4 -52 3 -76 25c-40 39 -16 115 24 142z" />
    <glyph glyph-name="comma" unicode="," horiz-adv-x="268" 
d="M141 -6c-68 10 -27 104 19 70c1 -1 34 -16 22 -60c-1 -51 -56 -118 -79 -118c-21 -16 -47 5 -30 27c30 26 62 34 68 81z" />
    <glyph glyph-name="period" unicode="." horiz-adv-x="268" 
d="M183 45c-8 -59 -77 -55 -80 -4c2 53 72 58 80 4z" />
    <glyph glyph-name="semicolon" unicode=";" horiz-adv-x="268" 
d="M141 -6c-68 10 -27 104 19 70c1 -1 34 -16 22 -60c-1 -51 -56 -118 -79 -118c-21 -16 -47 5 -30 27c30 26 62 34 68 81zM182 224c-8 -59 -77 -55 -80 -4c2 53 72 58 80 4z" />
    <glyph glyph-name="colon" unicode=":" horiz-adv-x="268" 
d="M182 224c-8 -59 -77 -55 -80 -4c2 53 72 58 80 4zM183 45c-8 -59 -77 -55 -80 -4c2 53 72 58 80 4z" />
    <glyph glyph-name="Euro" unicode="&#x20ac;" horiz-adv-x="530" 
d="M-62 217c-30 23 -27 63 21 75l54 8c0 12 -1 25 -1 37l-26 -5c-37 -8 -54 -1 -57 1c-30 23 -27 63 21 75l66 10c18 205 102 398 228 404c146 6 224 -187 199 -276c-19 -66 -56 -112 -102 -82c-25 16 -20 57 -12 69c48 24 22 233 -58 223c-102 -14 -142 -218 -158 -328
c35 1 72 1 122 -1c65 -3 49 -42 -6 -49c-39 -5 -81 -12 -123 -21c0 -14 0 -29 1 -46c40 3 80 2 137 0c65 -3 49 -42 -6 -49c-39 -5 -81 -12 -123 -21c16 -94 53 -194 125 -223c120 -51 150 59 212 173c14 27 49 6 39 -36c-38 -153 -109 -234 -244 -227
c-134 7 -204 135 -227 293l-25 -5c-37 -8 -54 -1 -57 1z" />
    <glyph glyph-name="macron" unicode="&#xaf;" horiz-adv-x="389" 
d="M91 466c-38 -1 -40 53 0 55c58 -9 163 -1 202 2c29 2 43 -53 7 -52c-39 -8 -171 -5 -209 -5z" />
    <glyph glyph-name="at" unicode="@" horiz-adv-x="648" 
d="M431 205c4 -53 2 -105 52 -101c69 8 97 137 93 170c3 131 -127 207 -252 203c-136 -4 -226 -123 -229 -252c0 -138 93 -234 243 -239c62 0 140 26 195 69c21 15 41 -5 30 -27c-59 -56 -161 -80 -228 -80c-151 0 -286 97 -290 281c-3 146 102 292 277 296
c173 4 291 -96 293 -250c1 -64 -23 -216 -163 -218c-26 0 -53 21 -66 73c-49 -76 -100 -82 -128 -53c-91 94 -93 325 78 308c34 -3 62 -8 43 -27c15 -2 33 -7 37 -26c6 -8 9 -70 15 -127zM338 178c8 19 39 180 5 168c-111 -7 -88 -162 -66 -200c21 -37 40 -18 61 32z" />
    <glyph glyph-name="dollar" unicode="$" horiz-adv-x="520" 
d="M261 -105c-31 0 -38 14 -40 63c-89 10 -221 93 -158 156c12 13 39 19 53 5c27 -27 116 -81 184 -81c25 0 48 8 63 28c25 39 -166 177 -246 235c-76 53 -121 97 -121 203c0 45 15 91 50 130c20 20 42 35 66 44c0 21 -16 58 39 63c24 0 38 -9 40 -54c39 -6 78 -27 110 -61
c32 -30 38 -57 14 -81c-20 -20 -42 -11 -65 2c-35 18 -86 43 -122 -1c-40 -52 -1 -116 45 -153c41 -33 85 -67 127 -99c28 -24 83 -71 123 -117c32 -38 60 -85 60 -125c0 -20 -7 -40 -24 -59c-19 -21 -48 -34 -82 -42c-25 -5 -50 -8 -75 -7c0 -11 2 -51 -41 -49z" />
    <glyph glyph-name="registered" unicode="&#xae;" horiz-adv-x="711" 
d="M102 240c0 162 131 294 293 294s294 -132 294 -294s-132 -293 -294 -293s-293 131 -293 293zM146 240c0 -138 111 -249 249 -249s250 111 250 249s-112 250 -250 250s-249 -112 -249 -250zM409 172c18 -36 55 -86 76 -97c27 -8 31 -33 4 -39c-34 -9 -47 15 -61 30
c-22 21 -43 65 -43 65s-12 25 -20 42c-9 1 -16 1 -22 1c-3 -1 -1 -57 12 -107c11 -39 -40 -45 -52 -20c-15 40 -18 83 -18 132c-22 0 -30 15 -25 20c8 7 20 6 27 6c1 74 5 254 106 254c42 0 65 -47 82 -83c25 -58 41 -119 24 -171c-9 -29 -38 -33 -90 -33zM343 202
c41 -2 74 -15 106 14c37 33 -40 209 -55 211c-24 2 -41 -70 -48 -135c-4 -41 -5 -80 -3 -90z" />
    <glyph glyph-name="copyright" unicode="&#xa9;" horiz-adv-x="711" 
d="M102 240c0 162 131 294 293 294s294 -132 294 -294s-132 -293 -294 -293s-293 131 -293 293zM146 240c0 -138 111 -249 249 -249s250 111 250 249s-112 250 -250 250s-249 -112 -249 -250zM361 286c25 9 64 71 67 91c4 26 3 46 -27 43c-71 -7 -94 -126 -101 -170
c-7 -43 8 -153 82 -176c75 -23 113 78 152 132c9 12 31 3 25 -17c-24 -72 -88 -160 -173 -157c-220 9 -170 413 -2 419c92 3 96 -97 76 -136c-16 -30 -54 -69 -91 -56c-17 6 -13 22 -8 27z" />
    <glyph glyph-name="Aring" unicode="&#xc5;" horiz-adv-x="521" 
d="M379 93c-18 60 -23 128 -29 171c-27 -97 -79 -342 -202 -339c-114 4 -171 248 -149 480c19 210 102 411 264 406c38 -1 103 -38 125 -58c11 -6 17 -14 14 -24c-2 -8 -4 -17 -10 -27c-6 -14 -17 -23 -26 -29c-18 -10 -24 1 -34 12c-14 15 -34 17 -61 22
c-133 18 -189 -224 -189 -339c0 -101 -3 -347 91 -342c89 4 157 392 175 543c4 28 6 52 8 70c4 27 7 31 24 39c12 5 44 7 61 -4c13 -8 19 -15 17 -43c-7 -97 -22 -189 -22 -285c0 -47 1 -102 7 -152c7 -68 21 -141 45 -139c21 2 58 64 75 121c10 33 49 21 42 -18
c-15 -51 -28 -75 -37 -93c-28 -55 -67 -79 -103 -73c-34 6 -69 33 -86 101zM251 842c-104 15 -76 127 19 131c66 -5 85 -118 14 -133c-11 -2 -22 0 -33 2zM275 879c25 3 17 57 -12 55c-54 -7 -52 -55 12 -55z" />
    <glyph glyph-name="aring" unicode="&#xe5;" 
d="M207 147c10 25 51 236 6 220c-144 -9 -115 -212 -86 -261c28 -48 53 -24 80 41zM502 158c-8 -58 -72 -154 -130 -166c-8 -2 -16 -1 -24 0c-34 6 -62 25 -79 93c-63 -100 -130 -107 -167 -69c-118 122 -121 424 102 402c45 -4 81 -10 57 -36c19 -2 43 -9 48 -33
c8 -11 11 -92 19 -166c7 -68 19 -130 43 -128c21 2 69 70 89 121c13 32 47 21 42 -18zM187 453c-104 15 -76 127 19 131c66 -5 85 -118 14 -133c-11 -2 -22 0 -33 2zM211 490c25 3 17 57 -12 55c-54 -7 -52 -55 12 -55z" />
    <glyph glyph-name="Adieresis" unicode="&#xc4;" horiz-adv-x="521" 
d="M379 93c-18 60 -23 128 -29 171c-27 -97 -79 -342 -202 -339c-114 4 -171 248 -149 480c19 210 102 411 264 406c38 -1 103 -38 125 -58c11 -6 17 -14 14 -24c-2 -8 -4 -17 -10 -27c-6 -14 -17 -23 -26 -29c-18 -10 -24 1 -34 12c-14 15 -34 17 -61 22
c-133 18 -189 -224 -189 -339c0 -101 -3 -347 91 -342c89 4 157 392 175 543c4 28 6 52 8 70c4 27 7 31 24 39c12 5 44 7 61 -4c13 -8 19 -15 17 -43c-7 -97 -22 -189 -22 -285c0 -47 1 -102 7 -152c7 -68 21 -141 45 -139c21 2 58 64 75 121c10 33 49 21 42 -18
c-15 -51 -28 -75 -37 -93c-28 -55 -67 -79 -103 -73c-34 6 -69 33 -86 101zM310 918c17 6 33 9 40 -5c35 -21 23 -77 -24 -74c-64 3 -56 59 -16 79zM212 900c13 -21 -5 -59 -33 -59c-57 0 -57 78 2 76c12 -1 24 -6 31 -17z" />
    <glyph glyph-name="adieresis" unicode="&#xe4;" 
d="M207 147c10 25 51 236 6 220c-144 -9 -115 -212 -86 -261c28 -48 53 -24 80 41zM502 158c-8 -58 -72 -154 -130 -166c-8 -2 -16 -1 -24 0c-34 6 -62 25 -79 93c-63 -100 -130 -107 -167 -69c-118 122 -121 424 102 402c45 -4 81 -10 57 -36c19 -2 43 -9 48 -33
c8 -11 11 -92 19 -166c7 -68 19 -130 43 -128c21 2 69 70 89 121c13 32 47 21 42 -18zM256 562c17 6 33 9 40 -5c35 -21 23 -77 -24 -74c-64 3 -56 59 -16 79zM158 544c13 -21 -5 -59 -33 -59c-57 0 -57 78 2 76c12 -1 24 -6 31 -17z" />
    <glyph glyph-name="edieresis" unicode="&#xeb;" horiz-adv-x="316" 
d="M157 345c-22 -2 -40 -34 -38 -65c3 -52 27 -56 54 -47c30 11 33 34 26 80c-3 18 -17 33 -42 32zM401 157c-13 -89 -89 -164 -175 -167c-125 -4 -187 82 -197 198c-6 66 10 228 110 244c71 12 125 -54 126 -127c1 -63 -9 -112 -85 -132c-31 -8 -50 -6 -67 -1
c6 -57 70 -113 124 -115c53 -2 97 50 117 104c19 52 55 50 47 -4zM218 562c17 6 33 9 40 -5c35 -21 23 -77 -24 -74c-64 3 -56 59 -16 79zM120 544c13 -21 -5 -59 -33 -59c-57 0 -57 78 2 76c12 -1 24 -6 31 -17z" />
    <glyph glyph-name="idieresis" unicode="&#xef;" horiz-adv-x="188" 
d="M277 163c-9 -93 -130 -247 -214 -117c-26 40 -26 138 -26 186c0 0 -6 110 -3 149c4 51 37 57 37 55c0 -3 52 7 51 -65c0 -15 1 -121 0 -145c-1 -45 0 -131 20 -157c27 -35 86 90 93 112c10 33 46 21 42 -18zM142 562c17 6 33 9 40 -5c35 -21 23 -77 -24 -74
c-64 3 -56 59 -16 79zM44 544c13 -21 -5 -59 -33 -59c-57 0 -57 78 2 76c12 -1 24 -6 31 -17z" />
    <glyph glyph-name="odieresis" unicode="&#xf6;" horiz-adv-x="347" 
d="M34 289c8 37 19 48 53 44c5 -1 -13 28 -2 55c11 24 41 51 74 53c46 6 95 -1 123 -67c31 -79 35 -150 27 -196c26 -3 89 -3 97 -3c38 0 28 -42 3 -52c-16 -10 -74 -11 -108 -7c-25 -64 -54 -132 -137 -127c-31 1 -51 11 -70 29c-54 53 -84 149 -60 271zM249 127
c-66 18 -127 64 -141 128c-10 -85 16 -199 76 -195c37 2 65 52 65 67zM168 320c-1 -25 26 -100 88 -120c2 110 -78 265 -88 120zM256 562c17 6 33 9 40 -5c35 -21 23 -77 -24 -74c-64 3 -56 59 -16 79zM158 544c13 -21 -5 -59 -33 -59c-57 0 -57 78 2 76c12 -1 24 -6 31 -17
z" />
    <glyph glyph-name="udieresis" unicode="&#xfc;" horiz-adv-x="430" 
d="M407 -7c-69 4 -110 89 -130 151c-9 -14 -35 -152 -137 -148c-132 5 -114 276 -114 382c0 18 5 60 47 57c28 -2 39 -30 38 -55c4 -40 -4 -288 46 -288c41 0 60 95 63 154c2 37 1 67 3 122c1 19 15 52 40 54c41 3 45 -50 47 -76c4 -57 65 -279 105 -276c21 2 44 49 61 106
c10 33 49 21 42 -18c-6 -49 -50 -168 -111 -165zM227 562c17 6 33 9 40 -5c35 -21 23 -77 -24 -74c-64 3 -56 59 -16 79zM129 544c13 -21 -5 -59 -33 -59c-57 0 -57 78 2 76c12 -1 24 -6 31 -17z" />
    <glyph glyph-name="Ydieresis" unicode="&#x178;" horiz-adv-x="459" 
d="M78 605c59 8 68 -52 69 -82c3 -38 0 -310 83 -310c12 0 30 4 43 12c-4 40 -6 591 128 586c41 -2 65 -37 71 -85c7 -77 0 -166 -11 -248c-16 -128 -43 -207 -80 -271c-3 -91 1 -200 -4 -308c-6 -138 -58 -280 -214 -307c-60 -9 -136 -14 -150 -14c-26 0 -142 -10 -176 -5
c-24 5 -37 16 -37 30c0 21 20 36 65 37c16 0 136 9 159 12c320 39 239 229 257 486c-69 -33 -132 -3 -154 14c-77 59 -100 254 -93 376c2 35 13 73 44 77zM429 652c7 44 -8 53 -18 53c-34 0 -33 -335 -40 -380c43 85 43 219 58 327zM290 904c17 6 33 9 40 -5
c35 -21 23 -77 -24 -74c-64 3 -56 59 -16 79zM192 886c13 -21 -5 -59 -33 -59c-57 0 -57 78 2 76c12 -1 24 -6 31 -17z" />
    <glyph glyph-name="ydieresis" unicode="&#xff;" horiz-adv-x="364" 
d="M12 404c71 48 75 -79 79 -95c28 -119 78 -232 99 -217c12 9 14 57 -6 199c-4 25 -13 98 15 119c66 44 95 -68 117 -117c46 -104 43 -270 43 -420c0 -123 -20 -262 -79 -372c-27 -51 -71 -88 -120 -104c-38 -13 -82 -11 -128 10c-28 13 -30 40 -19 58c14 23 44 9 86 2
c118 -20 182 181 184 389c2 168 -10 333 -42 405c8 -60 12 -106 11 -168c-1 -63 -19 -94 -49 -102c-19 -5 -47 6 -67 30c-57 69 -116 222 -133 290c-6 24 -9 81 9 93zM186 562c17 6 33 9 40 -5c35 -21 23 -77 -24 -74c-64 3 -56 59 -16 79zM88 544c13 -21 -5 -59 -33 -59
c-57 0 -57 78 2 76c12 -1 24 -6 31 -17z" />
    <glyph glyph-name="Edieresis" unicode="&#xcb;" horiz-adv-x="445" 
d="M256 930c17 6 33 9 40 -5c35 -21 23 -77 -24 -74c-64 3 -56 59 -16 79zM158 912c13 -21 -5 -59 -33 -59c-57 0 -57 78 2 76c12 -1 24 -6 31 -17zM381 715c4 -90 -63 -120 -116 -123c-32 -2 -47 15 -47 31c0 24 18 33 38 34c26 2 67 9 68 51c1 31 -40 45 -81 43
c-51 -2 -103 -45 -103 -111c0 -65 55 -103 120 -118c21 -5 84 -14 93 -17c15 -5 26 -18 26 -41c1 -24 -11 -41 -38 -44c-10 -1 -20 -3 -30 -5c-96 -22 -220 -93 -215 -222c6 -130 111 -168 185 -162c64 5 115 58 160 111c16 19 70 99 91 93c22 -6 8 -47 -12 -73
c-65 -84 -135 -213 -260 -211c-120 2 -243 95 -245 258c-3 141 92 231 176 262l-2 5c-71 16 -137 83 -137 163c0 99 76 180 190 181c67 1 136 -31 139 -105z" />
    <glyph glyph-name="Idieresis" unicode="&#xcf;" horiz-adv-x="370" 
d="M254 782c0 0 0 -3 1 -4c11 31 38 57 72 40c18 -9 39 -29 29 -71c-25 -116 4 -323 11 -501c9 -194 -4 -299 -65 -340c-31 -21 -71 -24 -126 -6c-63 21 -52 62 -43 75c18 27 68 11 84 0c25 -15 38 -6 48 17c21 55 19 188 18 217c-4 94 -9 175 -14 248
c-9 -34 -38 -160 -38 -176c0 -26 4 -45 -3 -65c-9 -23 -31 -16 -41 -7c-14 5 -19 34 -19 48c0 42 15 107 29 148c45 112 28 249 57 377zM356 936c17 6 33 9 40 -5c35 -21 23 -77 -24 -74c-64 3 -56 59 -16 79zM258 918c13 -21 -5 -59 -33 -59c-57 0 -57 78 2 76
c12 -1 24 -6 31 -17z" />
    <glyph glyph-name="Ccedilla" unicode="&#xc7;" horiz-adv-x="633" 
d="M207 471c40 19 101 150 107 193c6 55 5 98 -43 92c-113 -15 -150 -268 -162 -362c-11 -93 14 -328 131 -376c120 -51 348 173 410 287c14 27 49 6 39 -36c-38 -153 -307 -348 -442 -341c-351 18 -271 882 -3 894c146 6 152 -207 120 -291c-25 -64 -86 -146 -145 -118
c-27 13 -20 46 -12 58zM237 -51c30 7 41 -4 32 -22c4 -34 15 -28 27 -31c14 -3 27 -28 26 -48c-2 -32 -23 -53 -53 -57c-21 -3 -42 3 -54 20c-22 16 -7 48 19 35c15 -28 46 -18 46 4c0 25 -53 3 -53 60c0 16 0 29 10 39z" />
    <glyph glyph-name="ccedilla" unicode="&#xe7;" horiz-adv-x="304" 
d="M240 -1c-179 -5 -231 140 -232 230c1 107 59 192 148 199c151 12 178 -216 46 -225c-7 0 -18 8 -25 20c-10 21 -3 27 10 46c36 49 36 108 -8 106c-63 -3 -86 -129 -75 -198c13 -83 70 -126 143 -118c26 3 81 43 97 84s36 44 22 -34c-12 -50 -65 -108 -126 -110zM193 19
c30 7 41 -4 32 -22c4 -34 15 -28 27 -31c14 -3 27 -28 26 -48c-2 -32 -23 -53 -53 -57c-21 -3 -42 3 -54 20c-22 16 -7 48 19 35c15 -28 46 -18 46 4c0 25 -53 3 -53 60c0 16 0 29 10 39z" />
    <glyph glyph-name="Eacute" unicode="&#xc9;" horiz-adv-x="445" 
d="M160 833c-35 6 -28 21 -5 39c40 31 63 52 97 74c23 15 58 -47 34 -60c-29 -16 -88 -39 -126 -53zM381 715c4 -90 -63 -120 -116 -123c-32 -2 -47 15 -47 31c0 24 18 33 38 34c26 2 67 9 68 51c1 31 -40 45 -81 43c-51 -2 -103 -45 -103 -111c0 -65 55 -103 120 -118
c21 -5 84 -14 93 -17c15 -5 26 -18 26 -41c1 -24 -11 -41 -38 -44c-10 -1 -20 -3 -30 -5c-96 -22 -220 -93 -215 -222c6 -130 111 -168 185 -162c64 5 115 58 160 111c16 19 70 99 91 93c22 -6 8 -47 -12 -73c-65 -84 -135 -213 -260 -211c-120 2 -243 95 -245 258
c-3 141 92 231 176 262l-2 5c-71 16 -137 83 -137 163c0 99 76 180 190 181c67 1 136 -31 139 -105z" />
    <glyph glyph-name="aacute" unicode="&#xe1;" 
d="M207 147c10 25 51 236 6 220c-144 -9 -115 -212 -86 -261c28 -48 53 -24 80 41zM502 158c-8 -58 -72 -154 -130 -166c-8 -2 -16 -1 -24 0c-34 6 -62 25 -79 93c-63 -100 -130 -107 -167 -69c-118 122 -121 424 102 402c45 -4 81 -10 57 -36c19 -2 43 -9 48 -33
c8 -11 11 -92 19 -166c7 -68 19 -130 43 -128c21 2 69 70 89 121c13 32 47 21 42 -18zM160 459c-35 6 -28 21 -5 39c40 31 63 52 97 74c23 15 58 -47 34 -60c-29 -16 -88 -39 -126 -53z" />
    <glyph glyph-name="eacute" unicode="&#xe9;" horiz-adv-x="316" 
d="M157 345c-22 -2 -40 -34 -38 -65c3 -52 27 -56 54 -47c30 11 33 34 26 80c-3 18 -17 33 -42 32zM401 157c-13 -89 -89 -164 -175 -167c-125 -4 -187 82 -197 198c-6 66 10 228 110 244c71 12 125 -54 126 -127c1 -63 -9 -112 -85 -132c-31 -8 -50 -6 -67 -1
c6 -57 70 -113 124 -115c53 -2 97 50 117 104c19 52 55 50 47 -4zM160 459c-35 6 -28 21 -5 39c40 31 63 52 97 74c23 15 58 -47 34 -60c-29 -16 -88 -39 -126 -53z" />
    <glyph glyph-name="iacute" unicode="&#xed;" horiz-adv-x="188" 
d="M277 163c-9 -93 -130 -247 -214 -117c-26 40 -26 138 -26 186c0 0 -6 110 -3 149c4 51 37 57 37 55c0 -3 52 7 51 -65c0 -15 1 -121 0 -145c-1 -45 0 -131 20 -157c27 -35 86 90 93 112c10 33 46 21 42 -18zM77 459c-35 6 -28 21 -5 39c40 31 63 52 97 74
c23 15 58 -47 34 -60c-29 -16 -88 -39 -126 -53z" />
    <glyph glyph-name="oacute" unicode="&#xf3;" horiz-adv-x="347" 
d="M34 289c8 37 19 48 53 44c5 -1 -13 28 -2 55c11 24 41 51 74 53c46 6 95 -1 123 -67c31 -79 35 -150 27 -196c26 -3 89 -3 97 -3c38 0 28 -42 3 -52c-16 -10 -74 -11 -108 -7c-25 -64 -54 -132 -137 -127c-31 1 -51 11 -70 29c-54 53 -84 149 -60 271zM249 127
c-66 18 -127 64 -141 128c-10 -85 16 -199 76 -195c37 2 65 52 65 67zM168 320c-1 -25 26 -100 88 -120c2 110 -78 265 -88 120zM160 459c-35 6 -28 21 -5 39c40 31 63 52 97 74c23 15 58 -47 34 -60c-29 -16 -88 -39 -126 -53z" />
    <glyph glyph-name="uacute" unicode="&#xfa;" horiz-adv-x="430" 
d="M407 -7c-69 4 -110 89 -130 151c-9 -14 -35 -152 -137 -148c-132 5 -114 276 -114 382c0 18 5 60 47 57c28 -2 39 -30 38 -55c4 -40 -4 -288 46 -288c41 0 60 95 63 154c2 37 1 67 3 122c1 19 15 52 40 54c41 3 45 -50 47 -76c4 -57 65 -279 105 -276c21 2 44 49 61 106
c10 33 49 21 42 -18c-6 -49 -50 -168 -111 -165zM160 459c-35 6 -28 21 -5 39c40 31 63 52 97 74c23 15 58 -47 34 -60c-29 -16 -88 -39 -126 -53z" />
    <glyph glyph-name="Aacute" unicode="&#xc1;" horiz-adv-x="521" 
d="M379 93c-18 60 -23 128 -29 171c-27 -97 -79 -342 -202 -339c-114 4 -171 248 -149 480c19 210 102 411 264 406c38 -1 103 -38 125 -58c11 -6 17 -14 14 -24c-2 -8 -4 -17 -10 -27c-6 -14 -17 -23 -26 -29c-18 -10 -24 1 -34 12c-14 15 -34 17 -61 22
c-133 18 -189 -224 -189 -339c0 -101 -3 -347 91 -342c89 4 157 392 175 543c4 28 6 52 8 70c4 27 7 31 24 39c12 5 44 7 61 -4c13 -8 19 -15 17 -43c-7 -97 -22 -189 -22 -285c0 -47 1 -102 7 -152c7 -68 21 -141 45 -139c21 2 58 64 75 121c10 33 49 21 42 -18
c-15 -51 -28 -75 -37 -93c-28 -55 -67 -79 -103 -73c-34 6 -69 33 -86 101zM222 851c-35 6 -28 21 -5 39c40 31 63 52 97 74c23 15 58 -47 34 -60c-29 -16 -88 -39 -126 -53z" />
    <glyph glyph-name="Iacute" unicode="&#xcd;" horiz-adv-x="370" 
d="M254 782c0 0 0 -3 1 -4c11 31 38 57 72 40c18 -9 39 -29 29 -71c-25 -116 4 -323 11 -501c9 -194 -4 -299 -65 -340c-31 -21 -71 -24 -126 -6c-63 21 -52 62 -43 75c18 27 68 11 84 0c25 -15 38 -6 48 17c21 55 19 188 18 217c-4 94 -9 175 -14 248
c-9 -34 -38 -160 -38 -176c0 -26 4 -45 -3 -65c-9 -23 -31 -16 -41 -7c-14 5 -19 34 -19 48c0 42 15 107 29 148c45 112 28 249 57 377zM309 851c-35 6 -28 21 -5 39c40 31 63 52 97 74c23 15 58 -47 34 -60c-29 -16 -88 -39 -126 -53z" />
    <glyph glyph-name="Oacute" unicode="&#xd3;" horiz-adv-x="490" 
d="M112 -95c-100 5 -128 226 -95 438c-28 64 -45 143 -43 234c5 159 100 258 213 259c181 2 261 -164 253 -364c-7 -164 -149 -577 -328 -567zM118 202c-9 7 -17 16 -26 25c-6 -133 5 -247 45 -231c99 42 169 219 208 377c70 288 -50 385 -128 386
c-89 1 -156 -103 -156 -238c17 46 37 88 61 121c14 20 33 13 40 -9c10 -33 -2 -37 -6 -56c-24 -39 -44 -136 -55 -241c6 -15 13 -29 21 -43c32 -59 71 -75 82 -78c27 -8 52 -21 28 -47c-11 -12 -76 0 -114 34zM222 880c-35 6 -28 21 -5 39c40 31 63 52 97 74
c23 15 58 -47 34 -60c-29 -16 -88 -39 -126 -53z" />
    <glyph glyph-name="Uacute" unicode="&#xda;" horiz-adv-x="533" 
d="M58 218c25 -255 109 -335 171 -335c56 2 94 52 121 127c18 -45 50 -70 106 -67c118 4 121 215 139 299c6 32 12 63 -13 64c-26 1 -26 -31 -31 -54c-22 -107 -43 -248 -107 -235c-34 7 -43 74 -42 168c1 196 -1 367 1 522c0 37 -1 107 -59 101c-59 -5 -57 -57 -52 -108
c19 -137 28 -494 5 -657c-6 -47 -19 -61 -34 -62c-112 -9 -133 390 -137 546c-3 118 -103 107 -101 -12c1 -68 10 -133 18 -191zM195 851c-35 6 -28 21 -5 39c40 31 63 52 97 74c23 15 58 -47 34 -60c-29 -16 -88 -39 -126 -53z" />
    <glyph glyph-name="yacute" unicode="&#xfd;" horiz-adv-x="364" 
d="M12 404c71 48 75 -79 79 -95c28 -119 78 -232 99 -217c12 9 14 57 -6 199c-4 25 -13 98 15 119c66 44 95 -68 117 -117c46 -104 43 -270 43 -420c0 -123 -20 -262 -79 -372c-27 -51 -71 -88 -120 -104c-38 -13 -82 -11 -128 10c-28 13 -30 40 -19 58c14 23 44 9 86 2
c118 -20 182 181 184 389c2 168 -10 333 -42 405c8 -60 12 -106 11 -168c-1 -63 -19 -94 -49 -102c-19 -5 -47 6 -67 30c-57 69 -116 222 -133 290c-6 24 -9 81 9 93zM160 459c-35 6 -28 21 -5 39c40 31 63 52 97 74c23 15 58 -47 34 -60c-29 -16 -88 -39 -126 -53z" />
    <glyph glyph-name="Yacute" unicode="&#xdd;" horiz-adv-x="459" 
d="M78 605c59 8 68 -52 69 -82c3 -38 0 -310 83 -310c12 0 30 4 43 12c-4 40 -6 591 128 586c41 -2 65 -37 71 -85c7 -77 0 -166 -11 -248c-16 -128 -43 -207 -80 -271c-3 -91 1 -200 -4 -308c-6 -138 -58 -280 -214 -307c-60 -9 -136 -14 -150 -14c-26 0 -142 -10 -176 -5
c-24 5 -37 16 -37 30c0 21 20 36 65 37c16 0 136 9 159 12c320 39 239 229 257 486c-69 -33 -132 -3 -154 14c-77 59 -100 254 -93 376c2 35 13 73 44 77zM429 652c7 44 -8 53 -18 53c-34 0 -33 -335 -40 -380c43 85 43 219 58 327zM229 818c-35 6 -28 21 -5 39
c40 31 63 52 97 74c23 15 58 -47 34 -60c-29 -16 -88 -39 -126 -53z" />
    <glyph glyph-name="Ntilde" unicode="&#xd1;" horiz-adv-x="840" 
d="M520 292c22 -98 49 -318 187 -318c106 0 203 243 203 331c0 4 6 24 -11 28c-16 5 -18 -17 -18 -17c-22 -72 -104 -266 -176 -251c-75 14 -96 164 -114 265c-6 86 -8 155 -5 212c1 34 4 102 -37 100c-22 -2 -32 -46 -47 -107c-34 -133 -72 -357 -108 -469
c-17 -47 -19 -73 -40 -72c-53 3 0 467 -17 715c-4 60 -14 98 -34 98c-40 0 -47 -38 -62 -69c-109 -223 -136 -295 -170 -342c-35 -47 -29 -71 -13 -81c16 -12 36 -8 61 24c52 70 112 216 131 248c-7 -209 -36 -350 -10 -583c6 -68 47 -114 106 -121c71 -5 86 76 106 134
c38 120 68 275 68 275zM379 859l-36 -24c-26 -12 -42 19 -20 34c20 16 42 48 74 48c31 1 50 -25 84 -28c14 -1 30 1 51 11c26 12 45 -11 25 -31c-32 -33 -58 -43 -79 -42c-35 1 -59 30 -90 32h-9z" />
    <glyph glyph-name="atilde" unicode="&#xe3;" 
d="M207 147c10 25 51 236 6 220c-144 -9 -115 -212 -86 -261c28 -48 53 -24 80 41zM502 158c-8 -58 -72 -154 -130 -166c-8 -2 -16 -1 -24 0c-34 6 -62 25 -79 93c-63 -100 -130 -107 -167 -69c-118 122 -121 424 102 402c45 -4 81 -10 57 -36c19 -2 43 -9 48 -33
c8 -11 11 -92 19 -166c7 -68 19 -130 43 -128c21 2 69 70 89 121c13 32 47 21 42 -18zM145 498l-36 -24c-26 -12 -42 19 -20 34c20 16 42 48 74 48c31 1 50 -25 84 -28c14 -1 30 1 51 11c26 12 45 -11 25 -31c-32 -33 -58 -43 -79 -42c-35 1 -59 30 -90 32h-9z" />
    <glyph glyph-name="ntilde" unicode="&#xf1;" horiz-adv-x="482" 
d="M99 380c5 20 15 52 38 52c47 0 47 -46 45 -92c-3 -51 -5 -129 -4 -185c30 85 84 251 133 254c70 3 146 -245 179 -348c11 -34 10 -50 -14 -61c-10 -5 -20 -10 -33 -10c-68 -1 -108 297 -142 296c-39 -1 -74 -307 -145 -297c-31 5 -52 26 -52 65s8 148 6 187
c-3 -45 -21 -88 -30 -115c-18 -56 -72 -68 -47 11c18 57 50 183 66 243zM168 498l-36 -24c-26 -12 -42 19 -20 34c20 16 42 48 74 48c31 1 50 -25 84 -28c14 -1 30 1 51 11c26 12 45 -11 25 -31c-32 -33 -58 -43 -79 -42c-35 1 -59 30 -90 32h-9z" />
    <glyph glyph-name="otilde" unicode="&#xf5;" horiz-adv-x="347" 
d="M34 289c8 37 19 48 53 44c5 -1 -13 28 -2 55c11 24 41 51 74 53c46 6 95 -1 123 -67c31 -79 35 -150 27 -196c26 -3 89 -3 97 -3c38 0 28 -42 3 -52c-16 -10 -74 -11 -108 -7c-25 -64 -54 -132 -137 -127c-31 1 -51 11 -70 29c-54 53 -84 149 -60 271zM249 127
c-66 18 -127 64 -141 128c-10 -85 16 -199 76 -195c37 2 65 52 65 67zM168 320c-1 -25 26 -100 88 -120c2 110 -78 265 -88 120zM145 498l-36 -24c-26 -12 -42 19 -20 34c20 16 42 48 74 48c31 1 50 -25 84 -28c14 -1 30 1 51 11c26 12 45 -11 25 -31
c-32 -33 -58 -43 -79 -42c-35 1 -59 30 -90 32h-9z" />
    <glyph glyph-name="Atilde" unicode="&#xc3;" horiz-adv-x="521" 
d="M379 93c-18 60 -23 128 -29 171c-27 -97 -79 -342 -202 -339c-114 4 -171 248 -149 480c19 210 102 411 264 406c38 -1 103 -38 125 -58c11 -6 17 -14 14 -24c-2 -8 -4 -17 -10 -27c-6 -14 -17 -23 -26 -29c-18 -10 -24 1 -34 12c-14 15 -34 17 -61 22
c-133 18 -189 -224 -189 -339c0 -101 -3 -347 91 -342c89 4 157 392 175 543c4 28 6 52 8 70c4 27 7 31 24 39c12 5 44 7 61 -4c13 -8 19 -15 17 -43c-7 -97 -22 -189 -22 -285c0 -47 1 -102 7 -152c7 -68 21 -141 45 -139c21 2 58 64 75 121c10 33 49 21 42 -18
c-15 -51 -28 -75 -37 -93c-28 -55 -67 -79 -103 -73c-34 6 -69 33 -86 101zM181 888l-36 -24c-26 -12 -42 19 -20 34c20 16 42 48 74 48c31 1 50 -25 84 -28c14 -1 30 1 51 11c26 12 45 -11 25 -31c-32 -33 -58 -43 -79 -42c-35 1 -59 30 -90 32h-9z" />
    <glyph glyph-name="Otilde" unicode="&#xd5;" horiz-adv-x="490" 
d="M112 -95c-100 5 -128 226 -95 438c-28 64 -45 143 -43 234c5 159 100 258 213 259c181 2 261 -164 253 -364c-7 -164 -149 -577 -328 -567zM118 202c-9 7 -17 16 -26 25c-6 -133 5 -247 45 -231c99 42 169 219 208 377c70 288 -50 385 -128 386
c-89 1 -156 -103 -156 -238c17 46 37 88 61 121c14 20 33 13 40 -9c10 -33 -2 -37 -6 -56c-24 -39 -44 -136 -55 -241c6 -15 13 -29 21 -43c32 -59 71 -75 82 -78c27 -8 52 -21 28 -47c-11 -12 -76 0 -114 34zM151 888l-36 -24c-26 -12 -42 19 -20 34c20 16 42 48 74 48
c31 1 50 -25 84 -28c14 -1 30 1 51 11c26 12 45 -11 25 -31c-32 -33 -58 -43 -79 -42c-35 1 -59 30 -90 32h-9z" />
    <glyph glyph-name="Odieresis" unicode="&#xd6;" horiz-adv-x="490" 
d="M112 -95c-100 5 -128 226 -95 438c-28 64 -45 143 -43 234c5 159 100 258 213 259c181 2 261 -164 253 -364c-7 -164 -149 -577 -328 -567zM118 202c-9 7 -17 16 -26 25c-6 -133 5 -247 45 -231c99 42 169 219 208 377c70 288 -50 385 -128 386
c-89 1 -156 -103 -156 -238c17 46 37 88 61 121c14 20 33 13 40 -9c10 -33 -2 -37 -6 -56c-24 -39 -44 -136 -55 -241c6 -15 13 -29 21 -43c32 -59 71 -75 82 -78c27 -8 52 -21 28 -47c-11 -12 -76 0 -114 34zM249 946c17 6 33 9 40 -5c35 -21 23 -77 -24 -74
c-64 3 -56 59 -16 79zM151 928c13 -21 -5 -59 -33 -59c-57 0 -57 78 2 76c12 -1 24 -6 31 -17z" />
    <glyph glyph-name="Udieresis" unicode="&#xdc;" horiz-adv-x="533" 
d="M58 218c25 -255 109 -335 171 -335c56 2 94 52 121 127c18 -45 50 -70 106 -67c118 4 121 215 139 299c6 32 12 63 -13 64c-26 1 -26 -31 -31 -54c-22 -107 -43 -248 -107 -235c-34 7 -43 74 -42 168c1 196 -1 367 1 522c0 37 -1 107 -59 101c-59 -5 -57 -57 -52 -108
c19 -137 28 -494 5 -657c-6 -47 -19 -61 -34 -62c-112 -9 -133 390 -137 546c-3 118 -103 107 -101 -12c1 -68 10 -133 18 -191zM233 882c17 6 33 9 40 -5c35 -21 23 -77 -24 -74c-64 3 -56 59 -16 79zM135 864c13 -21 -5 -59 -33 -59c-57 0 -57 78 2 76c12 -1 24 -6 31 -17
z" />
    <glyph glyph-name="agrave" unicode="&#xe0;" 
d="M207 147c10 25 51 236 6 220c-144 -9 -115 -212 -86 -261c28 -48 53 -24 80 41zM502 158c-8 -58 -72 -154 -130 -166c-8 -2 -16 -1 -24 0c-34 6 -62 25 -79 93c-63 -100 -130 -107 -167 -69c-118 122 -121 424 102 402c45 -4 81 -10 57 -36c19 -2 43 -9 48 -33
c8 -11 11 -92 19 -166c7 -68 19 -130 43 -128c21 2 69 70 89 121c13 32 47 21 42 -18zM185 463c-38 14 -97 37 -126 53c-24 13 11 75 34 60c34 -22 57 -43 97 -74c23 -18 30 -33 -5 -39z" />
    <glyph glyph-name="egrave" unicode="&#xe8;" horiz-adv-x="316" 
d="M157 345c-22 -2 -40 -34 -38 -65c3 -52 27 -56 54 -47c30 11 33 34 26 80c-3 18 -17 33 -42 32zM401 157c-13 -89 -89 -164 -175 -167c-125 -4 -187 82 -197 198c-6 66 10 228 110 244c71 12 125 -54 126 -127c1 -63 -9 -112 -85 -132c-31 -8 -50 -6 -67 -1
c6 -57 70 -113 124 -115c53 -2 97 50 117 104c19 52 55 50 47 -4zM185 463c-38 14 -97 37 -126 53c-24 13 11 75 34 60c34 -22 57 -43 97 -74c23 -18 30 -33 -5 -39z" />
    <glyph glyph-name="igrave" unicode="&#xec;" horiz-adv-x="188" 
d="M277 163c-9 -93 -130 -247 -214 -117c-26 40 -26 138 -26 186c0 0 -6 110 -3 149c4 51 37 57 37 55c0 -3 52 7 51 -65c0 -15 1 -121 0 -145c-1 -45 0 -131 20 -157c27 -35 86 90 93 112c10 33 46 21 42 -18zM105 463c-38 14 -97 37 -126 53c-24 13 11 75 34 60
c34 -22 57 -43 97 -74c23 -18 30 -33 -5 -39z" />
    <glyph glyph-name="ograve" unicode="&#xf2;" horiz-adv-x="347" 
d="M34 289c8 37 19 48 53 44c5 -1 -13 28 -2 55c11 24 41 51 74 53c46 6 95 -1 123 -67c31 -79 35 -150 27 -196c26 -3 89 -3 97 -3c38 0 28 -42 3 -52c-16 -10 -74 -11 -108 -7c-25 -64 -54 -132 -137 -127c-31 1 -51 11 -70 29c-54 53 -84 149 -60 271zM249 127
c-66 18 -127 64 -141 128c-10 -85 16 -199 76 -195c37 2 65 52 65 67zM168 320c-1 -25 26 -100 88 -120c2 110 -78 265 -88 120zM185 463c-38 14 -97 37 -126 53c-24 13 11 75 34 60c34 -22 57 -43 97 -74c23 -18 30 -33 -5 -39z" />
    <glyph glyph-name="ugrave" unicode="&#xf9;" horiz-adv-x="430" 
d="M407 -7c-69 4 -110 89 -130 151c-9 -14 -35 -152 -137 -148c-132 5 -114 276 -114 382c0 18 5 60 47 57c28 -2 39 -30 38 -55c4 -40 -4 -288 46 -288c41 0 60 95 63 154c2 37 1 67 3 122c1 19 15 52 40 54c41 3 45 -50 47 -76c4 -57 65 -279 105 -276c21 2 44 49 61 106
c10 33 49 21 42 -18c-6 -49 -50 -168 -111 -165zM185 463c-38 14 -97 37 -126 53c-24 13 11 75 34 60c34 -22 57 -43 97 -74c23 -18 30 -33 -5 -39z" />
    <glyph glyph-name="Agrave" unicode="&#xc0;" horiz-adv-x="521" 
d="M379 93c-18 60 -23 128 -29 171c-27 -97 -79 -342 -202 -339c-114 4 -171 248 -149 480c19 210 102 411 264 406c38 -1 103 -38 125 -58c11 -6 17 -14 14 -24c-2 -8 -4 -17 -10 -27c-6 -14 -17 -23 -26 -29c-18 -10 -24 1 -34 12c-14 15 -34 17 -61 22
c-133 18 -189 -224 -189 -339c0 -101 -3 -347 91 -342c89 4 157 392 175 543c4 28 6 52 8 70c4 27 7 31 24 39c12 5 44 7 61 -4c13 -8 19 -15 17 -43c-7 -97 -22 -189 -22 -285c0 -47 1 -102 7 -152c7 -68 21 -141 45 -139c21 2 58 64 75 121c10 33 49 21 42 -18
c-15 -51 -28 -75 -37 -93c-28 -55 -67 -79 -103 -73c-34 6 -69 33 -86 101zM259 855c-38 14 -97 37 -126 53c-24 13 11 75 34 60c34 -22 57 -43 97 -74c23 -18 30 -33 -5 -39z" />
    <glyph glyph-name="Egrave" unicode="&#xc8;" horiz-adv-x="445" 
d="M259 855c-38 14 -97 37 -126 53c-24 13 11 75 34 60c34 -22 57 -43 97 -74c23 -18 30 -33 -5 -39zM381 715c4 -90 -63 -120 -116 -123c-32 -2 -47 15 -47 31c0 24 18 33 38 34c26 2 67 9 68 51c1 31 -40 45 -81 43c-51 -2 -103 -45 -103 -111c0 -65 55 -103 120 -118
c21 -5 84 -14 93 -17c15 -5 26 -18 26 -41c1 -24 -11 -41 -38 -44c-10 -1 -20 -3 -30 -5c-96 -22 -220 -93 -215 -222c6 -130 111 -168 185 -162c64 5 115 58 160 111c16 19 70 99 91 93c22 -6 8 -47 -12 -73c-65 -84 -135 -213 -260 -211c-120 2 -243 95 -245 258
c-3 141 92 231 176 262l-2 5c-71 16 -137 83 -137 163c0 99 76 180 190 181c67 1 136 -31 139 -105z" />
    <glyph glyph-name="Ograve" unicode="&#xd2;" horiz-adv-x="490" 
d="M112 -95c-100 5 -128 226 -95 438c-28 64 -45 143 -43 234c5 159 100 258 213 259c181 2 261 -164 253 -364c-7 -164 -149 -577 -328 -567zM118 202c-9 7 -17 16 -26 25c-6 -133 5 -247 45 -231c99 42 169 219 208 377c70 288 -50 385 -128 386
c-89 1 -156 -103 -156 -238c17 46 37 88 61 121c14 20 33 13 40 -9c10 -33 -2 -37 -6 -56c-24 -39 -44 -136 -55 -241c6 -15 13 -29 21 -43c32 -59 71 -75 82 -78c27 -8 52 -21 28 -47c-11 -12 -76 0 -114 34zM224 855c-38 14 -97 37 -126 53c-24 13 11 75 34 60
c34 -22 57 -43 97 -74c23 -18 30 -33 -5 -39z" />
    <glyph glyph-name="Igrave" unicode="&#xcc;" horiz-adv-x="370" 
d="M254 782c0 0 0 -3 1 -4c11 31 38 57 72 40c18 -9 39 -29 29 -71c-25 -116 4 -323 11 -501c9 -194 -4 -299 -65 -340c-31 -21 -71 -24 -126 -6c-63 21 -52 62 -43 75c18 27 68 11 84 0c25 -15 38 -6 48 17c21 55 19 188 18 217c-4 94 -9 175 -14 248
c-9 -34 -38 -160 -38 -176c0 -26 4 -45 -3 -65c-9 -23 -31 -16 -41 -7c-14 5 -19 34 -19 48c0 42 15 107 29 148c45 112 28 249 57 377zM305 855c-38 14 -97 37 -126 53c-24 13 11 75 34 60c34 -22 57 -43 97 -74c23 -18 30 -33 -5 -39z" />
    <glyph glyph-name="Ugrave" unicode="&#xd9;" horiz-adv-x="533" 
d="M58 218c25 -255 109 -335 171 -335c56 2 94 52 121 127c18 -45 50 -70 106 -67c118 4 121 215 139 299c6 32 12 63 -13 64c-26 1 -26 -31 -31 -54c-22 -107 -43 -248 -107 -235c-34 7 -43 74 -42 168c1 196 -1 367 1 522c0 37 -1 107 -59 101c-59 -5 -57 -57 -52 -108
c19 -137 28 -494 5 -657c-6 -47 -19 -61 -34 -62c-112 -9 -133 390 -137 546c-3 118 -103 107 -101 -12c1 -68 10 -133 18 -191zM259 855c-38 14 -97 37 -126 53c-24 13 11 75 34 60c34 -22 57 -43 97 -74c23 -18 30 -33 -5 -39z" />
    <glyph glyph-name="acircumflex" unicode="&#xe2;" 
d="M207 147c10 25 51 236 6 220c-144 -9 -115 -212 -86 -261c28 -48 53 -24 80 41zM502 158c-8 -58 -72 -154 -130 -166c-8 -2 -16 -1 -24 0c-34 6 -62 25 -79 93c-63 -100 -130 -107 -167 -69c-118 122 -121 424 102 402c45 -4 81 -10 57 -36c19 -2 43 -9 48 -33
c8 -11 11 -92 19 -166c7 -68 19 -130 43 -128c21 2 69 70 89 121c13 32 47 21 42 -18zM119 461c-23 -14 -52 10 -14 39c29 27 76 79 94 80s62 -46 88 -77c32 -31 13 -64 -19 -36c-27 20 -56 43 -71 42c-24 -2 -37 -18 -78 -48z" />
    <glyph glyph-name="ecircumflex" unicode="&#xea;" horiz-adv-x="316" 
d="M157 345c-22 -2 -40 -34 -38 -65c3 -52 27 -56 54 -47c30 11 33 34 26 80c-3 18 -17 33 -42 32zM401 157c-13 -89 -89 -164 -175 -167c-125 -4 -187 82 -197 198c-6 66 10 228 110 244c71 12 125 -54 126 -127c1 -63 -9 -112 -85 -132c-31 -8 -50 -6 -67 -1
c6 -57 70 -113 124 -115c53 -2 97 50 117 104c19 52 55 50 47 -4zM78 461c-23 -14 -52 10 -14 39c29 27 76 79 94 80s62 -46 88 -77c32 -31 13 -64 -19 -36c-27 20 -56 43 -71 42c-24 -2 -37 -18 -78 -48z" />
    <glyph glyph-name="icircumflex" unicode="&#xee;" horiz-adv-x="188" 
d="M277 163c-9 -93 -130 -247 -214 -117c-26 40 -26 138 -26 186c0 0 -6 110 -3 149c4 51 37 57 37 55c0 -3 52 7 51 -65c0 -15 1 -121 0 -145c-1 -45 0 -131 20 -157c27 -35 86 90 93 112c10 33 46 21 42 -18zM2 461c-23 -14 -52 10 -14 39c29 27 76 79 94 80
s62 -46 88 -77c32 -31 13 -64 -19 -36c-27 20 -56 43 -71 42c-24 -2 -37 -18 -78 -48z" />
    <glyph glyph-name="ocircumflex" unicode="&#xf4;" horiz-adv-x="347" 
d="M34 289c8 37 19 48 53 44c5 -1 -13 28 -2 55c11 24 41 51 74 53c46 6 95 -1 123 -67c31 -79 35 -150 27 -196c26 -3 89 -3 97 -3c38 0 28 -42 3 -52c-16 -10 -74 -11 -108 -7c-25 -64 -54 -132 -137 -127c-31 1 -51 11 -70 29c-54 53 -84 149 -60 271zM249 127
c-66 18 -127 64 -141 128c-10 -85 16 -199 76 -195c37 2 65 52 65 67zM168 320c-1 -25 26 -100 88 -120c2 110 -78 265 -88 120zM87 461c-23 -14 -52 10 -14 39c29 27 76 79 94 80s62 -46 88 -77c32 -31 13 -64 -19 -36c-27 20 -56 43 -71 42c-24 -2 -37 -18 -78 -48z" />
    <glyph glyph-name="ucircumflex" unicode="&#xfb;" horiz-adv-x="430" 
d="M407 -7c-69 4 -110 89 -130 151c-9 -14 -35 -152 -137 -148c-132 5 -114 276 -114 382c0 18 5 60 47 57c28 -2 39 -30 38 -55c4 -40 -4 -288 46 -288c41 0 60 95 63 154c2 37 1 67 3 122c1 19 15 52 40 54c41 3 45 -50 47 -76c4 -57 65 -279 105 -276c21 2 44 49 61 106
c10 33 49 21 42 -18c-6 -49 -50 -168 -111 -165zM78 461c-23 -14 -52 10 -14 39c29 27 76 79 94 80s62 -46 88 -77c32 -31 13 -64 -19 -36c-27 20 -56 43 -71 42c-24 -2 -37 -18 -78 -48z" />
    <glyph glyph-name="Icircumflex" unicode="&#xce;" horiz-adv-x="370" 
d="M254 782c0 0 0 -3 1 -4c11 31 38 57 72 40c18 -9 39 -29 29 -71c-25 -116 4 -323 11 -501c9 -194 -4 -299 -65 -340c-31 -21 -71 -24 -126 -6c-63 21 -52 62 -43 75c18 27 68 11 84 0c25 -15 38 -6 48 17c21 55 19 188 18 217c-4 94 -9 175 -14 248
c-9 -34 -38 -160 -38 -176c0 -26 4 -45 -3 -65c-9 -23 -31 -16 -41 -7c-14 5 -19 34 -19 48c0 42 15 107 29 148c45 112 28 249 57 377zM231 843c-23 -14 -52 10 -14 39c29 27 76 79 94 80s62 -46 88 -77c32 -31 13 -64 -19 -36c-27 20 -56 43 -71 42
c-24 -2 -37 -18 -78 -48z" />
    <glyph glyph-name="Ocircumflex" unicode="&#xd4;" horiz-adv-x="490" 
d="M112 -95c-100 5 -128 226 -95 438c-28 64 -45 143 -43 234c5 159 100 258 213 259c181 2 261 -164 253 -364c-7 -164 -149 -577 -328 -567zM118 202c-9 7 -17 16 -26 25c-6 -133 5 -247 45 -231c99 42 169 219 208 377c70 288 -50 385 -128 386
c-89 1 -156 -103 -156 -238c17 46 37 88 61 121c14 20 33 13 40 -9c10 -33 -2 -37 -6 -56c-24 -39 -44 -136 -55 -241c6 -15 13 -29 21 -43c32 -59 71 -75 82 -78c27 -8 52 -21 28 -47c-11 -12 -76 0 -114 34zM123 876c-23 -14 -52 10 -14 39c29 27 76 79 94 80
s62 -46 88 -77c32 -31 13 -64 -19 -36c-27 20 -56 43 -71 42c-24 -2 -37 -18 -78 -48z" />
    <glyph glyph-name="Ucircumflex" unicode="&#xdb;" horiz-adv-x="533" 
d="M58 218c25 -255 109 -335 171 -335c56 2 94 52 121 127c18 -45 50 -70 106 -67c118 4 121 215 139 299c6 32 12 63 -13 64c-26 1 -26 -31 -31 -54c-22 -107 -43 -248 -107 -235c-34 7 -43 74 -42 168c1 196 -1 367 1 522c0 37 -1 107 -59 101c-59 -5 -57 -57 -52 -108
c19 -137 28 -494 5 -657c-6 -47 -19 -61 -34 -62c-112 -9 -133 390 -137 546c-3 118 -103 107 -101 -12c1 -68 10 -133 18 -191zM123 876c-23 -14 -52 10 -14 39c29 27 76 79 94 80s62 -46 88 -77c32 -31 13 -64 -19 -36c-27 20 -56 43 -71 42c-24 -2 -37 -18 -78 -48z" />
    <glyph glyph-name="Scaron" unicode="&#x160;" horiz-adv-x="609" 
d="M456 743c17 -20 46 -92 15 -111c-13 -8 -21 -4 -43 33c-18 28 -73 61 -123 61c-38 0 -94 -16 -97 -58c-13 -140 384 -117 389 -473c3 -197 -146 -292 -306 -288c-92 2 -259 58 -258 208c1 131 139 195 244 197c87 2 166 -53 184 -99c15 -39 6 -50 -9 -55
c-8 -3 -19 -6 -29 0s-12 31 -28 47c-30 30 -56 38 -112 36c-80 -3 -133 -70 -131 -135c2 -71 63 -123 153 -125c120 -2 192 67 185 203c-15 284 -425 253 -403 478c7 63 65 152 199 150c61 -1 125 -14 170 -69zM201 972c41 -30 54 -46 78 -48c15 -1 44 22 71 42
c32 28 51 -5 19 -36c-26 -31 -70 -78 -88 -77s-65 53 -94 80c-38 29 -9 53 14 39z" />
    <glyph glyph-name="scaron" unicode="&#x161;" horiz-adv-x="288" 
d="M289 58c-4 -57 -58 -76 -127 -76c-87 3 -168 62 -162 143c0 31 16 67 38 80c23 13 51 1 33 -28c-35 -59 31 -107 88 -115c15 -2 26 7 26 18c2 65 -157 168 -156 252c1 59 47 96 108 100c27 2 81 -13 99 -15c29 -3 36 -39 29 -57c-6 -20 -30 -31 -47 -27
c-24 5 -89 55 -103 1c-6 -23 24 -50 49 -78c55 -61 131 -122 125 -198zM67 585c41 -30 54 -46 78 -48c15 -1 44 22 71 42c32 28 51 -5 19 -36c-26 -31 -70 -78 -88 -77s-65 53 -94 80c-38 29 -9 53 14 39z" />
    <glyph glyph-name="Zcaron" unicode="&#x17d;" horiz-adv-x="474" 
d="M139 755c-21 -7 -49 -26 -42 -62c3 -20 33 -30 54 -29c61 4 151 -13 150 -85c-2 -119 -100 -159 -196 -176c-23 -4 -28 -29 -27 -43c0 -7 7 -48 25 -48c116 0 197 -68 239 -162c-76 -10 -156 -32 -215 -80c-67 -56 -104 -144 -106 -229c-6 -148 102 -226 210 -225
c182 1 243 223 240 375c-1 38 -7 80 -19 122c20 0 38 -3 53 -6c39 -8 57 -8 58 8c2 27 -32 35 -54 38c-21 1 -46 2 -72 2c-39 99 -113 188 -227 215c101 27 188 103 185 231c-3 130 -161 185 -256 154zM86 -154c-19 150 138 231 273 257c11 -37 16 -76 17 -116
c0 -99 -36 -269 -145 -271c-77 -1 -137 57 -145 130zM134 940c41 -30 54 -46 78 -48c15 -1 44 22 71 42c32 28 51 -5 19 -36c-26 -31 -70 -78 -88 -77s-65 53 -94 80c-38 29 -9 53 14 39z" />
    <glyph glyph-name="zcaron" unicode="&#x17e;" horiz-adv-x="335" 
d="M41 111c-28 11 17 75 26 134c5 33 13 79 25 105c13 31 37 54 67 62c87 23 149 -76 145 -178c-2 -59 -47 -144 -115 -201c-14 -11 -20 -16 -12 -31c4 -8 9 -19 15 -29c24 20 48 35 74 54c44 31 73 66 104 127c21 41 60 27 47 -14c-2 -8 -9 -19 -12 -26
c-29 -64 -75 -108 -133 -149c-21 -15 -40 -27 -55 -39l7 -16c37 -102 58 -163 62 -265c5 -129 -88 -188 -148 -189c-122 -2 -156 104 -150 184c6 79 63 184 134 268c-6 14 -33 45 -48 99c-11 40 30 52 52 78c27 31 94 116 93 179c-1 55 -20 77 -57 71
c-29 -5 -38 -91 -57 -144c-24 -66 -35 -92 -64 -80zM182 -241l-37 104c-48 -65 -91 -131 -96 -219c-1 -66 30 -103 75 -101c92 4 87 136 58 216zM99 585c41 -30 54 -46 78 -48c15 -1 44 22 71 42c32 28 51 -5 19 -36c-26 -31 -70 -78 -88 -77s-65 53 -94 80
c-38 29 -9 53 14 39z" />
    <glyph glyph-name="Acircumflex" unicode="&#xc2;" horiz-adv-x="521" 
d="M379 93c-18 60 -23 128 -29 171c-27 -97 -79 -342 -202 -339c-114 4 -171 248 -149 480c19 210 102 411 264 406c38 -1 103 -38 125 -58c11 -6 17 -14 14 -24c-2 -8 -4 -17 -10 -27c-6 -14 -17 -23 -26 -29c-18 -10 -24 1 -34 12c-14 15 -34 17 -61 22
c-133 18 -189 -224 -189 -339c0 -101 -3 -347 91 -342c89 4 157 392 175 543c4 28 6 52 8 70c4 27 7 31 24 39c12 5 44 7 61 -4c13 -8 19 -15 17 -43c-7 -97 -22 -189 -22 -285c0 -47 1 -102 7 -152c7 -68 21 -141 45 -139c21 2 58 64 75 121c10 33 49 21 42 -18
c-15 -51 -28 -75 -37 -93c-28 -55 -67 -79 -103 -73c-34 6 -69 33 -86 101zM182 876c-23 -14 -52 10 -14 39c29 27 76 79 94 80s62 -46 88 -77c32 -31 13 -64 -19 -36c-27 20 -56 43 -71 42c-24 -2 -37 -18 -78 -48z" />
    <glyph glyph-name="Ecircumflex" unicode="&#xca;" horiz-adv-x="445" 
d="M154 876c-23 -14 -52 10 -14 39c29 27 76 79 94 80s62 -46 88 -77c32 -31 13 -64 -19 -36c-27 20 -56 43 -71 42c-24 -2 -37 -18 -78 -48zM381 715c4 -90 -63 -120 -116 -123c-32 -2 -47 15 -47 31c0 24 18 33 38 34c26 2 67 9 68 51c1 31 -40 45 -81 43
c-51 -2 -103 -45 -103 -111c0 -65 55 -103 120 -118c21 -5 84 -14 93 -17c15 -5 26 -18 26 -41c1 -24 -11 -41 -38 -44c-10 -1 -20 -3 -30 -5c-96 -22 -220 -93 -215 -222c6 -130 111 -168 185 -162c64 5 115 58 160 111c16 19 70 99 91 93c22 -6 8 -47 -12 -73
c-65 -84 -135 -213 -260 -211c-120 2 -243 95 -245 258c-3 141 92 231 176 262l-2 5c-71 16 -137 83 -137 163c0 99 76 180 190 181c67 1 136 -31 139 -105z" />
    <glyph glyph-name="slash" unicode="/" horiz-adv-x="264" 
d="M21 -59c43 189 159 596 224 820c32 -11 64 -57 60 -91c-47 -137 -183 -655 -225 -818c-32 14 -71 27 -59 89z" />
    <glyph glyph-name="Oslash" unicode="&#xd8;" horiz-adv-x="477" 
d="M52 -86c4 20 11 44 18 71c-24 63 -31 157 -25 258c-35 124 -45 256 -27 351c29 156 107 245 208 242c45 -2 84 -13 117 -31c10 31 19 59 26 84c32 -11 64 -57 60 -91c-5 -13 -11 -32 -18 -53c50 -67 72 -164 68 -273c-5 -114 -75 -346 -176 -475c55 -46 113 -80 154 -86
c28 -4 55 -13 35 -42c-10 -14 -73 -6 -121 12c-23 9 -68 30 -117 65c-33 -27 -67 -43 -103 -41l-16 3c-11 -34 -19 -62 -24 -83c-32 14 -71 27 -59 89zM197 105c15 -19 31 -38 49 -56c63 74 109 206 138 324c32 133 24 226 -2 287c-51 -149 -126 -371 -185 -555zM120 251
c6 -18 12 -36 18 -51c58 174 131 380 183 537c-22 15 -45 21 -65 22c-107 1 -156 -121 -163 -259c18 54 41 103 68 142c14 20 33 13 40 -9c10 -33 -2 -37 -6 -56c-38 -49 -66 -193 -75 -326zM185 0l-17 16l-6 -21c4 -1 9 -1 14 1z" />
    <glyph glyph-name="oslash" unicode="&#xf8;" horiz-adv-x="347" 
d="M73 -33c4 20 9 39 14 58c-50 54 -76 147 -53 264c8 37 19 48 53 44c5 -1 -13 28 -2 55c11 24 41 51 74 53c24 3 48 2 70 -8c14 40 27 82 40 125c32 -11 53 -51 49 -85l-35 -101c30 -78 34 -149 26 -194c26 -3 89 -3 97 -3c38 0 28 -42 3 -52c-16 -10 -74 -11 -108 -7
c-25 -64 -54 -132 -137 -127c-4 0 -7 0 -10 1c-12 -37 -21 -72 -29 -102c-32 14 -64 17 -52 79zM249 127c-16 4 -31 10 -45 17c-10 -28 -19 -56 -28 -84h8c37 2 65 52 65 67zM108 255c-5 -42 -1 -90 11 -129l22 65c-16 18 -28 40 -33 64zM168 320c-1 -8 2 -21 7 -36l32 85
c-18 20 -35 12 -39 -49zM256 200c0 23 -3 48 -9 72c-6 -19 -13 -39 -20 -58c9 -6 18 -11 29 -14z" />
    <glyph glyph-name="eth" unicode="&#xf0;" horiz-adv-x="330" 
d="M198 491l-67 -41c-20 -1 -44 26 -37 39c9 18 37 34 61 52c-11 18 -32 27 -49 39c-20 15 -15 35 -3 48c13 14 36 14 59 4l61 -47c44 32 50 23 55 25c39 18 60 -17 46 -52c-16 -12 -39 -24 -62 -39c40 -76 47 -176 44 -300c-4 -159 -75 -225 -159 -225
c-96 0 -158 133 -152 244c6 129 78 185 120 187c55 3 90 -14 116 -54c6 2 -3 65 -33 120zM157 69c86 0 103 296 -19 278c-114 -14 -101 -282 19 -278z" />
    <glyph glyph-name="Eth" unicode="&#xd0;" horiz-adv-x="541" 
d="M13 387c25 5 44 9 60 14c-6 73 -15 149 -27 223c-7 47 -28 106 18 116c17 4 31 -6 43 -22c16 66 52 115 116 116c154 4 245 -374 262 -518c11 -84 61 -370 -66 -374c-105 -3 -141 211 -205 221c-9 1 -18 -1 -27 -8c3 -58 0 -115 -8 -178c-7 -60 -29 -72 -61 -71
c-25 1 -36 28 -39 43s7 114 7 143c0 50 -2 132 -7 226c-20 -9 -44 -19 -74 -30c-40 -14 -68 4 -72 33c-4 35 48 59 80 66zM170 361l9 -112c10 7 23 11 40 11c65 0 122 -103 149 -151c14 -25 20 -72 38 -68c39 9 23 199 -18 377c-37 160 -96 310 -140 310
c-52 0 -89 -87 -97 -164l6 -57c2 -22 5 -48 7 -76c23 4 53 6 104 3c32 -3 70 -19 66 -36c-3 -7 -1 -23 -24 -22c-65 3 -101 -2 -132 -12c-2 -2 -4 -3 -7 -2c-1 0 -1 -1 -1 -1z" />
    <glyph glyph-name="Lslash" unicode="&#x141;" horiz-adv-x="654" 
d="M150 506c34 7 60 14 83 20c32 230 83 451 246 443c147 -8 126 -201 92 -301c-22 -32 -35 -38 -52 -34c-40 7 -39 39 -23 80c19 49 41 194 -30 187c-34 -3 -76 -144 -118 -347c27 3 58 3 101 1c32 -3 70 -19 66 -36c-3 -7 -1 -23 -24 -22c-69 3 -115 -3 -157 -15
c-11 -57 -22 -116 -32 -178c120 -107 170 -334 350 -192c19 26 42 31 53 19c6 -9 7 -29 -5 -54c-21 -34 -72 -90 -163 -85c-109 6 -190 106 -254 184c-12 -80 -37 -174 -122 -174c-75 0 -121 101 -118 193c2 91 65 168 156 158l12 -2l10 87c-23 -10 -49 -20 -79 -31
c-40 -14 -68 4 -72 33c-4 35 48 59 80 66zM188 198c4 20 7 41 10 63c-15 9 -29 10 -42 3c-69 -39 -24 -155 0 -152c8 1 25 53 32 86z" />
    <glyph glyph-name="lslash" unicode="&#x142;" horiz-adv-x="219" 
d="M260 164c9 31 54 20 47 -17c-5 -40 -49 -163 -111 -167c-111 -7 -170 172 -185 363c-37 -16 -59 -3 -63 26c-3 28 30 49 59 60c-1 180 36 346 107 349c79 3 98 -146 88 -303c41 2 77 -5 93 -30c-3 -7 -1 -21 -24 -22c-29 -1 -52 -4 -74 -8c-13 -124 -42 -242 -72 -284
c29 -63 46 -92 62 -93c27 0 66 103 73 126zM129 673c-16 4 -24 -52 -32 -134c-3 -27 -5 -56 -6 -84c18 5 38 9 58 13c8 103 5 200 -20 205zM106 214c11 8 27 93 37 188c-17 -6 -34 -13 -52 -21c1 -69 6 -131 15 -167z" />
    <glyph glyph-name="percent" unicode="%" horiz-adv-x="677" 
d="M364 174c19 89 97 139 156 139c48 -1 93 -34 93 -111c0 -25 -4 -53 -14 -84c-20 -62 -67 -140 -152 -138c-62 2 -90 60 -90 132c0 21 1 42 7 62zM554 187c0 34 -8 56 -31 59h-1s-63 7 -89 -93c-5 -18 -7 -35 -7 -49c0 -41 14 -67 33 -67c72 0 95 99 95 150zM170 -59
c43 189 159 596 224 820c32 -11 64 -57 60 -91c-47 -137 -183 -655 -225 -818c-32 14 -71 27 -59 89zM49 514c19 89 97 139 156 139c48 -1 93 -34 93 -111c0 -25 -4 -53 -14 -84c-20 -62 -67 -140 -152 -138c-62 2 -90 60 -90 132c0 21 1 42 7 62zM239 527
c0 34 -8 56 -31 59h-1s-63 7 -89 -93c-5 -18 -7 -35 -7 -49c0 -41 14 -67 33 -67c72 0 95 99 95 150z" />
    <glyph glyph-name="perthousand" unicode="&#x2030;" horiz-adv-x="946" 
d="M658 172c19 89 97 139 156 139c48 -1 93 -34 93 -111c0 -25 -4 -53 -14 -84c-20 -62 -67 -140 -152 -138c-62 2 -90 60 -90 132c0 21 1 42 7 62zM848 185c0 34 -8 56 -31 59h-1s-63 7 -89 -93c-5 -18 -7 -35 -7 -49c0 -41 14 -67 33 -67c72 0 95 99 95 150zM364 174
c19 89 97 139 156 139c48 -1 93 -34 93 -111c0 -25 -4 -53 -14 -84c-20 -62 -67 -140 -152 -138c-62 2 -90 60 -90 132c0 21 1 42 7 62zM554 187c0 34 -8 56 -31 59h-1s-63 7 -89 -93c-5 -18 -7 -35 -7 -49c0 -41 14 -67 33 -67c72 0 95 99 95 150zM170 -59
c43 189 159 596 224 820c32 -11 64 -57 60 -91c-47 -137 -183 -655 -225 -818c-32 14 -71 27 -59 89zM49 514c19 89 97 139 156 139c48 -1 93 -34 93 -111c0 -25 -4 -53 -14 -84c-20 -62 -67 -140 -152 -138c-62 2 -90 60 -90 132c0 21 1 42 7 62zM239 527
c0 34 -8 56 -31 59h-1s-63 7 -89 -93c-5 -18 -7 -35 -7 -49c0 -41 14 -67 33 -67c72 0 95 99 95 150z" />
    <glyph glyph-name="fraction" unicode="&#x2044;" horiz-adv-x="264" 
d="M21 -59c43 189 159 596 224 820c32 -11 64 -57 60 -91c-47 -137 -183 -655 -225 -818c-32 14 -71 27 -59 89z" />
    <glyph glyph-name="exclam" unicode="!" horiz-adv-x="286" 
d="M107 548c1 79 101 73 94 2c2 -135 -3 -292 -1 -423c-7 -65 -89 -63 -94 -4c-1 133 2 285 1 425zM89 -22c0 74 125 57 105 -15c-15 -57 -114 -49 -105 15z" />
    <glyph glyph-name="exclamdown" unicode="&#xa1;" horiz-adv-x="286" 
d="M182 -129c-1 -79 -101 -73 -94 -2c-2 135 3 292 1 423c7 65 89 63 94 4c1 -133 -2 -285 -1 -425zM200 441c0 -74 -125 -57 -105 15c15 57 114 49 105 -15z" />
    <glyph glyph-name="quotedbl" unicode="&#x22;" horiz-adv-x="505" 
d="M177 515c-68 10 -27 104 19 70c1 -1 34 -16 22 -60c-1 -51 -56 -118 -79 -118c-21 -16 -47 5 -30 27c30 26 62 34 68 81zM328 516c-68 10 -27 104 19 70c1 -1 34 -16 22 -60c-1 -51 -56 -118 -79 -118c-21 -16 -47 5 -30 27c30 26 62 34 68 81z" />
    <glyph glyph-name="quotesingle" unicode="'" horiz-adv-x="270" 
d="M148 513c-68 10 -27 104 19 70c1 -1 34 -16 22 -60c-1 -51 -56 -118 -79 -118c-21 -16 -47 5 -30 27c30 26 62 34 68 81z" />
    <glyph glyph-name="hyphen" unicode="-" horiz-adv-x="593" 
d="M153 328c88 6 175 2 329 4c-1 -33 -37 -69 -71 -75c-92 3 -163 3 -328 -2c5 35 7 68 70 73z" />
    <glyph glyph-name="plus" unicode="+" horiz-adv-x="582" 
d="M449 253c-37 -2 -81 -2 -131 -1c-1 -48 -1 -100 0 -158c-35 6 -69 -15 -72 31c-2 36 -2 79 -1 128l-166 3c2 33 -7 70 27 76l140 -6l3 169c33 -2 70 7 76 -27c-3 -42 -5 -89 -6 -143c48 -1 101 -1 161 0c-6 -35 15 -69 -31 -72z" />
    <glyph glyph-name="equal" unicode="=" horiz-adv-x="646" 
d="M472 310c-88 -4 -216 2 -370 3c2 33 -7 70 27 76c92 -5 209 -9 374 -7c-6 -35 15 -69 -31 -72zM470 192c-88 -4 -216 2 -370 3c2 33 -7 70 27 76c92 -5 209 -9 374 -7c-6 -35 15 -69 -31 -72z" />
    <glyph glyph-name="notequal" unicode="&#x2260;" horiz-adv-x="582" 
d="M470 192c-45 -2 -99 -2 -163 -1l-57 -223c-32 14 -71 27 -59 89c10 47 21 92 33 136l-124 2c2 33 -7 70 27 76c34 -2 73 -4 116 -5l12 45l-153 2c2 33 -7 70 27 76c43 -3 91 -5 147 -6c21 75 45 154 71 244c32 -11 64 -57 60 -91c-15 -42 -31 -96 -48 -155
c44 0 91 0 144 1c-6 -35 15 -69 -31 -72c-38 -2 -82 -2 -133 -1l-12 -45c51 -1 109 -1 174 0c-6 -35 15 -69 -31 -72z" />
    <glyph glyph-name="numbersign" unicode="#" horiz-adv-x="707" 
d="M305 57c10 46 21 90 32 134l-84 2l-57 -220c-32 14 -71 27 -59 89c10 45 21 89 32 132c-24 1 -47 1 -69 1c2 33 -7 70 27 76l61 -3l21 74c-36 0 -72 1 -107 1c2 33 -7 70 27 76c27 -2 61 -3 100 -4c20 67 41 137 64 217c32 -11 64 -57 60 -91c-12 -35 -26 -80 -40 -128
c27 -1 56 -2 85 -2c19 67 40 137 63 216c32 -11 64 -57 60 -91c-12 -35 -26 -78 -39 -125c24 0 49 0 74 1c-6 -35 15 -69 -31 -72c-18 -1 -40 -2 -64 -2c-7 -24 -13 -49 -20 -75c37 0 75 0 113 1c-6 -35 15 -69 -31 -72c-27 -1 -62 -2 -102 -2l-57 -222
c-32 14 -71 27 -59 89zM292 340l-20 -75c26 0 55 -1 84 -1l21 75c-27 0 -55 0 -85 1z" />
    <glyph glyph-name="quoteleft" unicode="&#x2018;" horiz-adv-x="270" 
d="M116 493c68 -10 27 -104 -19 -70c-1 1 -34 16 -22 60c1 51 56 118 79 118c21 16 47 -5 30 -27c-30 -26 -62 -34 -68 -81z" />
    <glyph glyph-name="quoteright" unicode="&#x2019;" horiz-adv-x="270" 
d="M148 513c-68 10 -27 104 19 70c1 -1 34 -16 22 -60c-1 -51 -56 -118 -79 -118c-21 -16 -47 5 -30 27c30 26 62 34 68 81z" />
    <glyph glyph-name="quotedblleft" unicode="&#x201c;" horiz-adv-x="371" 
d="M243 490c68 -10 27 -104 -19 -70c-1 1 -34 16 -22 60c1 51 56 118 79 118c21 16 47 -5 30 -27c-30 -26 -62 -34 -68 -81zM116 493c68 -10 27 -104 -19 -70c-1 1 -34 16 -22 60c1 51 56 118 79 118c21 16 47 -5 30 -27c-30 -26 -62 -34 -68 -81z" />
    <glyph glyph-name="quotedblright" unicode="&#x201d;" horiz-adv-x="382" 
d="M279 511c-68 10 -27 104 19 70c1 -1 34 -16 22 -60c-1 -51 -56 -118 -79 -118c-21 -16 -47 5 -30 27c30 26 62 34 68 81zM148 513c-68 10 -27 104 19 70c1 -1 34 -16 22 -60c-1 -51 -56 -118 -79 -118c-21 -16 -47 5 -30 27c30 26 62 34 68 81z" />
    <glyph glyph-name="quotesinglbase" unicode="&#x201a;" horiz-adv-x="268" 
d="M141 -6c-68 10 -27 104 19 70c1 -1 34 -16 22 -60c-1 -51 -56 -118 -79 -118c-21 -16 -47 5 -30 27c30 26 62 34 68 81z" />
    <glyph glyph-name="quotedblbase" unicode="&#x201e;" horiz-adv-x="386" 
d="M273 -6c-68 10 -27 104 19 70c1 -1 34 -16 22 -60c-1 -51 -56 -118 -79 -118c-21 -16 -47 5 -30 27c30 26 62 34 68 81zM141 -6c-68 10 -27 104 19 70c1 -1 34 -16 22 -60c-1 -51 -56 -118 -79 -118c-21 -16 -47 5 -30 27c30 26 62 34 68 81z" />
    <glyph glyph-name="ellipsis" unicode="&#x2026;" horiz-adv-x="575" 
d="M506 46c-8 -59 -77 -55 -80 -4c2 53 72 58 80 4zM343 45c-8 -59 -77 -55 -80 -4c2 53 72 58 80 4zM183 45c-8 -59 -77 -55 -80 -4c2 53 72 58 80 4z" />
    <glyph glyph-name="plusminus" unicode="&#xb1;" horiz-adv-x="833" 
d="M358 424c2 -30 3 -60 3 -93c48 0 94 0 163 1c-1 -33 -37 -69 -71 -75l-92 2c0 -49 0 -95 1 -164c-33 1 -69 37 -75 71c1 31 2 61 2 93l-164 -4c5 35 7 68 70 73c30 2 61 3 94 3l-4 163c35 -5 68 -7 73 -70zM184 47c88 6 175 2 329 4c-1 -33 -37 -69 -71 -75
c-92 3 -163 3 -328 -2c5 35 7 68 70 73z" />
    <glyph glyph-name="multiply" unicode="&#xd7;" horiz-adv-x="639" 
d="M406 169c-21 18 -60 55 -81 76c-31 -32 -67 -69 -114 -119c-21 28 -59 37 -18 85c20 23 57 61 81 85c-34 34 -72 73 -120 120c23 23 53 46 82 26l89 -95l114 115c23 -24 46 -53 26 -81l-89 -85c30 -30 66 -64 113 -108c-27 -21 -35 -60 -83 -19z" />
    <glyph glyph-name="cent" unicode="&#xa2;" horiz-adv-x="389" 
d="M87 -11c5 23 11 48 18 74c-71 62 -97 157 -97 227c1 134 74 242 186 250c16 1 32 0 46 -3l36 122c32 -11 54 -32 50 -66c-8 -22 -17 -50 -26 -81c55 -37 85 -104 86 -159c0 -47 -24 -89 -68 -89c-14 0 -23 6 -29 13c-16 17 -9 47 8 62c33 30 14 78 -17 108
c-30 -102 -65 -226 -95 -336c32 -28 75 -41 124 -35c33 4 94 31 117 82c17 38 56 17 28 -43c-15 -63 -77 -112 -154 -115c-55 -1 -100 8 -138 25l-26 -100c-32 14 -61 2 -49 64zM129 224c2 -13 5 -26 8 -37c26 92 55 190 84 287c-78 -6 -106 -164 -92 -250z" />
    <glyph glyph-name="questiondown" unicode="&#xbf;" horiz-adv-x="514" 
d="M451 -37c-25 -50 -87 -100 -180 -102c-94 -1 -209 40 -207 158c1 119 107 153 154 158c32 4 91 0 100 47c5 28 3 57 1 90c-1 40 16 52 44 52s47 -3 49 -52c0 -16 0 -24 1 -55c0 -26 0 -52 -3 -69c-6 -29 -21 -45 -40 -55c-13 -8 -47 -27 -89 -30
c-69 -9 -125 -17 -125 -88c4 -52 37 -68 94 -70c37 -2 103 6 109 51c8 41 25 58 51 58c45 0 61 -50 41 -93zM425 495c0 -84 -151 -66 -127 17c17 65 138 56 127 -17z" />
    <glyph glyph-name="minus" unicode="&#x2212;" horiz-adv-x="593" 
d="M153 328c88 6 175 2 329 4c-1 -33 -37 -69 -71 -75c-92 3 -163 3 -328 -2c5 35 7 68 70 73z" />
    <glyph glyph-name="endash" unicode="&#x2013;" horiz-adv-x="593" 
d="M153 328c88 6 175 2 329 4c-1 -33 -37 -69 -71 -75c-92 3 -163 3 -328 -2c5 35 7 68 70 73z" />
    <glyph glyph-name="emdash" unicode="&#x2014;" horiz-adv-x="707" 
d="M153 328c88 6 322 2 476 4c-1 -33 -37 -69 -71 -75c-92 3 -310 3 -475 -2c5 35 7 68 70 73z" />
    <glyph glyph-name="periodcentered" unicode="&#xb7;" horiz-adv-x="379" 
d="M182 273c54 16 76 -52 26 -75l-5 -2c-48 -4 -67 49 -26 75c2 1 3 2 5 2z" />
    <glyph glyph-name="bullet" unicode="&#x2022;" horiz-adv-x="418" 
d="M114 300c0 51 42 93 93 93s93 -42 93 -93s-42 -93 -93 -93s-93 42 -93 93z" />
    <glyph glyph-name="backslash" unicode="\" horiz-adv-x="307" 
d="M297 -59c12 -62 -27 -75 -59 -89c-42 163 -178 681 -225 818c-4 34 28 80 60 91c65 -224 181 -631 224 -820z" />
    <glyph glyph-name="section" unicode="&#xa7;" horiz-adv-x="400" 
d="M229 24c-42 57 -97 102 -145 160c-50 59 -37 156 25 208c8 6 17 12 26 18c-45 56 -88 112 -41 170c23 27 45 34 66 34c41 0 75 -20 104 -53c12 -15 34 -44 7 -74c-9 -10 -35 -23 -47 -3c-5 11 -29 36 -46 49c-6 4 -11 6 -15 1c-9 -9 -5 -21 4 -30
c40 -56 94 -101 144 -160c51 -60 37 -157 -24 -208c-8 -7 -17 -14 -27 -18c40 -51 91 -123 31 -183c-18 -18 -38 -22 -56 -22c-40 0 -75 20 -104 54c-11 14 -33 43 -6 74c9 10 34 22 47 3c5 -11 29 -37 45 -49c7 -5 12 -7 16 -1c9 8 5 21 -4 30zM232 207c49 40 6 76 -17 110
c-10 17 -38 14 -51 3c-48 -39 -8 -79 17 -109c10 -17 38 -15 51 -4z" />
    <glyph glyph-name="underscore" unicode="_" horiz-adv-x="485" 
d="M50 -10c88 6 285 2 439 4c-1 -33 -37 -69 -71 -75c-92 3 -273 3 -438 -2c5 35 7 68 70 73z" />
    <glyph glyph-name="onequarter" unicode="&#xbc;" horiz-adv-x="833" 
d="M150 621v2c4 24 22 34 42 32c15 -3 24 -17 20 -45l-44 -270c-7 -26 -9 -44 -40 -44c-29 0 -36 30 -29 57c5 21 16 46 21 86l20 101c6 27 6 40 10 81zM594 347c24 28 55 16 58 2v-2c10 7 24 10 37 7c28 -3 25 -34 17 -51c-9 -25 -24 -69 -35 -107c12 -1 26 -1 41 -1
c27 -1 37 -17 35 -35c-7 -20 -19 -23 -44 -23c-19 0 -31 1 -48 3c-11 -40 -27 -78 -38 -108c-12 -42 -33 -53 -50 -50c-45 13 -22 54 -12 82c8 24 18 52 28 82l-41 1c-17 1 -41 0 -96 0c-14 2 -25 12 -25 25c0 12 9 17 26 29h-1c45 36 98 90 132 129zM549 201
c11 0 29 -1 53 -2c12 34 22 68 30 96c-35 -38 -66 -69 -96 -95h3c3 0 6 1 10 1zM210 -59c43 189 159 596 224 820c32 -11 64 -57 60 -91c-47 -137 -183 -655 -225 -818c-32 14 -71 27 -59 89z" />
    <glyph glyph-name="ampersand" unicode="&#x26;" horiz-adv-x="615" 
d="M353 286c-42 0 -87 54 -85 82c2 23 32 28 40 9c31 -41 139 8 216 7c27 0 49 -15 67 -36c31 -31 4 -62 -36 -34c-11 4 -25 7 -41 7c1 -2 1 -4 1 -5c25 -179 -65 -367 -255 -365c-120 1 -278 101 -280 264c-3 141 127 225 211 256l-2 5c-74 17 -147 84 -147 167
c1 104 93 181 203 181c66 2 155 -34 156 -113c1 -93 -64 -125 -130 -127c-46 -1 -68 17 -59 43c6 22 40 21 60 22c45 2 54 21 54 53c0 40 -44 53 -83 51c-69 -4 -115 -63 -101 -139c8 -41 50 -76 118 -92c21 -5 84 -14 93 -17c15 -5 26 -18 26 -41c1 -24 -11 -41 -38 -44
c-10 -1 -20 -5 -30 -5c-111 -4 -233 -84 -215 -222c37 -287 381 -164 337 113v1c-28 -10 -53 -21 -80 -21z" />
    <glyph glyph-name="parenleft" unicode="(" horiz-adv-x="400" 
d="M321 750c42 35 62 -10 30 -33c-252 -214 -231 -632 8 -857c15 -29 -19 -53 -40 -26c-337 255 -275 698 2 916z" />
    <glyph glyph-name="parenright" unicode=")" horiz-adv-x="400" 
d="M44 750c277 -218 339 -661 2 -916c-21 -27 -55 -3 -40 26c239 225 260 643 8 857c-32 23 -12 68 30 33z" />
    <glyph glyph-name="braceleft" unicode="{" horiz-adv-x="318" 
d="M227 800c42 35 62 -10 30 -33c-65 -113 -47 -378 -115 -442c75 -75 32 -296 123 -415c15 -29 -19 -53 -40 -26c-180 137 -49 333 -144 448c88 117 -21 329 146 468z" />
    <glyph glyph-name="braceright" unicode="}" horiz-adv-x="318" 
d="M107 800c167 -139 58 -351 146 -468c-95 -115 36 -311 -144 -448c-21 -27 -55 -3 -40 26c91 119 48 340 123 415c-68 64 -50 329 -115 442c-32 23 -12 68 30 33z" />
    <glyph glyph-name="currency" unicode="&#xa4;" horiz-adv-x="596" 
d="M201 414c43 36 91 50 135 50c49 -1 88 -13 109 -70c22 10 56 39 70 -12c15 -39 -27 -52 -49 -60c2 -10 -1 -1 -1 -12c0 -34 -6 -73 -18 -114c-13 -38 -13 -55 -40 -89c16 -9 34 -21 47 -34c11 -21 -33 -66 -54 -52c-12 12 -28 21 -42 31c-32 -29 -73 -49 -124 -47
c-38 1 -66 16 -87 41c-8 -7 -14 -16 -20 -23c-21 -16 -61 29 -44 51c9 9 22 21 33 31c-14 51 -13 114 2 167c9 42 17 56 42 97c-9 8 -31 27 -35 37c-16 14 10 47 34 45c16 -6 33 -34 42 -37zM384 290c0 47 -12 78 -44 81h-1s-88 10 -125 -128c-7 -24 -9 -48 -9 -67
c0 -57 19 -93 46 -93c100 0 133 137 133 207z" />
    <glyph glyph-name="less" unicode="&#x3c;" horiz-adv-x="600" 
d="M437 442c36 34 41 -48 23 -77c-41 -64 -128 -119 -237 -141c106 -37 161 -96 232 -169c23 -33 5 -107 -31 -72c-80 77 -161 180 -279 216c-37 8 -28 51 4 52c101 28 214 120 288 191z" />
    <glyph glyph-name="greater" unicode="&#x3e;" horiz-adv-x="600" 
d="M149 442c74 -71 187 -163 288 -191c32 -1 41 -44 4 -52c-118 -36 -199 -139 -279 -216c-36 -35 -54 39 -31 72c71 73 126 132 232 169c-109 22 -196 77 -237 141c-18 29 -13 111 23 77z" />
    <glyph glyph-name="guilsinglleft" unicode="&#x2039;" horiz-adv-x="600" 
d="M437 442c36 34 41 -48 23 -77c-41 -64 -128 -119 -237 -141c106 -37 161 -96 232 -169c23 -33 5 -107 -31 -72c-80 77 -161 180 -279 216c-37 8 -28 51 4 52c101 28 214 120 288 191z" />
    <glyph glyph-name="guilsinglright" unicode="&#x203a;" horiz-adv-x="600" 
d="M149 442c74 -71 187 -163 288 -191c32 -1 41 -44 4 -52c-118 -36 -199 -139 -279 -216c-36 -35 -54 39 -31 72c71 73 126 132 232 169c-109 22 -196 77 -237 141c-18 29 -13 111 23 77z" />
    <glyph glyph-name="lessequal" unicode="&#x2264;" horiz-adv-x="600" 
d="M437 535c36 34 41 -48 23 -77c-41 -64 -128 -119 -237 -141c106 -37 161 -96 232 -169c23 -33 5 -107 -31 -72c-80 77 -161 180 -279 216c-37 8 -28 51 4 52c101 28 214 120 288 191zM184 47c88 6 175 2 329 4c-1 -33 -37 -69 -71 -75c-92 3 -163 3 -328 -2
c5 35 7 68 70 73z" />
    <glyph glyph-name="greaterequal" unicode="&#x2265;" horiz-adv-x="600" 
d="M149 527c74 -71 187 -163 288 -191c32 -1 41 -44 4 -52c-118 -36 -199 -139 -279 -216c-36 -35 -54 39 -31 72c71 73 126 132 232 169c-109 22 -196 77 -237 141c-18 29 -13 111 23 77zM184 47c88 6 175 2 329 4c-1 -33 -37 -69 -71 -75c-92 3 -163 3 -328 -2
c5 35 7 68 70 73z" />
    <glyph glyph-name="guillemotleft" unicode="&#xab;" horiz-adv-x="764" 
d="M655 432c36 34 41 -48 23 -77c-41 -64 -128 -119 -237 -141c106 -37 161 -96 232 -169c23 -33 5 -107 -31 -72c-80 77 -161 180 -279 216c-37 8 -28 51 4 52c101 28 214 120 288 191zM437 442c36 34 41 -48 23 -77c-41 -64 -128 -119 -237 -141c106 -37 161 -96 232 -169
c23 -33 5 -107 -31 -72c-80 77 -161 180 -279 216c-37 8 -28 51 4 52c101 28 214 120 288 191z" />
    <glyph glyph-name="guillemotright" unicode="&#xbb;" horiz-adv-x="764" 
d="M149 432c74 -71 187 -163 288 -191c32 -1 41 -44 4 -52c-118 -36 -199 -139 -279 -216c-36 -35 -54 39 -31 72c71 73 126 132 232 169c-109 22 -196 77 -237 141c-18 29 -13 111 23 77zM367 442c74 -71 187 -163 288 -191c32 -1 41 -44 4 -52
c-118 -36 -199 -139 -279 -216c-36 -35 -54 39 -31 72c71 73 126 132 232 169c-109 22 -196 77 -237 141c-18 29 -13 111 23 77z" />
    <glyph glyph-name="degree" unicode="&#xb0;" horiz-adv-x="271" 
d="M118 401c-131 21 -96 174 24 180c83 -7 107 -162 17 -182c-13 -3 -27 0 -41 2zM148 452c32 4 21 78 -15 75c-68 -9 -65 -75 15 -75z" />
    <glyph glyph-name="twosuperior" unicode="&#xb2;" horiz-adv-x="414" 
d="M218 477l-2 -2c-6 -9 -17 -15 -29 -15s-26 6 -29 15v0c-6 9 -6 24 -1 41c11 32 42 45 62 47c49 3 79 -32 82 -67c2 -39 -10 -102 -36 -162c43 -27 70 -50 100 -79c31 -30 18 -43 8 -54c-17 -19 -34 -19 -53 1c-22 23 -42 63 -81 84c-28 -41 -64 -70 -108 -73
c-55 -8 -111 28 -111 77c-1 52 45 86 94 92c34 2 71 -5 101 -18c15 42 23 95 21 125c0 8 -4 13 -8 11v0c-3 -4 -8 -16 -10 -23zM121 263c27 0 50 23 69 49c-20 10 -41 16 -60 16s-46 -11 -46 -36c0 -21 23 -29 37 -29z" />
    <glyph glyph-name="threesuperior" unicode="&#xb3;" horiz-adv-x="400" 
d="M139 242c11 -1 23 0 36 4c-22 17 -39 31 -64 40h1c-12 5 -24 8 -25 0c-2 -23 27 -43 52 -44zM296 488c1 -33 -19 -62 -41 -81c33 -19 63 -53 62 -80c0 -13 -1 -27 -8 -40l2 1c25 8 39 12 47 -1h-1c13 -18 -1 -31 -18 -39c-23 -11 -57 -17 -75 -19
c-34 -24 -81 -39 -129 -34c-61 8 -110 44 -110 92c0 35 32 61 68 59c49 0 116 -48 137 -64c9 13 13 27 13 39c0 24 -16 45 -47 55c-40 -15 -51 -16 -61 -16c-29 0 -57 8 -55 37c6 24 49 30 59 31c35 0 46 0 51 2h-1c26 13 61 80 11 81c-33 1 -53 -44 -79 -21v0
c-18 11 -3 38 10 46c24 18 55 26 83 25c43 -2 82 -27 82 -73z" />
    <glyph glyph-name="threequarters" unicode="&#xbe;" horiz-adv-x="821" 
d="M217 -59c43 189 159 596 224 820c32 -11 64 -57 60 -91c-47 -137 -183 -655 -225 -818c-32 14 -71 27 -59 89zM108 422c-25 1 -54 21 -52 44c1 8 13 5 25 0h-1c25 -9 42 -23 64 -40c-13 -4 -25 -5 -36 -4zM265 668c0 46 -39 71 -82 73c-28 1 -59 -7 -83 -25
c-13 -8 -28 -35 -10 -46v0c26 -23 46 22 79 21c50 -1 15 -68 -11 -81h1c-5 -2 -16 -2 -51 -2c-10 -1 -53 -7 -59 -31c-2 -29 26 -37 55 -37c10 0 21 1 61 16c31 -10 47 -31 47 -55c0 -12 -4 -26 -13 -39c-21 16 -88 64 -137 64c-36 2 -68 -24 -68 -59c0 -48 49 -84 110 -92
c48 -5 95 10 129 34c18 2 52 8 75 19c17 8 31 21 18 39h1c-8 13 -22 9 -47 1l-2 -1c7 13 8 27 8 40c1 27 -29 61 -62 80c22 19 42 48 41 81zM594 347c24 28 55 16 58 2v-2c10 7 24 10 37 7c28 -3 25 -34 17 -51c-9 -25 -24 -69 -35 -107c12 -1 26 -1 41 -1
c27 -1 37 -17 35 -35c-7 -20 -19 -23 -44 -23c-19 0 -31 1 -48 3c-11 -40 -27 -78 -38 -108c-12 -42 -33 -53 -50 -50c-45 13 -22 54 -12 82c8 24 18 52 28 82l-41 1c-17 1 -41 0 -96 0c-14 2 -25 12 -25 25c0 12 9 17 26 29h-1c45 36 98 90 132 129zM549 201
c11 0 29 -1 53 -2c12 34 22 68 30 96c-35 -38 -66 -69 -96 -95h3c3 0 6 1 10 1z" />
    <glyph glyph-name="onesuperior" unicode="&#xb9;" horiz-adv-x="221" 
d="M108 545v2c4 24 22 34 42 32c15 -3 24 -17 20 -45l-44 -270c-7 -26 -9 -44 -40 -44c-29 0 -36 30 -29 57c5 21 16 46 21 86l20 101c6 27 6 40 10 81z" />
    <glyph glyph-name="onehalf" unicode="&#xbd;" horiz-adv-x="807" 
d="M592 269l-2 -2c-6 -9 -17 -15 -29 -15s-26 6 -29 15v0c-6 9 -6 24 -1 41c11 32 42 45 62 47c49 3 79 -32 82 -67c2 -39 -10 -102 -36 -162c43 -27 70 -50 100 -79c31 -30 18 -43 8 -54c-17 -19 -34 -19 -53 1c-22 23 -42 63 -81 84c-28 -41 -64 -70 -108 -73
c-55 -8 -111 28 -111 77c-1 52 45 86 94 92c34 2 71 -5 101 -18c15 42 23 95 21 125c0 8 -4 13 -8 11v0c-3 -4 -8 -16 -10 -23zM495 55c27 0 50 23 69 49c-20 10 -41 16 -60 16s-46 -11 -46 -36c0 -21 23 -29 37 -29zM219 621v2c4 24 22 34 42 32c15 -3 24 -17 20 -45
l-44 -270c-7 -26 -9 -44 -40 -44c-29 0 -36 30 -29 57c5 21 16 46 21 86l20 101c6 27 6 40 10 81zM210 -59c43 189 159 596 224 820c32 -11 64 -57 60 -91c-47 -137 -183 -655 -225 -818c-32 14 -71 27 -59 89z" />
    <glyph glyph-name="ordmasculine" unicode="&#xba;" horiz-adv-x="329" 
d="M40 400c17 93 92 146 148 146c45 -1 88 -36 88 -117c0 -26 -4 -55 -13 -87c-20 -66 -64 -147 -144 -145c-60 2 -86 63 -86 138c0 22 1 44 7 65zM220 414c0 35 -8 59 -29 62h-1s-60 7 -85 -98c-5 -19 -6 -37 -6 -51c0 -43 13 -71 31 -71c69 0 90 105 90 158z" />
    <glyph glyph-name="divide" unicode="&#xf7;" horiz-adv-x="593" 
d="M314 432c-8 -59 -77 -55 -80 -4c2 53 72 58 80 4zM153 328c88 6 175 2 329 4c-1 -33 -37 -69 -71 -75c-92 3 -163 3 -328 -2c5 35 7 68 70 73zM304 158c-8 -59 -77 -55 -80 -4c2 53 72 58 80 4z" />
    <glyph glyph-name="uni00AD" unicode="&#xad;" horiz-adv-x="593" 
d="M153 328c88 6 175 2 329 4c-1 -33 -37 -69 -71 -75c-92 3 -163 3 -328 -2c5 35 7 68 70 73z" />
    <glyph glyph-name="ordfeminine" unicode="&#xaa;" 
d="M131 245c7 16 34 157 5 146c-96 -5 -77 -141 -58 -174c19 -31 35 -15 53 28zM328 252c-5 -39 -48 -102 -86 -110c-6 -3 -11 -1 -16 0c-24 3 -42 16 -53 62c-42 -67 -87 -72 -112 -46c-78 81 -80 282 69 267c30 -2 53 -6 37 -23c13 -2 30 -7 33 -23c5 -7 7 -61 13 -111
c4 -45 12 -86 28 -84c13 1 46 46 60 80c8 21 30 14 27 -12z" />
    <glyph glyph-name="fi" unicode="&#xfb01;" horiz-adv-x="286" 
d="M382 163c-9 -93 -130 -247 -214 -117c-13 20 -20 55 -23 90c-21 -4 -26 -4 -32 -3s-9 -3 -9 -10c16 -165 7 -526 -2 -570c-11 -58 -51 -79 -72 -82c-22 -4 -58 12 -58 44c-1 34 35 29 46 60c11 34 20 107 17 233c-1 98 -2 236 -9 306c0 8 2 14 -11 12
c-19 -3 -35 -2 -38 15c-1 8 -1 15 -1 35c0 18 10 16 28 17c8 0 17 -1 17 16c-1 66 -31 346 -14 436c13 68 47 95 88 98c112 7 140 -130 131 -193c-3 -23 2 -73 -37 -75c-24 -1 -33 18 -40 32c-2 4 -3 12 -4 21c-11 61 11 130 -46 103c-25 -12 -8 -232 0 -350
c2 -36 7 -68 10 -78c1 -6 -5 -7 33 -2v31s-6 110 -3 149c4 51 37 57 37 55c0 -3 52 7 51 -65c0 -15 1 -121 0 -145c-1 -45 0 -131 20 -157c27 -35 86 90 93 112c10 33 46 21 42 -18z" />
    <glyph glyph-name="fl" unicode="&#xfb02;" horiz-adv-x="336" 
d="M373 164c9 31 54 20 47 -17c-5 -40 -49 -159 -111 -167c-68 -8 -115 60 -144 159c-26 -4 -48 -7 -52 -6c-6 1 -9 -3 -9 -10c16 -165 7 -526 -2 -570c-11 -58 -51 -79 -72 -82c-22 -4 -58 12 -58 44c-1 34 35 29 46 60c11 34 20 107 17 233c-1 98 -2 236 -9 306
c0 8 2 14 -11 12c-19 -3 -35 -2 -38 15c-1 8 -1 15 -1 35c0 18 10 16 28 17c8 0 17 -1 17 16c-1 66 -31 346 -14 436c13 68 47 98 88 98c29 0 63 -21 82 -55c13 25 29 41 48 44c141 19 94 -431 27 -575c1 0 1 0 0 -1c-5 -10 -10 -19 -14 -25c29 -63 46 -92 62 -93
c27 0 66 103 73 126zM240 627c-11 0 -22 -6 -30 -88c-11 -116 -6 -261 9 -325c26 18 75 402 21 413zM140 614c-4 23 -19 26 -29 24c-50 -11 -21 -224 -12 -357c2 -36 7 -68 10 -78c1 -4 17 -3 41 0c-23 118 -25 261 -7 368c0 17 -1 26 -3 43z" />
    <glyph glyph-name="bracketleft" unicode="[" horiz-adv-x="275" 
d="M80 777c0 11 5 18 12 21c33 28 92 35 131 39c26 -2 23 -56 2 -67c-23 -2 -43 6 -64 -10l-7 -917c8 -37 13 -37 56 -32c28 -2 29 -64 1 -66c-46 14 -134 -16 -137 33c-12 225 11 753 6 999z" />
    <glyph glyph-name="bracketright" unicode="]" horiz-adv-x="275" 
d="M231 777c-5 -246 18 -774 6 -999c-3 -49 -91 -19 -137 -33c-28 2 -27 64 1 66c43 -5 48 -5 56 32l-7 917c-21 16 -41 8 -64 10c-21 11 -24 65 2 67c39 -4 98 -11 131 -39c7 -3 12 -10 12 -21z" />
    <glyph glyph-name="mu" unicode="&#xb5;" horiz-adv-x="430" 
d="M407 -7c-69 4 -110 89 -130 151c-9 -14 -35 -167 -157 -142c3 -59 7 -118 8 -179c-4 -24 -77 -26 -85 -3c19 60 -45 557 -17 558c0 18 5 60 47 57c28 -2 39 -30 38 -55c4 -40 -4 -288 46 -288c41 0 60 95 63 154c2 37 1 67 3 122c1 19 15 52 40 54c41 3 45 -50 47 -76
c4 -57 65 -279 105 -276c21 2 44 49 61 106c10 33 49 21 42 -18c-6 -49 -50 -168 -111 -165z" />
    <glyph glyph-name="bar" unicode="|" horiz-adv-x="375" 
d="M143 832c0 40 76 58 75 14c18 -200 19 -915 26 -1090c-14 -82 -77 -41 -77 -14c3 236 -21 737 -24 1090z" />
    <glyph glyph-name="dagger" unicode="&#x2020;" horiz-adv-x="504" 
d="M108 468c29 2 59 3 91 3c-1 57 -2 119 -2 186c0 57 56 73 75 14c1 -59 2 -129 2 -200c48 0 94 0 163 1c-1 -33 -37 -69 -71 -75c-31 1 -61 2 -92 2c-2 -199 -6 -409 -2 -520c-6 -58 -57 -47 -58 7c-2 158 -9 307 -13 513l-163 -4c5 35 7 68 70 73z" />
    <glyph glyph-name="daggerdbl" unicode="&#x2021;" horiz-adv-x="504" 
d="M197 657c0 57 56 73 75 14c1 -59 2 -129 2 -200c49 0 97 0 169 1c-1 -33 -37 -69 -71 -75c-33 1 -65 2 -98 2c0 -26 0 -52 -1 -78c49 0 96 0 167 1c-1 -33 -37 -69 -71 -75c-33 1 -64 2 -97 2c-1 -148 -3 -287 0 -370c-6 -58 -57 -47 -58 7c-2 117 -6 229 -10 363
l-163 -4c5 35 7 68 70 73c30 2 59 3 92 3c-1 25 -2 51 -2 78l-157 -4c5 35 7 68 70 73c28 2 55 3 85 3c-1 57 -2 119 -2 186z" />
    <glyph glyph-name="asciicircum" unicode="^" 
d="M125 262c-23 -14 -52 10 -14 39c29 27 76 79 94 80s62 -46 88 -77c32 -31 13 -64 -19 -36c-27 20 -56 43 -71 42c-24 -2 -37 -18 -78 -48z" />
    <glyph glyph-name="asciitilde" unicode="~" horiz-adv-x="404" 
d="M159 284l-36 -24c-26 -12 -42 19 -20 34c20 16 42 48 74 48c31 1 50 -25 84 -28c14 -1 30 1 51 11c26 12 45 -11 25 -31c-32 -33 -58 -45 -79 -42c-31 5 -37 32 -90 32h-9z" />
    <glyph glyph-name="trademark" unicode="&#x2122;" horiz-adv-x="650" 
d="M609 633c5 -17 -5 -28 -23 -36c-27 -11 -64 -17 -83 -19c-112 -11 -218 -14 -329 -39c0 0 -18 -6 -34 -10c-4 -1 -8 -3 -12 -4h4c19 -3 15 -35 13 -53c-9 -86 -14 -216 -31 -292c-2 -12 -10 -19 -21 -20c-31 0 -19 45 -16 66c16 112 13 142 21 255c1 14 3 24 7 31
c-9 -6 -16 -11 -25 -14c-25 -11 -35 -10 -41 4c-8 16 2 29 27 42c26 13 54 22 84 30c109 28 234 35 316 44c34 3 62 7 76 13c6 2 18 6 30 11c10 5 31 8 37 -9zM158 375c-14 -20 -12 -30 -5 -34c6 -5 15 -4 25 10c23 30 48 91 56 104c-3 -88 -15 -147 -4 -245
c2 -28 20 -48 45 -50c30 -2 36 31 45 55c16 51 28 116 28 116c3 -14 5 -74 20 -113c8 -20 24 -35 40 -34c36 3 56 96 56 111c8 -41 24 -97 69 -97s86 101 86 139c0 1 3 10 -5 11c-7 2 -8 -7 -8 -7c-9 -30 -43 -112 -74 -105c-39 7 -44 102 -54 137c-2 11 -10 15 -15 15
c-9 0 -13 -7 -16 -18c-3 -20 -19 -149 -38 -147c-27 3 -36 151 -33 213c0 14 2 43 -15 42c-10 -1 -14 -19 -20 -45c-15 -56 -31 -150 -46 -197c-7 -20 -8 -31 -17 -30c-22 2 0 196 -7 300c-2 25 -6 41 -15 41c-17 0 -19 -16 -26 -29c-46 -93 -57 -124 -72 -143z" />
    <glyph glyph-name="brokenbar" unicode="&#xa6;" horiz-adv-x="375" 
d="M160 184c33 34 66 20 77 5c3 -188 4 -359 7 -433c-14 -82 -77 -41 -77 -14c1 106 -2 266 -7 442zM233 403c-12 -32 -73 -32 -80 -3c-4 150 -9 301 -10 432c0 40 76 58 75 14c8 -83 12 -257 15 -443z" />
    <glyph glyph-name="Thorn" unicode="&#xde;" horiz-adv-x="521" 
d="M75 707c0 40 76 58 75 14c6 -70 9 -173 10 -285c48 68 118 106 176 106c69 -1 133 -55 133 -181c0 -40 -6 -86 -19 -135c-30 -102 -97 -228 -219 -224c-28 0 -51 10 -70 26c1 -63 1 -121 3 -161c-14 -82 -77 -41 -77 -14c3 236 -9 501 -12 854zM395 350
c0 59 -15 99 -54 103h-2s-109 12 -155 -163c-10 -31 -12 -61 -12 -85c0 -72 24 -119 58 -119c125 0 165 175 165 264z" />
    <glyph glyph-name="thorn" unicode="&#xfe;" horiz-adv-x="400" 
d="M342 111c-25 -63 -54 -127 -135 -122c-28 1 -47 9 -64 23c0 -60 1 -117 3 -163c-14 -82 -77 -41 -77 -14c3 236 -9 347 -12 700c0 40 76 58 75 14c4 -43 6 -91 8 -142c14 17 37 32 62 34c46 6 95 -1 123 -67c22 -56 34 -115 31 -178c-1 -26 -5 -53 -14 -85zM143 265v-94
c10 -65 38 -123 80 -120c50 3 76 76 76 142c-1 41 -19 187 -78 187c-50 -5 -71 -74 -78 -115z" />
    <glyph glyph-name="apple" unicode="&#xf8ff;" horiz-adv-x="877" 
d="M755 230c0 -15 -5 -21 -20 -21c-13 0 -19 8 -19 22l4 4l6 -3c2 -9 3 -13 9 -13s8 4 8 9c0 4 -4 10 -10 16c-4 4 -9 9 -13 14c-3 6 -4 8 -4 12c0 13 6 20 19 20c12 0 19 -6 19 -19l-11 -2c-1 6 -4 10 -8 10c-5 0 -6 -2 -6 -9c0 -4 5 -12 16 -21c6 -6 10 -13 10 -19z
M707 288v-11h-13v-68l-5 -4l-7 4v68h-13v11h38zM470 535l124 -14l-91 -83l24 -124l-107 63l-110 -63l26 121l-92 86l124 13l52 114zM660 288v-79h-13l-17 51v-51h-12v69l-3 5l3 5h15l15 -53v53h12zM608 271v-44c0 -12 -6 -18 -19 -18c-12 0 -19 6 -19 18v44c0 12 7 19 19 19
c13 0 19 -7 19 -19zM561 288v-11h-21v-23h16v-11h-16v-34h-13v68l-3 6l3 5h34zM512 221v-12h-33v79l6 5l6 -5v-67h21zM470 221v-12h-34v68l-3 6l3 5h34v-11h-22v-23h17v-11h-17v-22h22zM426 254v-27c0 -13 -6 -19 -19 -19c-12 0 -19 6 -19 19v43c0 13 7 20 19 20
c13 0 19 -7 19 -20v-9h-13v10c0 4 -1 7 -6 7c-4 0 -7 -3 -7 -7v-44c0 -4 3 -6 7 -6c5 0 6 2 6 6v16h-6l-4 5l4 6h19zM370 244l9 -35h-13l-6 30h-8v-30h-12v69l-4 5l4 5h18c12 0 20 -6 20 -18v-12c0 -6 -3 -10 -8 -14zM317 288l13 -79l-7 -4l-6 4l-3 18h-11l-4 -18l-7 -4
l-5 4l13 79h17zM257 288h13l-16 -45v-34h-11v34l-17 45h13l9 -28zM232 221v-12h-32v79l5 5l7 -5v-67h20zM192 221v-12h-32v79l5 5l6 -5v-67h21zM148 288v-79l-7 -4l-5 4v79h12zM126 232c0 -15 -5 -23 -18 -23h-23v68l-3 5l3 6h19c13 0 20 -6 20 -22c0 -8 -3 -13 -9 -15
c7 -3 11 -10 11 -19zM452 375l13 9l-29 172h-35l-30 -172l15 -9l13 9l6 39h26l7 -39zM595 227v44c0 4 -1 7 -6 7c-4 0 -7 -3 -7 -7v-44c0 -4 3 -6 7 -6c5 0 6 2 6 6zM365 258v12c0 4 -1 7 -7 7h-6v-25h6c6 0 7 1 7 6zM304 239h9l-5 31zM111 266c0 7 -2 11 -7 11h-6v-21h6
c5 0 7 4 7 10zM113 232c0 8 -3 13 -9 13h-6v-24h6c6 0 9 4 9 11zM418 516l11 -68h-20zM417 129l4 12c1 2 2 5 2 7c2 -2 2 -5 3 -7l5 -12h-14zM245 112h7v5h-7v-5zM573 112h26v4h-21v38h-5v-42zM535 112h30v4h-25v14h23v5h-23v13h25v6h-30v-42zM387 112h5v17l17 25h-6l-8 -13
c-3 -3 -4 -6 -5 -7c-2 1 -3 4 -4 7l-8 13h-7l16 -25v-17zM261 112h16h6c1 1 3 1 4 3c1 0 3 1 4 4c0 1 1 2 1 5c0 2 -1 4 -2 6c-2 2 -3 3 -6 4c2 0 3 1 4 4c2 1 2 3 2 4c0 3 0 4 -2 6c-1 2 -2 3 -5 4c-1 0 -4 2 -6 2h-16v-42zM147 112h5l9 31c0 2 0 3 1 5c0 -1 0 -2 1 -5
l8 -31h5l12 42h-5l-7 -28c-1 -4 -1 -6 -2 -9c0 5 -1 9 -3 15l-6 22h-7l-8 -29c0 -1 0 -3 -1 -8c-1 3 -1 5 -2 9l-6 28h-6zM92 112h5l9 31c0 2 0 3 2 5c0 -1 0 -2 1 -5l8 -31h5l12 42h-6l-6 -28c-1 -4 -1 -6 -3 -9c0 5 -1 9 -2 15l-7 22h-6l-8 -29c0 -1 0 -3 -1 -8
c-2 3 -2 5 -3 9l-5 28h-7zM266 135v13h8c4 0 5 0 6 -1c2 0 3 -1 3 -1c1 -1 1 -3 1 -4s0 -3 -1 -4c0 -1 -1 -1 -3 -1c-1 -2 -2 -2 -5 -2h-9zM200 112h6l9 31c0 2 0 3 2 5c0 -1 0 -2 1 -5l8 -31h5l12 42h-5l-7 -28c-1 -4 -1 -6 -3 -9c0 5 -1 9 -2 15l-7 22h-6l-8 -29
c0 -1 -1 -3 -1 -8c-2 3 -2 5 -3 9l-6 28h-6zM453 134v14h13c4 0 6 0 7 -1s2 -4 2 -5s0 -3 -1 -4c0 -1 -1 -3 -2 -3c-2 0 -4 -1 -7 -1h-12zM266 116v14h9h7c1 0 2 -1 2 -2c2 -2 2 -3 2 -4v-4c-2 -1 -2 -1 -3 -3h-3c-1 -1 -2 -1 -3 -1h-11zM300 112h5v42h-5v-42zM667 132
c0 6 1 10 5 13c2 2 5 3 9 3c2 0 5 0 8 -1c2 -1 4 -4 5 -6c1 -3 1 -6 1 -8c0 -7 -1 -11 -4 -13c-2 -3 -6 -4 -10 -4s-8 1 -11 4c-2 2 -3 6 -3 12zM661 132c0 -4 2 -7 3 -11c1 -2 4 -5 6 -8c4 -1 7 -2 11 -2s8 1 10 2c3 2 5 4 7 8c2 3 2 7 2 12c0 4 0 8 -1 10c-3 4 -4 7 -8 8
c-2 1 -6 3 -10 3c-5 0 -11 -2 -14 -6c-4 -3 -6 -10 -6 -16zM405 112h5l6 12h17l5 -12h6l-17 42h-6zM316 112h24v4h-19v38h-5v-42zM605 112h7v5h-7v-5zM509 128h12v-8c-1 -1 -3 -1 -5 -3c-3 -1 -4 -1 -7 -1c-2 0 -5 0 -8 1c-2 2 -3 4 -5 7c-1 1 -2 5 -2 9c0 2 1 5 1 8
c1 1 3 2 3 4c1 1 2 2 5 3h6h5c3 -1 4 -2 4 -3c2 -2 3 -3 3 -4l5 1c-1 3 -2 4 -4 6c-1 2 -2 3 -5 4c-3 2 -5 2 -8 2c-4 0 -8 -2 -11 -3s-6 -4 -7 -8s-3 -6 -3 -11c0 -4 2 -7 3 -11s4 -5 8 -8c2 -1 6 -2 10 -2c3 0 7 1 9 1c3 1 6 3 8 5v16h-17v-5zM448 112h5v18h7h2
c2 0 3 -1 3 -1c1 -1 3 -1 3 -3c1 -1 2 -4 4 -6l6 -8h7l-8 10c-2 3 -3 4 -4 7c-1 0 -1 1 -4 1c4 2 8 3 9 4c3 3 3 5 3 8s0 4 -2 6c-1 2 -2 3 -4 4c-2 0 -5 2 -9 2h-18v-42zM347 112h26v4h-20v38h-6v-42zM651 126c-1 -4 -3 -6 -4 -7c-3 -3 -5 -3 -8 -3c-2 0 -5 0 -8 1
c-1 2 -3 4 -3 7c-2 2 -3 5 -3 9c0 2 1 5 1 8c2 2 3 5 5 6s4 1 8 1c3 0 5 0 7 -1s4 -4 4 -6l6 1c-1 4 -4 6 -6 9c-3 1 -7 3 -11 3s-6 -2 -10 -3c-3 -1 -5 -4 -7 -6c-1 -4 -2 -8 -2 -12s1 -8 2 -12c2 -2 3 -5 7 -8c2 -1 5 -2 10 -2c4 0 8 1 11 4c4 2 5 5 6 10zM708 112h5v35
l12 -35h5l12 34v-34h5v42h-8l-9 -30c-1 -3 -2 -5 -2 -7c0 2 -2 4 -2 7l-10 30h-8v-42zM417 129l4 12c1 2 2 5 2 7c2 -2 2 -5 3 -7l5 -12h-14zM245 112h7v5h-7v-5zM573 112h26v4h-21v38h-5v-42zM535 112h30v4h-25v14h23v5h-23v13h25v6h-30v-42zM387 112h5v17l17 25h-6l-8 -13
c-3 -3 -4 -6 -5 -7c-2 1 -3 4 -4 7l-8 13h-7l16 -25v-17zM261 112h16h6c1 1 3 1 4 3c1 0 3 1 4 4c0 1 1 2 1 5c0 2 -1 4 -2 6c-2 2 -3 3 -6 4c2 0 3 1 4 4c2 1 2 3 2 4c0 3 0 4 -2 6c-1 2 -2 3 -5 4c-1 0 -4 2 -6 2h-16v-42zM147 112h5l9 31c0 2 0 3 1 5c0 -1 0 -2 1 -5
l8 -31h5l12 42h-5l-7 -28c-1 -4 -1 -6 -2 -9c0 5 -1 9 -3 15l-6 22h-7l-8 -29c0 -1 0 -3 -1 -8c-1 3 -1 5 -2 9l-6 28h-6zM92 112h5l9 31c0 2 0 3 2 5c0 -1 0 -2 1 -5l8 -31h5l12 42h-6l-6 -28c-1 -4 -1 -6 -3 -9c0 5 -1 9 -2 15l-7 22h-6l-8 -29c0 -1 0 -3 -1 -8
c-2 3 -2 5 -3 9l-5 28h-7zM266 135v13h8c4 0 5 0 6 -1c2 0 3 -1 3 -1c1 -1 1 -3 1 -4s0 -3 -1 -4c0 -1 -1 -1 -3 -1c-1 -2 -2 -2 -5 -2h-9zM200 112h6l9 31c0 2 0 3 2 5c0 -1 0 -2 1 -5l8 -31h5l12 42h-5l-7 -28c-1 -4 -1 -6 -3 -9c0 5 -1 9 -2 15l-7 22h-6l-8 -29
c0 -1 -1 -3 -1 -8c-2 3 -2 5 -3 9l-6 28h-6zM453 134v14h13c4 0 6 0 7 -1s2 -4 2 -5s0 -3 -1 -4c0 -1 -1 -3 -2 -3c-2 0 -4 -1 -7 -1h-12zM266 116v14h9h7c1 0 2 -1 2 -2c2 -2 2 -3 2 -4v-4c-2 -1 -2 -1 -3 -3h-3c-1 -1 -2 -1 -3 -1h-11zM300 112h5v42h-5v-42zM667 132
c0 6 1 10 5 13c2 2 5 3 9 3c2 0 5 0 8 -1c2 -1 4 -4 5 -6c1 -3 1 -6 1 -8c0 -7 -1 -11 -4 -13c-2 -3 -6 -4 -10 -4s-8 1 -11 4c-2 2 -3 6 -3 12zM661 132c0 -4 2 -7 3 -11c1 -2 4 -5 6 -8c4 -1 7 -2 11 -2s8 1 10 2c3 2 5 4 7 8c2 3 2 7 2 12c0 4 0 8 -1 10c-3 4 -4 7 -8 8
c-2 1 -6 3 -10 3c-5 0 -11 -2 -14 -6c-4 -3 -6 -10 -6 -16zM405 112h5l6 12h17l5 -12h6l-17 42h-6zM316 112h24v4h-19v38h-5v-42zM605 112h7v5h-7v-5zM509 128h12v-8c-1 -1 -3 -1 -5 -3c-3 -1 -4 -1 -7 -1c-2 0 -5 0 -8 1c-2 2 -3 4 -5 7c-1 1 -2 5 -2 9c0 2 1 5 1 8
c1 1 3 2 3 4c1 1 2 2 5 3h6h5c3 -1 4 -2 4 -3c2 -2 3 -3 3 -4l5 1c-1 3 -2 4 -4 6c-1 2 -2 3 -5 4c-3 2 -5 2 -8 2c-4 0 -8 -2 -11 -3s-6 -4 -7 -8s-3 -6 -3 -11c0 -4 2 -7 3 -11s4 -5 8 -8c2 -1 6 -2 10 -2c3 0 7 1 9 1c3 1 6 3 8 5v16h-17v-5zM448 112h5v18h7h2
c2 0 3 -1 3 -1c1 -1 3 -1 3 -3c1 -1 2 -4 4 -6l6 -8h7l-8 10c-2 3 -3 4 -4 7c-1 0 -1 1 -4 1c4 2 8 3 9 4c3 3 3 5 3 8s0 4 -2 6c-1 2 -2 3 -4 4c-2 0 -5 2 -9 2h-18v-42zM347 112h26v4h-20v38h-6v-42zM651 126c-1 -4 -3 -6 -4 -7c-3 -3 -5 -3 -8 -3c-2 0 -5 0 -8 1
c-1 2 -3 4 -3 7c-2 2 -3 5 -3 9c0 2 1 5 1 8c2 2 3 5 5 6s4 1 8 1c3 0 5 0 7 -1s4 -4 4 -6l6 1c-1 4 -4 6 -6 9c-3 1 -7 3 -11 3s-6 -2 -10 -3c-3 -1 -5 -4 -7 -6c-1 -4 -2 -8 -2 -12s1 -8 2 -12c2 -2 3 -5 7 -8c2 -1 5 -2 10 -2c4 0 8 1 11 4c4 2 5 5 6 10zM708 112h5v35
l12 -35h5l12 34v-34h5v42h-8l-9 -30c-1 -3 -2 -5 -2 -7c0 2 -2 4 -2 7l-10 30h-8v-42zM417 129l4 12c1 2 2 5 2 7c2 -2 2 -5 3 -7l5 -12h-14zM245 112h7v5h-7v-5zM573 112h26v4h-21v38h-5v-42zM535 112h30v4h-25v14h23v5h-23v13h25v6h-30v-42zM387 112h5v17l17 25h-6l-8 -13
c-3 -3 -4 -6 -5 -7c-2 1 -3 4 -4 7l-8 13h-7l16 -25v-17zM261 112h16h6c1 1 3 1 4 3c1 0 3 1 4 4c0 1 1 2 1 5c0 2 -1 4 -2 6c-2 2 -3 3 -6 4c2 0 3 1 4 4c2 1 2 3 2 4c0 3 0 4 -2 6c-1 2 -2 3 -5 4c-1 0 -4 2 -6 2h-16v-42zM147 112h5l9 31c0 2 0 3 1 5c0 -1 0 -2 1 -5
l8 -31h5l12 42h-5l-7 -28c-1 -4 -1 -6 -2 -9c0 5 -1 9 -3 15l-6 22h-7l-8 -29c0 -1 0 -3 -1 -8c-1 3 -1 5 -2 9l-6 28h-6zM92 112h5l9 31c0 2 0 3 2 5c0 -1 0 -2 1 -5l8 -31h5l12 42h-6l-6 -28c-1 -4 -1 -6 -3 -9c0 5 -1 9 -2 15l-7 22h-6l-8 -29c0 -1 0 -3 -1 -8
c-2 3 -2 5 -3 9l-5 28h-7zM266 135v13h8c4 0 5 0 6 -1c2 0 3 -1 3 -1c1 -1 1 -3 1 -4s0 -3 -1 -4c0 -1 -1 -1 -3 -1c-1 -2 -2 -2 -5 -2h-9zM200 112h6l9 31c0 2 0 3 2 5c0 -1 0 -2 1 -5l8 -31h5l12 42h-5l-7 -28c-1 -4 -1 -6 -3 -9c0 5 -1 9 -2 15l-7 22h-6l-8 -29
c0 -1 -1 -3 -1 -8c-2 3 -2 5 -3 9l-6 28h-6zM453 134v14h13c4 0 6 0 7 -1s2 -4 2 -5s0 -3 -1 -4c0 -1 -1 -3 -2 -3c-2 0 -4 -1 -7 -1h-12zM266 116v14h9h7c1 0 2 -1 2 -2c2 -2 2 -3 2 -4v-4c-2 -1 -2 -1 -3 -3h-3c-1 -1 -2 -1 -3 -1h-11zM300 112h5v42h-5v-42zM667 132
c0 6 1 10 5 13c2 2 5 3 9 3c2 0 5 0 8 -1c2 -1 4 -4 5 -6c1 -3 1 -6 1 -8c0 -7 -1 -11 -4 -13c-2 -3 -6 -4 -10 -4s-8 1 -11 4c-2 2 -3 6 -3 12zM661 132c0 -4 2 -7 3 -11c1 -2 4 -5 6 -8c4 -1 7 -2 11 -2s8 1 10 2c3 2 5 4 7 8c2 3 2 7 2 12c0 4 0 8 -1 10c-3 4 -4 7 -8 8
c-2 1 -6 3 -10 3c-5 0 -11 -2 -14 -6c-4 -3 -6 -10 -6 -16zM405 112h5l6 12h17l5 -12h6l-17 42h-6zM316 112h24v4h-19v38h-5v-42zM605 112h7v5h-7v-5zM509 128h12v-8c-1 -1 -3 -1 -5 -3c-3 -1 -4 -1 -7 -1c-2 0 -5 0 -8 1c-2 2 -3 4 -5 7c-1 1 -2 5 -2 9c0 2 1 5 1 8
c1 1 3 2 3 4c1 1 2 2 5 3h6h5c3 -1 4 -2 4 -3c2 -2 3 -3 3 -4l5 1c-1 3 -2 4 -4 6c-1 2 -2 3 -5 4c-3 2 -5 2 -8 2c-4 0 -8 -2 -11 -3s-6 -4 -7 -8s-3 -6 -3 -11c0 -4 2 -7 3 -11s4 -5 8 -8c2 -1 6 -2 10 -2c3 0 7 1 9 1c3 1 6 3 8 5v16h-17v-5zM448 112h5v18h7h2
c2 0 3 -1 3 -1c1 -1 3 -1 3 -3c1 -1 2 -4 4 -6l6 -8h7l-8 10c-2 3 -3 4 -4 7c-1 0 -1 1 -4 1c4 2 8 3 9 4c3 3 3 5 3 8s0 4 -2 6c-1 2 -2 3 -4 4c-2 0 -5 2 -9 2h-18v-42zM347 112h26v4h-20v38h-6v-42zM651 126c-1 -4 -3 -6 -4 -7c-3 -3 -5 -3 -8 -3c-2 0 -5 0 -8 1
c-1 2 -3 4 -3 7c-2 2 -3 5 -3 9c0 2 1 5 1 8c2 2 3 5 5 6s4 1 8 1c3 0 5 0 7 -1s4 -4 4 -6l6 1c-1 4 -4 6 -6 9c-3 1 -7 3 -11 3s-6 -2 -10 -3c-3 -1 -5 -4 -7 -6c-1 -4 -2 -8 -2 -12s1 -8 2 -12c2 -2 3 -5 7 -8c2 -1 5 -2 10 -2c4 0 8 1 11 4c4 2 5 5 6 10zM708 112h5v35
l12 -35h5l12 34v-34h5v42h-8l-9 -30c-1 -3 -2 -5 -2 -7c0 2 -2 4 -2 7l-10 30h-8v-42z" />
    <glyph glyph-name="zero" unicode="0" horiz-adv-x="813" 
d="M691 230c0 -15 -5 -21 -20 -21c-13 0 -19 8 -19 22l4 4l6 -3c2 -9 3 -13 9 -13s8 4 8 9c0 4 -4 10 -10 16c-4 4 -9 9 -13 14c-3 6 -4 8 -4 12c0 13 6 20 19 20c12 0 19 -6 19 -19l-11 -2c-1 6 -4 10 -8 10c-5 0 -6 -2 -6 -9c0 -4 5 -12 16 -21c6 -6 10 -13 10 -19z
M643 288v-11h-13v-68l-5 -4l-7 4v68h-13v11h38zM406 535l124 -14l-91 -83l24 -124l-107 63l-110 -63l26 121l-92 86l124 13l52 114zM596 288v-79h-13l-17 51v-51h-12v69l-3 5l3 5h15l15 -53v53h12zM544 271v-44c0 -12 -6 -18 -19 -18c-12 0 -19 6 -19 18v44c0 12 7 19 19 19
c13 0 19 -7 19 -19zM497 288v-11h-21v-23h16v-11h-16v-34h-13v68l-3 6l3 5h34zM448 221v-12h-33v79l6 5l6 -5v-67h21zM406 221v-12h-34v68l-3 6l3 5h34v-11h-22v-23h17v-11h-17v-22h22zM362 254v-27c0 -13 -6 -19 -19 -19c-12 0 -19 6 -19 19v43c0 13 7 20 19 20
c13 0 19 -7 19 -20v-9h-13v10c0 4 -1 7 -6 7c-4 0 -7 -3 -7 -7v-44c0 -4 3 -6 7 -6c5 0 6 2 6 6v16h-6l-4 5l4 6h19zM306 244l9 -35h-13l-6 30h-8v-30h-12v69l-4 5l4 5h18c12 0 20 -6 20 -18v-12c0 -6 -3 -10 -8 -14zM253 288l13 -79l-7 -4l-6 4l-3 18h-11l-4 -18l-7 -4
l-5 4l13 79h17zM193 288h13l-16 -45v-34h-11v34l-17 45h13l9 -28zM168 221v-12h-32v79l5 5l7 -5v-67h20zM128 221v-12h-32v79l5 5l6 -5v-67h21zM84 288v-79l-7 -4l-5 4v79h12zM62 232c0 -15 -5 -23 -18 -23h-23v68l-3 5l3 6h19c13 0 20 -6 20 -22c0 -8 -3 -13 -9 -15
c7 -3 11 -10 11 -19zM388 375l13 9l-29 172h-35l-30 -172l15 -9l13 9l6 39h26l7 -39zM531 227v44c0 4 -1 7 -6 7c-4 0 -7 -3 -7 -7v-44c0 -4 3 -6 7 -6c5 0 6 2 6 6zM301 258v12c0 4 -1 7 -7 7h-6v-25h6c6 0 7 1 7 6zM240 239h9l-5 31zM47 266c0 7 -2 11 -7 11h-6v-21h6
c5 0 7 4 7 10zM49 232c0 8 -3 13 -9 13h-6v-24h6c6 0 9 4 9 11zM354 516l11 -68h-20zM353 14l4 12c1 2 2 5 2 7c2 -2 2 -5 3 -7l5 -12h-14zM181 -3h7v5h-7v-5zM509 -3h26v4h-21v38h-5v-42zM471 -3h30v4h-25v14h23v5h-23v13h25v6h-30v-42zM323 -3h5v17l17 25h-6l-8 -13
c-3 -3 -4 -6 -5 -7c-2 1 -3 4 -4 7l-8 13h-7l16 -25v-17zM197 -3h16h6c1 1 3 1 4 3c1 0 3 1 4 4c0 1 1 2 1 5c0 2 -1 4 -2 6c-2 2 -3 3 -6 4c2 0 3 1 4 4c2 1 2 3 2 4c0 3 0 4 -2 6c-1 2 -2 3 -5 4c-1 0 -4 2 -6 2h-16v-42zM83 -3h5l9 31c0 2 0 3 1 5c0 -1 0 -2 1 -5l8 -31
h5l12 42h-5l-7 -28c-1 -4 -1 -6 -2 -9c0 5 -1 9 -3 15l-6 22h-7l-8 -29c0 -1 0 -3 -1 -8c-1 3 -1 5 -2 9l-6 28h-6zM28 -3h5l9 31c0 2 0 3 2 5c0 -1 0 -2 1 -5l8 -31h5l12 42h-6l-6 -28c-1 -4 -1 -6 -3 -9c0 5 -1 9 -2 15l-7 22h-6l-8 -29c0 -1 0 -3 -1 -8c-2 3 -2 5 -3 9
l-5 28h-7zM202 20v13h8c4 0 5 0 6 -1c2 0 3 -1 3 -1c1 -1 1 -3 1 -4s0 -3 -1 -4c0 -1 -1 -1 -3 -1c-1 -2 -2 -2 -5 -2h-9zM136 -3h6l9 31c0 2 0 3 2 5c0 -1 0 -2 1 -5l8 -31h5l12 42h-5l-7 -28c-1 -4 -1 -6 -3 -9c0 5 -1 9 -2 15l-7 22h-6l-8 -29c0 -1 -1 -3 -1 -8
c-2 3 -2 5 -3 9l-6 28h-6zM389 19v14h13c4 0 6 0 7 -1s2 -4 2 -5s0 -3 -1 -4c0 -1 -1 -3 -2 -3c-2 0 -4 -1 -7 -1h-12zM202 1v14h9h7c1 0 2 -1 2 -2c2 -2 2 -3 2 -4v-4c-2 -1 -2 -1 -3 -3h-3c-1 -1 -2 -1 -3 -1h-11zM236 -3h5v42h-5v-42zM603 17c0 6 1 10 5 13c2 2 5 3 9 3
c2 0 5 0 8 -1c2 -1 4 -4 5 -6c1 -3 1 -6 1 -8c0 -7 -1 -11 -4 -13c-2 -3 -6 -4 -10 -4s-8 1 -11 4c-2 2 -3 6 -3 12zM597 17c0 -4 2 -7 3 -11c1 -2 4 -5 6 -8c4 -1 7 -2 11 -2s8 1 10 2c3 2 5 4 7 8c2 3 2 7 2 12c0 4 0 8 -1 10c-3 4 -4 7 -8 8c-2 1 -6 3 -10 3
c-5 0 -11 -2 -14 -6c-4 -3 -6 -10 -6 -16zM341 -3h5l6 12h17l5 -12h6l-17 42h-6zM252 -3h24v4h-19v38h-5v-42zM541 -3h7v5h-7v-5zM445 13h12v-8c-1 -1 -3 -1 -5 -3c-3 -1 -4 -1 -7 -1c-2 0 -5 0 -8 1c-2 2 -3 4 -5 7c-1 1 -2 5 -2 9c0 2 1 5 1 8c1 1 3 2 3 4c1 1 2 2 5 3h6
h5c3 -1 4 -2 4 -3c2 -2 3 -3 3 -4l5 1c-1 3 -2 4 -4 6c-1 2 -2 3 -5 4c-3 2 -5 2 -8 2c-4 0 -8 -2 -11 -3s-6 -4 -7 -8s-3 -6 -3 -11c0 -4 2 -7 3 -11s4 -5 8 -8c2 -1 6 -2 10 -2c3 0 7 1 9 1c3 1 6 3 8 5v16h-17v-5zM384 -3h5v18h7h2c2 0 3 -1 3 -1c1 -1 3 -1 3 -3
c1 -1 2 -4 4 -6l6 -8h7l-8 10c-2 3 -3 4 -4 7c-1 0 -1 1 -4 1c4 2 8 3 9 4c3 3 3 5 3 8s0 4 -2 6c-1 2 -2 3 -4 4c-2 0 -5 2 -9 2h-18v-42zM283 -3h26v4h-20v38h-6v-42zM587 11c-1 -4 -3 -6 -4 -7c-3 -3 -5 -3 -8 -3c-2 0 -5 0 -8 1c-1 2 -3 4 -3 7c-2 2 -3 5 -3 9
c0 2 1 5 1 8c2 2 3 5 5 6s4 1 8 1c3 0 5 0 7 -1s4 -4 4 -6l6 1c-1 4 -4 6 -6 9c-3 1 -7 3 -11 3s-6 -2 -10 -3c-3 -1 -5 -4 -7 -6c-1 -4 -2 -8 -2 -12s1 -8 2 -12c2 -2 3 -5 7 -8c2 -1 5 -2 10 -2c4 0 8 1 11 4c4 2 5 5 6 10zM644 -3h5v35l12 -35h5l12 34v-34h5v42h-8
l-9 -30c-1 -3 -2 -5 -2 -7c0 2 -2 4 -2 7l-10 30h-8v-42zM353 14l4 12c1 2 2 5 2 7c2 -2 2 -5 3 -7l5 -12h-14zM181 -3h7v5h-7v-5zM509 -3h26v4h-21v38h-5v-42zM471 -3h30v4h-25v14h23v5h-23v13h25v6h-30v-42zM323 -3h5v17l17 25h-6l-8 -13c-3 -3 -4 -6 -5 -7
c-2 1 -3 4 -4 7l-8 13h-7l16 -25v-17zM197 -3h16h6c1 1 3 1 4 3c1 0 3 1 4 4c0 1 1 2 1 5c0 2 -1 4 -2 6c-2 2 -3 3 -6 4c2 0 3 1 4 4c2 1 2 3 2 4c0 3 0 4 -2 6c-1 2 -2 3 -5 4c-1 0 -4 2 -6 2h-16v-42zM83 -3h5l9 31c0 2 0 3 1 5c0 -1 0 -2 1 -5l8 -31h5l12 42h-5l-7 -28
c-1 -4 -1 -6 -2 -9c0 5 -1 9 -3 15l-6 22h-7l-8 -29c0 -1 0 -3 -1 -8c-1 3 -1 5 -2 9l-6 28h-6zM28 -3h5l9 31c0 2 0 3 2 5c0 -1 0 -2 1 -5l8 -31h5l12 42h-6l-6 -28c-1 -4 -1 -6 -3 -9c0 5 -1 9 -2 15l-7 22h-6l-8 -29c0 -1 0 -3 -1 -8c-2 3 -2 5 -3 9l-5 28h-7zM202 20v13
h8c4 0 5 0 6 -1c2 0 3 -1 3 -1c1 -1 1 -3 1 -4s0 -3 -1 -4c0 -1 -1 -1 -3 -1c-1 -2 -2 -2 -5 -2h-9zM136 -3h6l9 31c0 2 0 3 2 5c0 -1 0 -2 1 -5l8 -31h5l12 42h-5l-7 -28c-1 -4 -1 -6 -3 -9c0 5 -1 9 -2 15l-7 22h-6l-8 -29c0 -1 -1 -3 -1 -8c-2 3 -2 5 -3 9l-6 28h-6z
M389 19v14h13c4 0 6 0 7 -1s2 -4 2 -5s0 -3 -1 -4c0 -1 -1 -3 -2 -3c-2 0 -4 -1 -7 -1h-12zM202 1v14h9h7c1 0 2 -1 2 -2c2 -2 2 -3 2 -4v-4c-2 -1 -2 -1 -3 -3h-3c-1 -1 -2 -1 -3 -1h-11zM236 -3h5v42h-5v-42zM603 17c0 6 1 10 5 13c2 2 5 3 9 3c2 0 5 0 8 -1
c2 -1 4 -4 5 -6c1 -3 1 -6 1 -8c0 -7 -1 -11 -4 -13c-2 -3 -6 -4 -10 -4s-8 1 -11 4c-2 2 -3 6 -3 12zM597 17c0 -4 2 -7 3 -11c1 -2 4 -5 6 -8c4 -1 7 -2 11 -2s8 1 10 2c3 2 5 4 7 8c2 3 2 7 2 12c0 4 0 8 -1 10c-3 4 -4 7 -8 8c-2 1 -6 3 -10 3c-5 0 -11 -2 -14 -6
c-4 -3 -6 -10 -6 -16zM341 -3h5l6 12h17l5 -12h6l-17 42h-6zM252 -3h24v4h-19v38h-5v-42zM541 -3h7v5h-7v-5zM445 13h12v-8c-1 -1 -3 -1 -5 -3c-3 -1 -4 -1 -7 -1c-2 0 -5 0 -8 1c-2 2 -3 4 -5 7c-1 1 -2 5 -2 9c0 2 1 5 1 8c1 1 3 2 3 4c1 1 2 2 5 3h6h5c3 -1 4 -2 4 -3
c2 -2 3 -3 3 -4l5 1c-1 3 -2 4 -4 6c-1 2 -2 3 -5 4c-3 2 -5 2 -8 2c-4 0 -8 -2 -11 -3s-6 -4 -7 -8s-3 -6 -3 -11c0 -4 2 -7 3 -11s4 -5 8 -8c2 -1 6 -2 10 -2c3 0 7 1 9 1c3 1 6 3 8 5v16h-17v-5zM384 -3h5v18h7h2c2 0 3 -1 3 -1c1 -1 3 -1 3 -3c1 -1 2 -4 4 -6l6 -8h7
l-8 10c-2 3 -3 4 -4 7c-1 0 -1 1 -4 1c4 2 8 3 9 4c3 3 3 5 3 8s0 4 -2 6c-1 2 -2 3 -4 4c-2 0 -5 2 -9 2h-18v-42zM283 -3h26v4h-20v38h-6v-42zM587 11c-1 -4 -3 -6 -4 -7c-3 -3 -5 -3 -8 -3c-2 0 -5 0 -8 1c-1 2 -3 4 -3 7c-2 2 -3 5 -3 9c0 2 1 5 1 8c2 2 3 5 5 6
s4 1 8 1c3 0 5 0 7 -1s4 -4 4 -6l6 1c-1 4 -4 6 -6 9c-3 1 -7 3 -11 3s-6 -2 -10 -3c-3 -1 -5 -4 -7 -6c-1 -4 -2 -8 -2 -12s1 -8 2 -12c2 -2 3 -5 7 -8c2 -1 5 -2 10 -2c4 0 8 1 11 4c4 2 5 5 6 10zM644 -3h5v35l12 -35h5l12 34v-34h5v42h-8l-9 -30c-1 -3 -2 -5 -2 -7
c0 2 -2 4 -2 7l-10 30h-8v-42zM353 14l4 12c1 2 2 5 2 7c2 -2 2 -5 3 -7l5 -12h-14zM181 -3h7v5h-7v-5zM509 -3h26v4h-21v38h-5v-42zM471 -3h30v4h-25v14h23v5h-23v13h25v6h-30v-42zM323 -3h5v17l17 25h-6l-8 -13c-3 -3 -4 -6 -5 -7c-2 1 -3 4 -4 7l-8 13h-7l16 -25v-17z
M197 -3h16h6c1 1 3 1 4 3c1 0 3 1 4 4c0 1 1 2 1 5c0 2 -1 4 -2 6c-2 2 -3 3 -6 4c2 0 3 1 4 4c2 1 2 3 2 4c0 3 0 4 -2 6c-1 2 -2 3 -5 4c-1 0 -4 2 -6 2h-16v-42zM83 -3h5l9 31c0 2 0 3 1 5c0 -1 0 -2 1 -5l8 -31h5l12 42h-5l-7 -28c-1 -4 -1 -6 -2 -9c0 5 -1 9 -3 15
l-6 22h-7l-8 -29c0 -1 0 -3 -1 -8c-1 3 -1 5 -2 9l-6 28h-6zM28 -3h5l9 31c0 2 0 3 2 5c0 -1 0 -2 1 -5l8 -31h5l12 42h-6l-6 -28c-1 -4 -1 -6 -3 -9c0 5 -1 9 -2 15l-7 22h-6l-8 -29c0 -1 0 -3 -1 -8c-2 3 -2 5 -3 9l-5 28h-7zM202 20v13h8c4 0 5 0 6 -1c2 0 3 -1 3 -1
c1 -1 1 -3 1 -4s0 -3 -1 -4c0 -1 -1 -1 -3 -1c-1 -2 -2 -2 -5 -2h-9zM136 -3h6l9 31c0 2 0 3 2 5c0 -1 0 -2 1 -5l8 -31h5l12 42h-5l-7 -28c-1 -4 -1 -6 -3 -9c0 5 -1 9 -2 15l-7 22h-6l-8 -29c0 -1 -1 -3 -1 -8c-2 3 -2 5 -3 9l-6 28h-6zM389 19v14h13c4 0 6 0 7 -1
s2 -4 2 -5s0 -3 -1 -4c0 -1 -1 -3 -2 -3c-2 0 -4 -1 -7 -1h-12zM202 1v14h9h7c1 0 2 -1 2 -2c2 -2 2 -3 2 -4v-4c-2 -1 -2 -1 -3 -3h-3c-1 -1 -2 -1 -3 -1h-11zM236 -3h5v42h-5v-42zM603 17c0 6 1 10 5 13c2 2 5 3 9 3c2 0 5 0 8 -1c2 -1 4 -4 5 -6c1 -3 1 -6 1 -8
c0 -7 -1 -11 -4 -13c-2 -3 -6 -4 -10 -4s-8 1 -11 4c-2 2 -3 6 -3 12zM597 17c0 -4 2 -7 3 -11c1 -2 4 -5 6 -8c4 -1 7 -2 11 -2s8 1 10 2c3 2 5 4 7 8c2 3 2 7 2 12c0 4 0 8 -1 10c-3 4 -4 7 -8 8c-2 1 -6 3 -10 3c-5 0 -11 -2 -14 -6c-4 -3 -6 -10 -6 -16zM341 -3h5l6 12
h17l5 -12h6l-17 42h-6zM252 -3h24v4h-19v38h-5v-42zM541 -3h7v5h-7v-5zM445 13h12v-8c-1 -1 -3 -1 -5 -3c-3 -1 -4 -1 -7 -1c-2 0 -5 0 -8 1c-2 2 -3 4 -5 7c-1 1 -2 5 -2 9c0 2 1 5 1 8c1 1 3 2 3 4c1 1 2 2 5 3h6h5c3 -1 4 -2 4 -3c2 -2 3 -3 3 -4l5 1c-1 3 -2 4 -4 6
c-1 2 -2 3 -5 4c-3 2 -5 2 -8 2c-4 0 -8 -2 -11 -3s-6 -4 -7 -8s-3 -6 -3 -11c0 -4 2 -7 3 -11s4 -5 8 -8c2 -1 6 -2 10 -2c3 0 7 1 9 1c3 1 6 3 8 5v16h-17v-5zM384 -3h5v18h7h2c2 0 3 -1 3 -1c1 -1 3 -1 3 -3c1 -1 2 -4 4 -6l6 -8h7l-8 10c-2 3 -3 4 -4 7c-1 0 -1 1 -4 1
c4 2 8 3 9 4c3 3 3 5 3 8s0 4 -2 6c-1 2 -2 3 -4 4c-2 0 -5 2 -9 2h-18v-42zM283 -3h26v4h-20v38h-6v-42zM587 11c-1 -4 -3 -6 -4 -7c-3 -3 -5 -3 -8 -3c-2 0 -5 0 -8 1c-1 2 -3 4 -3 7c-2 2 -3 5 -3 9c0 2 1 5 1 8c2 2 3 5 5 6s4 1 8 1c3 0 5 0 7 -1s4 -4 4 -6l6 1
c-1 4 -4 6 -6 9c-3 1 -7 3 -11 3s-6 -2 -10 -3c-3 -1 -5 -4 -7 -6c-1 -4 -2 -8 -2 -12s1 -8 2 -12c2 -2 3 -5 7 -8c2 -1 5 -2 10 -2c4 0 8 1 11 4c4 2 5 5 6 10zM644 -3h5v35l12 -35h5l12 34v-34h5v42h-8l-9 -30c-1 -3 -2 -5 -2 -7c0 2 -2 4 -2 7l-10 30h-8v-42zM63 74
c-1 -5 -4 -9 -6 -12c-4 -4 -8 -5 -13 -5c-4 0 -7 1 -11 4c-2 1 -5 5 -6 9c-3 4 -3 8 -3 13s0 9 1 13c2 4 4 6 8 9c3 3 7 4 12 4c4 0 8 -1 10 -4c3 -1 5 -5 7 -9l8 1c-2 7 -4 11 -10 13c-3 4 -9 5 -15 5c-5 0 -11 -1 -16 -4c-4 -2 -8 -6 -10 -10c-3 -5 -4 -12 -4 -18
c0 -5 1 -12 4 -17c1 -5 5 -9 9 -12c4 -2 10 -4 17 -4c6 0 12 2 17 6c4 3 8 9 9 15zM79 82c0 -6 1 -11 4 -16c2 -5 5 -9 10 -12c5 -2 10 -4 16 -4s11 2 15 4c5 3 9 7 12 12c2 5 4 10 4 17c0 6 -2 12 -4 17c-3 5 -7 9 -11 11c-5 3 -10 4 -16 4c-8 0 -16 -2 -21 -9
c-7 -5 -9 -14 -9 -24zM88 82c0 10 1 16 6 20c4 4 9 7 15 7c5 0 9 -1 11 -4c4 -1 7 -5 8 -9s3 -8 3 -13c0 -8 -3 -14 -7 -18c-4 -6 -9 -8 -15 -8s-11 2 -16 6c-4 6 -5 11 -5 19zM150 52h8v53l18 -53h8l18 52v-52h8v62h-10l-16 -43c-1 -5 -3 -9 -4 -10c0 1 -1 5 -3 9l-15 44
h-12v-62zM224 52h8v26h16c9 0 15 1 19 5c3 4 5 8 5 13c0 4 -1 6 -2 9c-2 3 -3 5 -5 6c-2 2 -4 3 -8 3h-9h-24v-62zM232 84v24h16c4 0 6 0 7 -2c3 0 4 -1 7 -4c1 -1 1 -4 1 -6c0 -4 -1 -7 -4 -8c-1 -3 -5 -4 -10 -4h-17zM283 52h39v6h-31v56h-8v-62zM332 52h47v6h-39v22h35v8
h-35v20h38v6h-46v-62zM406 52h9v56h21v6h-51v-6h21v-56zM445 52h47v6h-39v22h35v8h-35v20h38v6h-46v-62zM526 71c0 -4 1 -8 2 -10c3 -4 6 -7 10 -8c3 -1 9 -3 14 -3s9 2 13 3c2 1 6 4 8 6c2 3 2 7 2 10s0 6 -2 9c-2 2 -4 5 -8 6c-3 1 -8 3 -14 4c-7 3 -11 4 -12 5
c-3 2 -3 3 -3 5c0 3 2 6 3 7c2 3 6 3 12 3c5 0 7 0 10 -3c3 -1 4 -5 5 -9l8 1c0 4 -1 7 -4 9c-1 4 -4 5 -8 7s-8 2 -11 2c-6 0 -10 0 -12 -1c-4 -3 -7 -4 -8 -6c-3 -3 -4 -7 -4 -10c0 -2 1 -6 3 -7c1 -3 4 -6 6 -7c3 -1 7 -2 13 -4c5 -1 9 -2 11 -2c2 -2 5 -3 6 -4
c1 -2 1 -4 1 -5c0 -3 0 -4 -1 -6s-4 -4 -5 -4c-3 -1 -7 -1 -9 -1c-4 0 -7 0 -9 1c-4 2 -5 3 -7 6c-1 1 -2 4 -2 7zM587 52h47v6h-38v22h35v8h-35v20h36v6h-45v-62zM662 52h8v56h21v6h-49v-6h20v-56zM21 127h10v26h15c9 0 16 1 18 5c4 4 6 8 6 15c0 2 0 5 -2 7
c-1 3 -4 6 -5 7c-3 1 -5 2 -8 2h-9h-25v-62zM31 161v22h15c4 0 7 0 8 -1c3 0 4 -2 5 -3c1 -3 3 -5 3 -8c0 -2 -2 -6 -4 -8c-3 -2 -7 -2 -12 -2h-15zM80 127h47v8h-38v21h34v7h-34v20h36v6h-45v-62zM138 127h10v29h9c2 0 4 0 5 -2c1 0 2 0 4 -1c1 0 2 -3 4 -4c1 -2 4 -5 5 -9
l9 -13h10l-11 17c-2 4 -4 6 -7 9c-1 1 -2 1 -5 3c6 1 10 2 14 6c3 3 4 7 4 11c0 3 -1 6 -2 10c-2 3 -4 4 -7 5c-4 1 -8 1 -13 1h-29v-62zM148 162v21h19c5 0 8 -1 10 -3s3 -4 3 -7c0 -2 0 -4 -1 -6c-2 -1 -3 -2 -5 -4c-2 -1 -6 -1 -10 -1h-16zM200 148c0 -5 1 -8 2 -12
c3 -4 5 -5 9 -8c4 -1 9 -2 15 -2c5 0 9 1 13 2c2 3 5 4 7 8c2 3 3 5 3 9c0 3 -1 7 -3 9c-1 3 -4 4 -7 7c-3 0 -8 1 -15 4c-6 1 -10 2 -11 4c-3 1 -3 4 -3 5c0 2 1 5 3 6c2 3 6 4 11 4c4 0 8 -1 11 -4c2 -1 4 -5 5 -9l8 2c0 3 -2 6 -4 9c-2 4 -4 5 -8 7s-8 2 -12 2
c-5 0 -9 0 -11 -2c-4 -1 -7 -3 -8 -6c-3 -3 -3 -7 -3 -9c0 -3 0 -5 1 -8c2 -3 4 -4 7 -6s6 -3 13 -4c5 -2 9 -2 10 -3c3 -1 6 -3 7 -4s1 -2 1 -5c0 -1 -1 -4 -1 -5c-1 -2 -4 -3 -7 -4c-1 -1 -5 -1 -7 -1c-4 0 -7 1 -10 2c-3 0 -5 3 -6 4c-1 3 -3 5 -3 8h-7zM258 158
c0 -6 1 -11 4 -15c1 -6 5 -9 10 -12c4 -3 9 -5 16 -5c5 0 10 1 16 4c3 2 7 6 10 11c3 6 4 11 4 17c0 7 -1 12 -4 17s-5 9 -10 12c-6 2 -11 4 -16 4c-9 0 -16 -3 -22 -9c-5 -6 -8 -13 -8 -24zM266 158c0 9 2 16 6 20c6 4 9 6 16 6c4 0 8 -1 12 -4c2 -1 5 -5 6 -7
c3 -4 3 -10 3 -15c0 -8 -2 -14 -5 -18c-4 -4 -10 -6 -16 -6c-7 0 -12 2 -16 6s-6 10 -6 18zM328 127h8v49l34 -49h8v62h-8v-48l-33 48h-9v-62zM385 127h8l8 20h26l7 -20h10l-26 62h-9zM402 153l8 18c1 4 3 8 3 12c1 -3 2 -8 5 -13l6 -17h-22zM449 127h40v8h-31v54h-9v-62z
M561 189v-35c0 -7 -1 -14 -4 -17c-3 -2 -6 -3 -13 -3c-4 0 -6 1 -9 2s-4 3 -5 5c-2 3 -2 7 -2 13v35h-7v-35c0 -7 0 -13 1 -15c3 -4 5 -8 9 -9c3 -3 8 -4 14 -4s11 1 15 4c4 2 6 5 7 9c2 4 2 9 2 15v35h-8zM580 148c0 -5 2 -8 4 -12s6 -5 9 -8c4 -1 8 -2 15 -2c4 0 8 1 11 2
c4 3 7 4 8 8c3 3 3 5 3 9c0 3 0 7 -3 9c-1 3 -4 4 -8 7c-2 0 -6 1 -14 4c-6 1 -10 2 -12 4c-1 1 -2 4 -2 5c0 2 1 5 4 6c1 3 5 4 10 4s9 -1 11 -4c2 -1 3 -5 5 -9l8 2c0 3 -2 6 -3 9c-3 4 -5 5 -9 7c-3 2 -8 2 -12 2s-8 0 -12 -2c-3 -1 -6 -3 -7 -6c-2 -3 -3 -7 -3 -9
c0 -3 0 -5 3 -8c1 -3 2 -4 6 -6c1 -2 7 -3 12 -4c5 -2 9 -2 12 -3c2 -1 3 -3 5 -4c1 -1 1 -2 1 -5c0 -1 0 -4 -1 -5c-2 -2 -3 -3 -5 -4c-3 -1 -6 -1 -10 -1c-3 0 -6 1 -9 2c-2 0 -5 3 -6 4c-1 3 -3 5 -3 8h-8zM642 127h46v8h-37v21h33v7h-33v20h36v6h-45v-62z" />
    </font>
</defs>
</svg>
